%TF.GenerationSoftware,KiCad,Pcbnew,6.0.9+dfsg-1*%
%TF.CreationDate,2022-12-03T23:10:23+00:00*%
%TF.ProjectId,Token_Ring_MAU,546f6b65-6e5f-4526-996e-675f4d41552e,rev?*%
%TF.SameCoordinates,Original*%
%TF.FileFunction,Paste,Bot*%
%TF.FilePolarity,Positive*%
%FSLAX46Y46*%
G04 Gerber Fmt 4.6, Leading zero omitted, Abs format (unit mm)*
G04 Created by KiCad (PCBNEW 6.0.9+dfsg-1) date 2022-12-03 23:10:23*
%MOMM*%
%LPD*%
G01*
G04 APERTURE LIST*
G04 Aperture macros list*
%AMRoundRect*
0 Rectangle with rounded corners*
0 $1 Rounding radius*
0 $2 $3 $4 $5 $6 $7 $8 $9 X,Y pos of 4 corners*
0 Add a 4 corners polygon primitive as box body*
4,1,4,$2,$3,$4,$5,$6,$7,$8,$9,$2,$3,0*
0 Add four circle primitives for the rounded corners*
1,1,$1+$1,$2,$3*
1,1,$1+$1,$4,$5*
1,1,$1+$1,$6,$7*
1,1,$1+$1,$8,$9*
0 Add four rect primitives between the rounded corners*
20,1,$1+$1,$2,$3,$4,$5,0*
20,1,$1+$1,$4,$5,$6,$7,0*
20,1,$1+$1,$6,$7,$8,$9,0*
20,1,$1+$1,$8,$9,$2,$3,0*%
G04 Aperture macros list end*
%ADD10RoundRect,0.237500X0.250000X0.237500X-0.250000X0.237500X-0.250000X-0.237500X0.250000X-0.237500X0*%
%ADD11RoundRect,0.250000X-0.350000X-0.450000X0.350000X-0.450000X0.350000X0.450000X-0.350000X0.450000X0*%
%ADD12RoundRect,0.237500X-0.250000X-0.237500X0.250000X-0.237500X0.250000X0.237500X-0.250000X0.237500X0*%
%ADD13RoundRect,0.150000X0.587500X0.150000X-0.587500X0.150000X-0.587500X-0.150000X0.587500X-0.150000X0*%
%ADD14RoundRect,0.237500X-0.300000X-0.237500X0.300000X-0.237500X0.300000X0.237500X-0.300000X0.237500X0*%
%ADD15RoundRect,0.150000X-0.587500X-0.150000X0.587500X-0.150000X0.587500X0.150000X-0.587500X0.150000X0*%
%ADD16RoundRect,0.250000X-0.325000X-0.450000X0.325000X-0.450000X0.325000X0.450000X-0.325000X0.450000X0*%
G04 APERTURE END LIST*
D10*
X104267500Y-81557000D03*
X102442500Y-81557000D03*
X104267500Y-73937000D03*
X102442500Y-73937000D03*
X115212500Y-95504000D03*
X113387500Y-95504000D03*
X104267500Y-89177000D03*
X102442500Y-89177000D03*
D11*
X193160000Y-68290000D03*
X195160000Y-68290000D03*
D12*
X122127500Y-68290000D03*
X123952500Y-68290000D03*
D13*
X184937500Y-82580000D03*
X184937500Y-84480000D03*
X183062500Y-83530000D03*
D14*
X128527500Y-87340000D03*
X130252500Y-87340000D03*
D10*
X104267500Y-83081000D03*
X102442500Y-83081000D03*
X130302500Y-59400000D03*
X128477500Y-59400000D03*
D13*
X184937500Y-63530000D03*
X184937500Y-65430000D03*
X183062500Y-64480000D03*
D10*
X104267500Y-66317000D03*
X102442500Y-66317000D03*
X104267500Y-72413000D03*
X102442500Y-72413000D03*
X176022500Y-68290000D03*
X174197500Y-68290000D03*
X104267500Y-87653000D03*
X102442500Y-87653000D03*
D15*
X183062500Y-73050000D03*
X183062500Y-71150000D03*
X184937500Y-72100000D03*
D12*
X122127500Y-87340000D03*
X123952500Y-87340000D03*
D16*
X158360000Y-87340000D03*
X160410000Y-87340000D03*
D11*
X193160000Y-87340000D03*
X195160000Y-87340000D03*
D10*
X130302500Y-78450000D03*
X128477500Y-78450000D03*
D14*
X128527500Y-68290000D03*
X130252500Y-68290000D03*
D10*
X170942500Y-87340000D03*
X169117500Y-87340000D03*
X104267500Y-67841000D03*
X102442500Y-67841000D03*
X176022500Y-87340000D03*
X174197500Y-87340000D03*
X118232500Y-65301000D03*
X116407500Y-65301000D03*
D12*
X134827500Y-87340000D03*
X136652500Y-87340000D03*
D10*
X118232500Y-76731000D03*
X116407500Y-76731000D03*
X170942500Y-68290000D03*
X169117500Y-68290000D03*
D12*
X134827500Y-68290000D03*
X136652500Y-68290000D03*
D14*
X134877500Y-78450000D03*
X136602500Y-78450000D03*
D10*
X118232500Y-81049000D03*
X116407500Y-81049000D03*
D15*
X183062500Y-92100000D03*
X183062500Y-90200000D03*
X184937500Y-91150000D03*
D14*
X134877500Y-59400000D03*
X136602500Y-59400000D03*
D16*
X158475000Y-68300000D03*
X160525000Y-68300000D03*
M02*
