%TF.GenerationSoftware,KiCad,Pcbnew,6.0.9+dfsg-1*%
%TF.CreationDate,2022-12-03T23:10:23+00:00*%
%TF.ProjectId,Token_Ring_MAU,546f6b65-6e5f-4526-996e-675f4d41552e,rev?*%
%TF.SameCoordinates,Original*%
%TF.FileFunction,Legend,Top*%
%TF.FilePolarity,Positive*%
%FSLAX46Y46*%
G04 Gerber Fmt 4.6, Leading zero omitted, Abs format (unit mm)*
G04 Created by KiCad (PCBNEW 6.0.9+dfsg-1) date 2022-12-03 23:10:23*
%MOMM*%
%LPD*%
G01*
G04 APERTURE LIST*
G04 Aperture macros list*
%AMRoundRect*
0 Rectangle with rounded corners*
0 $1 Rounding radius*
0 $2 $3 $4 $5 $6 $7 $8 $9 X,Y pos of 4 corners*
0 Add a 4 corners polygon primitive as box body*
4,1,4,$2,$3,$4,$5,$6,$7,$8,$9,$2,$3,0*
0 Add four circle primitives for the rounded corners*
1,1,$1+$1,$2,$3*
1,1,$1+$1,$4,$5*
1,1,$1+$1,$6,$7*
1,1,$1+$1,$8,$9*
0 Add four rect primitives between the rounded corners*
20,1,$1+$1,$2,$3,$4,$5,0*
20,1,$1+$1,$4,$5,$6,$7,0*
20,1,$1+$1,$6,$7,$8,$9,0*
20,1,$1+$1,$8,$9,$2,$3,0*%
G04 Aperture macros list end*
%ADD10C,0.150000*%
%ADD11C,0.250000*%
%ADD12C,0.120000*%
%ADD13RoundRect,0.250000X0.475000X-0.337500X0.475000X0.337500X-0.475000X0.337500X-0.475000X-0.337500X0*%
%ADD14C,1.524000*%
%ADD15RoundRect,0.250000X0.537500X1.450000X-0.537500X1.450000X-0.537500X-1.450000X0.537500X-1.450000X0*%
%ADD16C,1.600000*%
%ADD17R,2.000000X4.000000*%
%ADD18O,2.000000X3.300000*%
%ADD19O,3.500000X2.000000*%
%ADD20R,1.600000X1.600000*%
%ADD21O,1.600000X1.600000*%
%ADD22RoundRect,0.250000X1.025000X-0.875000X1.025000X0.875000X-1.025000X0.875000X-1.025000X-0.875000X0*%
%ADD23RoundRect,0.250000X-0.400000X-0.625000X0.400000X-0.625000X0.400000X0.625000X-0.400000X0.625000X0*%
%ADD24C,5.600000*%
%ADD25RoundRect,0.250000X0.550000X-1.250000X0.550000X1.250000X-0.550000X1.250000X-0.550000X-1.250000X0*%
%ADD26R,1.700000X1.700000*%
%ADD27O,1.700000X1.700000*%
%ADD28R,1.200000X2.200000*%
%ADD29R,5.800000X6.400000*%
%ADD30C,3.250000*%
%ADD31R,1.500000X1.500000*%
%ADD32C,1.500000*%
%ADD33C,2.300000*%
G04 APERTURE END LIST*
D10*
X154000000Y-110000000D02*
X172000000Y-110000000D01*
X157000000Y-110000000D02*
X157000000Y-117000000D01*
X199000000Y-56000000D02*
X198000000Y-56000000D01*
X187000000Y-110000000D02*
X172000000Y-110000000D01*
X172000000Y-110000000D02*
X172000000Y-113500000D01*
X172000000Y-113500000D02*
X187000000Y-113500000D01*
X187000000Y-113500000D02*
X187000000Y-110000000D01*
G36*
X187000000Y-110000000D02*
G01*
X172000000Y-110000000D01*
X172000000Y-113500000D01*
X187000000Y-113500000D01*
X187000000Y-110000000D01*
G37*
X172000000Y-110000000D02*
X172000000Y-117000000D01*
X172000000Y-117000000D02*
X179500000Y-117000000D01*
X190000000Y-56000000D02*
X116000000Y-56000000D01*
X199000000Y-76000000D02*
X199000000Y-56000000D01*
X172000000Y-113500000D02*
X187000000Y-113500000D01*
X199000000Y-76000000D02*
X116000000Y-76000000D01*
X116000000Y-95000000D02*
X199000000Y-95000000D01*
X199000000Y-95000000D02*
X199000000Y-76000000D01*
X154000000Y-117000000D02*
X154000000Y-110000000D01*
X154000000Y-112000000D02*
X172000000Y-112000000D01*
X187000000Y-117000000D02*
X179500000Y-117000000D01*
X179500000Y-117000000D02*
X179500000Y-113950000D01*
X179500000Y-113950000D02*
X187000000Y-113950000D01*
X187000000Y-113950000D02*
X187000000Y-117000000D01*
G36*
X187000000Y-117000000D02*
G01*
X179500000Y-117000000D01*
X179500000Y-113950000D01*
X187000000Y-113950000D01*
X187000000Y-117000000D01*
G37*
X154000000Y-115000000D02*
X172000000Y-115000000D01*
X154000000Y-113500000D02*
X172000000Y-113500000D01*
X187000000Y-110000000D02*
X187000000Y-117000000D01*
X172000000Y-117000000D02*
X154000000Y-117000000D01*
X175285714Y-116395238D02*
X175095238Y-116300000D01*
X174904761Y-116109523D01*
X174619047Y-115823809D01*
X174428571Y-115728571D01*
X174238095Y-115728571D01*
X174333333Y-116204761D02*
X174142857Y-116109523D01*
X173952380Y-115919047D01*
X173857142Y-115538095D01*
X173857142Y-114871428D01*
X173952380Y-114490476D01*
X174142857Y-114300000D01*
X174333333Y-114204761D01*
X174714285Y-114204761D01*
X174904761Y-114300000D01*
X175095238Y-114490476D01*
X175190476Y-114871428D01*
X175190476Y-115538095D01*
X175095238Y-115919047D01*
X174904761Y-116109523D01*
X174714285Y-116204761D01*
X174333333Y-116204761D01*
X177190476Y-116014285D02*
X177095238Y-116109523D01*
X176809523Y-116204761D01*
X176619047Y-116204761D01*
X176333333Y-116109523D01*
X176142857Y-115919047D01*
X176047619Y-115728571D01*
X175952380Y-115347619D01*
X175952380Y-115061904D01*
X176047619Y-114680952D01*
X176142857Y-114490476D01*
X176333333Y-114300000D01*
X176619047Y-114204761D01*
X176809523Y-114204761D01*
X177095238Y-114300000D01*
X177190476Y-114395238D01*
X178047619Y-116014285D02*
X178142857Y-116109523D01*
X178047619Y-116204761D01*
X177952380Y-116109523D01*
X178047619Y-116014285D01*
X178047619Y-116204761D01*
X178047619Y-114966666D02*
X178142857Y-115061904D01*
X178047619Y-115157142D01*
X177952380Y-115061904D01*
X178047619Y-114966666D01*
X178047619Y-115157142D01*
D11*
X161887238Y-98532380D02*
X161887238Y-97532380D01*
X162220571Y-98246666D01*
X162553904Y-97532380D01*
X162553904Y-98532380D01*
X162982476Y-98246666D02*
X163458666Y-98246666D01*
X162887238Y-98532380D02*
X163220571Y-97532380D01*
X163553904Y-98532380D01*
X163887238Y-97532380D02*
X163887238Y-98341904D01*
X163934857Y-98437142D01*
X163982476Y-98484761D01*
X164077714Y-98532380D01*
X164268190Y-98532380D01*
X164363428Y-98484761D01*
X164411047Y-98437142D01*
X164458666Y-98341904D01*
X164458666Y-97532380D01*
X164934857Y-98532380D02*
X164934857Y-97865714D01*
X164934857Y-98056190D02*
X164982476Y-97960952D01*
X165030095Y-97913333D01*
X165125333Y-97865714D01*
X165220571Y-97865714D01*
X165934857Y-98484761D02*
X165839619Y-98532380D01*
X165649142Y-98532380D01*
X165553904Y-98484761D01*
X165506285Y-98389523D01*
X165506285Y-98008571D01*
X165553904Y-97913333D01*
X165649142Y-97865714D01*
X165839619Y-97865714D01*
X165934857Y-97913333D01*
X165982476Y-98008571D01*
X165982476Y-98103809D01*
X165506285Y-98199047D01*
X166792000Y-98484761D02*
X166696761Y-98532380D01*
X166506285Y-98532380D01*
X166411047Y-98484761D01*
X166363428Y-98389523D01*
X166363428Y-98008571D01*
X166411047Y-97913333D01*
X166506285Y-97865714D01*
X166696761Y-97865714D01*
X166792000Y-97913333D01*
X166839619Y-98008571D01*
X166839619Y-98103809D01*
X166363428Y-98199047D01*
X167268190Y-97865714D02*
X167268190Y-98532380D01*
X167268190Y-97960952D02*
X167315809Y-97913333D01*
X167411047Y-97865714D01*
X167553904Y-97865714D01*
X167649142Y-97913333D01*
X167696761Y-98008571D01*
X167696761Y-98532380D01*
X168553904Y-98484761D02*
X168458666Y-98532380D01*
X168268190Y-98532380D01*
X168172952Y-98484761D01*
X168125333Y-98389523D01*
X168125333Y-98008571D01*
X168172952Y-97913333D01*
X168268190Y-97865714D01*
X168458666Y-97865714D01*
X168553904Y-97913333D01*
X168601523Y-98008571D01*
X168601523Y-98103809D01*
X168125333Y-98199047D01*
X169934857Y-97960952D02*
X169839619Y-97913333D01*
X169792000Y-97865714D01*
X169744380Y-97770476D01*
X169744380Y-97722857D01*
X169792000Y-97627619D01*
X169839619Y-97580000D01*
X169934857Y-97532380D01*
X170125333Y-97532380D01*
X170220571Y-97580000D01*
X170268190Y-97627619D01*
X170315809Y-97722857D01*
X170315809Y-97770476D01*
X170268190Y-97865714D01*
X170220571Y-97913333D01*
X170125333Y-97960952D01*
X169934857Y-97960952D01*
X169839619Y-98008571D01*
X169792000Y-98056190D01*
X169744380Y-98151428D01*
X169744380Y-98341904D01*
X169792000Y-98437142D01*
X169839619Y-98484761D01*
X169934857Y-98532380D01*
X170125333Y-98532380D01*
X170220571Y-98484761D01*
X170268190Y-98437142D01*
X170315809Y-98341904D01*
X170315809Y-98151428D01*
X170268190Y-98056190D01*
X170220571Y-98008571D01*
X170125333Y-97960952D01*
X170696761Y-97627619D02*
X170744380Y-97580000D01*
X170839619Y-97532380D01*
X171077714Y-97532380D01*
X171172952Y-97580000D01*
X171220571Y-97627619D01*
X171268190Y-97722857D01*
X171268190Y-97818095D01*
X171220571Y-97960952D01*
X170649142Y-98532380D01*
X171268190Y-98532380D01*
X171649142Y-97627619D02*
X171696761Y-97580000D01*
X171792000Y-97532380D01*
X172030095Y-97532380D01*
X172125333Y-97580000D01*
X172172952Y-97627619D01*
X172220571Y-97722857D01*
X172220571Y-97818095D01*
X172172952Y-97960952D01*
X171601523Y-98532380D01*
X172220571Y-98532380D01*
X173077714Y-97532380D02*
X172887238Y-97532380D01*
X172792000Y-97580000D01*
X172744380Y-97627619D01*
X172649142Y-97770476D01*
X172601523Y-97960952D01*
X172601523Y-98341904D01*
X172649142Y-98437142D01*
X172696761Y-98484761D01*
X172792000Y-98532380D01*
X172982476Y-98532380D01*
X173077714Y-98484761D01*
X173125333Y-98437142D01*
X173172952Y-98341904D01*
X173172952Y-98103809D01*
X173125333Y-98008571D01*
X173077714Y-97960952D01*
X172982476Y-97913333D01*
X172792000Y-97913333D01*
X172696761Y-97960952D01*
X172649142Y-98008571D01*
X172601523Y-98103809D01*
X174934857Y-98532380D02*
X174601523Y-98056190D01*
X174363428Y-98532380D02*
X174363428Y-97532380D01*
X174744380Y-97532380D01*
X174839619Y-97580000D01*
X174887238Y-97627619D01*
X174934857Y-97722857D01*
X174934857Y-97865714D01*
X174887238Y-97960952D01*
X174839619Y-98008571D01*
X174744380Y-98056190D01*
X174363428Y-98056190D01*
X175744380Y-98484761D02*
X175649142Y-98532380D01*
X175458666Y-98532380D01*
X175363428Y-98484761D01*
X175315809Y-98389523D01*
X175315809Y-98008571D01*
X175363428Y-97913333D01*
X175458666Y-97865714D01*
X175649142Y-97865714D01*
X175744380Y-97913333D01*
X175792000Y-98008571D01*
X175792000Y-98103809D01*
X175315809Y-98199047D01*
X176125333Y-97865714D02*
X176363428Y-98532380D01*
X176601523Y-97865714D01*
X176982476Y-98437142D02*
X177030095Y-98484761D01*
X176982476Y-98532380D01*
X176934857Y-98484761D01*
X176982476Y-98437142D01*
X176982476Y-98532380D01*
X178744380Y-98532380D02*
X178172952Y-98532380D01*
X178458666Y-98532380D02*
X178458666Y-97532380D01*
X178363428Y-97675238D01*
X178268190Y-97770476D01*
X178172952Y-97818095D01*
X159172952Y-99142380D02*
X159744380Y-99142380D01*
X159458666Y-100142380D02*
X159458666Y-99142380D01*
X160220571Y-100142380D02*
X160125333Y-100094761D01*
X160077714Y-100047142D01*
X160030095Y-99951904D01*
X160030095Y-99666190D01*
X160077714Y-99570952D01*
X160125333Y-99523333D01*
X160220571Y-99475714D01*
X160363428Y-99475714D01*
X160458666Y-99523333D01*
X160506285Y-99570952D01*
X160553904Y-99666190D01*
X160553904Y-99951904D01*
X160506285Y-100047142D01*
X160458666Y-100094761D01*
X160363428Y-100142380D01*
X160220571Y-100142380D01*
X160982476Y-100142380D02*
X160982476Y-99142380D01*
X161077714Y-99761428D02*
X161363428Y-100142380D01*
X161363428Y-99475714D02*
X160982476Y-99856666D01*
X162172952Y-100094761D02*
X162077714Y-100142380D01*
X161887238Y-100142380D01*
X161792000Y-100094761D01*
X161744380Y-99999523D01*
X161744380Y-99618571D01*
X161792000Y-99523333D01*
X161887238Y-99475714D01*
X162077714Y-99475714D01*
X162172952Y-99523333D01*
X162220571Y-99618571D01*
X162220571Y-99713809D01*
X161744380Y-99809047D01*
X162649142Y-99475714D02*
X162649142Y-100142380D01*
X162649142Y-99570952D02*
X162696761Y-99523333D01*
X162792000Y-99475714D01*
X162934857Y-99475714D01*
X163030095Y-99523333D01*
X163077714Y-99618571D01*
X163077714Y-100142380D01*
X164887238Y-100142380D02*
X164553904Y-99666190D01*
X164315809Y-100142380D02*
X164315809Y-99142380D01*
X164696761Y-99142380D01*
X164792000Y-99190000D01*
X164839619Y-99237619D01*
X164887238Y-99332857D01*
X164887238Y-99475714D01*
X164839619Y-99570952D01*
X164792000Y-99618571D01*
X164696761Y-99666190D01*
X164315809Y-99666190D01*
X165315809Y-100142380D02*
X165315809Y-99475714D01*
X165315809Y-99142380D02*
X165268190Y-99190000D01*
X165315809Y-99237619D01*
X165363428Y-99190000D01*
X165315809Y-99142380D01*
X165315809Y-99237619D01*
X165792000Y-99475714D02*
X165792000Y-100142380D01*
X165792000Y-99570952D02*
X165839619Y-99523333D01*
X165934857Y-99475714D01*
X166077714Y-99475714D01*
X166172952Y-99523333D01*
X166220571Y-99618571D01*
X166220571Y-100142380D01*
X167125333Y-99475714D02*
X167125333Y-100285238D01*
X167077714Y-100380476D01*
X167030095Y-100428095D01*
X166934857Y-100475714D01*
X166792000Y-100475714D01*
X166696761Y-100428095D01*
X167125333Y-100094761D02*
X167030095Y-100142380D01*
X166839619Y-100142380D01*
X166744380Y-100094761D01*
X166696761Y-100047142D01*
X166649142Y-99951904D01*
X166649142Y-99666190D01*
X166696761Y-99570952D01*
X166744380Y-99523333D01*
X166839619Y-99475714D01*
X167030095Y-99475714D01*
X167125333Y-99523333D01*
X168649142Y-100523333D02*
X168601523Y-100475714D01*
X168506285Y-100332857D01*
X168458666Y-100237619D01*
X168411047Y-100094761D01*
X168363428Y-99856666D01*
X168363428Y-99666190D01*
X168411047Y-99428095D01*
X168458666Y-99285238D01*
X168506285Y-99190000D01*
X168601523Y-99047142D01*
X168649142Y-98999523D01*
X169030095Y-100142380D02*
X169030095Y-99142380D01*
X169506285Y-99618571D02*
X169839619Y-99618571D01*
X169982476Y-100142380D02*
X169506285Y-100142380D01*
X169506285Y-99142380D01*
X169982476Y-99142380D01*
X170411047Y-99618571D02*
X170744380Y-99618571D01*
X170887238Y-100142380D02*
X170411047Y-100142380D01*
X170411047Y-99142380D01*
X170887238Y-99142380D01*
X171315809Y-99618571D02*
X171649142Y-99618571D01*
X171792000Y-100142380D02*
X171315809Y-100142380D01*
X171315809Y-99142380D01*
X171792000Y-99142380D01*
X173125333Y-99570952D02*
X173030095Y-99523333D01*
X172982476Y-99475714D01*
X172934857Y-99380476D01*
X172934857Y-99332857D01*
X172982476Y-99237619D01*
X173030095Y-99190000D01*
X173125333Y-99142380D01*
X173315809Y-99142380D01*
X173411047Y-99190000D01*
X173458666Y-99237619D01*
X173506285Y-99332857D01*
X173506285Y-99380476D01*
X173458666Y-99475714D01*
X173411047Y-99523333D01*
X173315809Y-99570952D01*
X173125333Y-99570952D01*
X173030095Y-99618571D01*
X172982476Y-99666190D01*
X172934857Y-99761428D01*
X172934857Y-99951904D01*
X172982476Y-100047142D01*
X173030095Y-100094761D01*
X173125333Y-100142380D01*
X173315809Y-100142380D01*
X173411047Y-100094761D01*
X173458666Y-100047142D01*
X173506285Y-99951904D01*
X173506285Y-99761428D01*
X173458666Y-99666190D01*
X173411047Y-99618571D01*
X173315809Y-99570952D01*
X174125333Y-99142380D02*
X174220571Y-99142380D01*
X174315809Y-99190000D01*
X174363428Y-99237619D01*
X174411047Y-99332857D01*
X174458666Y-99523333D01*
X174458666Y-99761428D01*
X174411047Y-99951904D01*
X174363428Y-100047142D01*
X174315809Y-100094761D01*
X174220571Y-100142380D01*
X174125333Y-100142380D01*
X174030095Y-100094761D01*
X173982476Y-100047142D01*
X173934857Y-99951904D01*
X173887238Y-99761428D01*
X173887238Y-99523333D01*
X173934857Y-99332857D01*
X173982476Y-99237619D01*
X174030095Y-99190000D01*
X174125333Y-99142380D01*
X174839619Y-99237619D02*
X174887238Y-99190000D01*
X174982476Y-99142380D01*
X175220571Y-99142380D01*
X175315809Y-99190000D01*
X175363428Y-99237619D01*
X175411047Y-99332857D01*
X175411047Y-99428095D01*
X175363428Y-99570952D01*
X174792000Y-100142380D01*
X175411047Y-100142380D01*
X175839619Y-100047142D02*
X175887238Y-100094761D01*
X175839619Y-100142380D01*
X175792000Y-100094761D01*
X175839619Y-100047142D01*
X175839619Y-100142380D01*
X176792000Y-99142380D02*
X176315809Y-99142380D01*
X176268190Y-99618571D01*
X176315809Y-99570952D01*
X176411047Y-99523333D01*
X176649142Y-99523333D01*
X176744380Y-99570952D01*
X176792000Y-99618571D01*
X176839619Y-99713809D01*
X176839619Y-99951904D01*
X176792000Y-100047142D01*
X176744380Y-100094761D01*
X176649142Y-100142380D01*
X176411047Y-100142380D01*
X176315809Y-100094761D01*
X176268190Y-100047142D01*
X177172952Y-100523333D02*
X177220571Y-100475714D01*
X177315809Y-100332857D01*
X177363428Y-100237619D01*
X177411047Y-100094761D01*
X177458666Y-99856666D01*
X177458666Y-99666190D01*
X177411047Y-99428095D01*
X177363428Y-99285238D01*
X177315809Y-99190000D01*
X177220571Y-99047142D01*
X177172952Y-98999523D01*
X178696761Y-100142380D02*
X178696761Y-99142380D01*
X179030095Y-99856666D01*
X179363428Y-99142380D01*
X179363428Y-100142380D01*
X179792000Y-99856666D02*
X180268190Y-99856666D01*
X179696761Y-100142380D02*
X180030095Y-99142380D01*
X180363428Y-100142380D01*
X180696761Y-99142380D02*
X180696761Y-99951904D01*
X180744380Y-100047142D01*
X180792000Y-100094761D01*
X180887238Y-100142380D01*
X181077714Y-100142380D01*
X181172952Y-100094761D01*
X181220571Y-100047142D01*
X181268190Y-99951904D01*
X181268190Y-99142380D01*
X157268190Y-101466666D02*
X157744380Y-101466666D01*
X157172952Y-101752380D02*
X157506285Y-100752380D01*
X157839619Y-101752380D01*
X158315809Y-101752380D02*
X158220571Y-101704761D01*
X158172952Y-101609523D01*
X158172952Y-100752380D01*
X159077714Y-101704761D02*
X158982476Y-101752380D01*
X158791999Y-101752380D01*
X158696761Y-101704761D01*
X158649142Y-101609523D01*
X158649142Y-101228571D01*
X158696761Y-101133333D01*
X158791999Y-101085714D01*
X158982476Y-101085714D01*
X159077714Y-101133333D01*
X159125333Y-101228571D01*
X159125333Y-101323809D01*
X158649142Y-101419047D01*
X159458666Y-101752380D02*
X159982476Y-101085714D01*
X159458666Y-101085714D02*
X159982476Y-101752380D01*
X160791999Y-101752380D02*
X160791999Y-101228571D01*
X160744380Y-101133333D01*
X160649142Y-101085714D01*
X160458666Y-101085714D01*
X160363428Y-101133333D01*
X160791999Y-101704761D02*
X160696761Y-101752380D01*
X160458666Y-101752380D01*
X160363428Y-101704761D01*
X160315809Y-101609523D01*
X160315809Y-101514285D01*
X160363428Y-101419047D01*
X160458666Y-101371428D01*
X160696761Y-101371428D01*
X160791999Y-101323809D01*
X161268190Y-101085714D02*
X161268190Y-101752380D01*
X161268190Y-101180952D02*
X161315809Y-101133333D01*
X161411047Y-101085714D01*
X161553904Y-101085714D01*
X161649142Y-101133333D01*
X161696761Y-101228571D01*
X161696761Y-101752380D01*
X162601523Y-101752380D02*
X162601523Y-100752380D01*
X162601523Y-101704761D02*
X162506285Y-101752380D01*
X162315809Y-101752380D01*
X162220571Y-101704761D01*
X162172952Y-101657142D01*
X162125333Y-101561904D01*
X162125333Y-101276190D01*
X162172952Y-101180952D01*
X162220571Y-101133333D01*
X162315809Y-101085714D01*
X162506285Y-101085714D01*
X162601523Y-101133333D01*
X163458666Y-101704761D02*
X163363428Y-101752380D01*
X163172952Y-101752380D01*
X163077714Y-101704761D01*
X163030095Y-101609523D01*
X163030095Y-101228571D01*
X163077714Y-101133333D01*
X163172952Y-101085714D01*
X163363428Y-101085714D01*
X163458666Y-101133333D01*
X163506285Y-101228571D01*
X163506285Y-101323809D01*
X163030095Y-101419047D01*
X163934857Y-101752380D02*
X163934857Y-101085714D01*
X163934857Y-101276190D02*
X163982476Y-101180952D01*
X164030095Y-101133333D01*
X164125333Y-101085714D01*
X164220571Y-101085714D01*
X165268190Y-100752380D02*
X165268190Y-100942857D01*
X165649142Y-100752380D02*
X165649142Y-100942857D01*
X166077714Y-101752380D02*
X166077714Y-100752380D01*
X166077714Y-101133333D02*
X166172952Y-101085714D01*
X166363428Y-101085714D01*
X166458666Y-101133333D01*
X166506285Y-101180952D01*
X166553904Y-101276190D01*
X166553904Y-101561904D01*
X166506285Y-101657142D01*
X166458666Y-101704761D01*
X166363428Y-101752380D01*
X166172952Y-101752380D01*
X166077714Y-101704761D01*
X167125333Y-101752380D02*
X167030095Y-101704761D01*
X166982476Y-101609523D01*
X166982476Y-100752380D01*
X167934857Y-101752380D02*
X167934857Y-101228571D01*
X167887238Y-101133333D01*
X167792000Y-101085714D01*
X167601523Y-101085714D01*
X167506285Y-101133333D01*
X167934857Y-101704761D02*
X167839619Y-101752380D01*
X167601523Y-101752380D01*
X167506285Y-101704761D01*
X167458666Y-101609523D01*
X167458666Y-101514285D01*
X167506285Y-101419047D01*
X167601523Y-101371428D01*
X167839619Y-101371428D01*
X167934857Y-101323809D01*
X168839619Y-101704761D02*
X168744380Y-101752380D01*
X168553904Y-101752380D01*
X168458666Y-101704761D01*
X168411047Y-101657142D01*
X168363428Y-101561904D01*
X168363428Y-101276190D01*
X168411047Y-101180952D01*
X168458666Y-101133333D01*
X168553904Y-101085714D01*
X168744380Y-101085714D01*
X168839619Y-101133333D01*
X169268190Y-101752380D02*
X169268190Y-100752380D01*
X169363428Y-101371428D02*
X169649142Y-101752380D01*
X169649142Y-101085714D02*
X169268190Y-101466666D01*
X170077714Y-101752380D02*
X170077714Y-100752380D01*
X170077714Y-101133333D02*
X170172952Y-101085714D01*
X170363428Y-101085714D01*
X170458666Y-101133333D01*
X170506285Y-101180952D01*
X170553904Y-101276190D01*
X170553904Y-101561904D01*
X170506285Y-101657142D01*
X170458666Y-101704761D01*
X170363428Y-101752380D01*
X170172952Y-101752380D01*
X170077714Y-101704761D01*
X170982476Y-101752380D02*
X170982476Y-101085714D01*
X170982476Y-100752380D02*
X170934857Y-100800000D01*
X170982476Y-100847619D01*
X171030095Y-100800000D01*
X170982476Y-100752380D01*
X170982476Y-100847619D01*
X171315809Y-101085714D02*
X171696761Y-101085714D01*
X171458666Y-100752380D02*
X171458666Y-101609523D01*
X171506285Y-101704761D01*
X171601523Y-101752380D01*
X171696761Y-101752380D01*
X171982476Y-100752380D02*
X171982476Y-100942857D01*
X172363428Y-100752380D02*
X172363428Y-100942857D01*
X173553904Y-101752380D02*
X173553904Y-100752380D01*
X173553904Y-101228571D02*
X174125333Y-101228571D01*
X174125333Y-101752380D02*
X174125333Y-100752380D01*
X175030095Y-101085714D02*
X175030095Y-101752380D01*
X174601523Y-101085714D02*
X174601523Y-101609523D01*
X174649142Y-101704761D01*
X174744380Y-101752380D01*
X174887238Y-101752380D01*
X174982476Y-101704761D01*
X175030095Y-101657142D01*
X175887238Y-101704761D02*
X175791999Y-101752380D01*
X175601523Y-101752380D01*
X175506285Y-101704761D01*
X175458666Y-101609523D01*
X175458666Y-101228571D01*
X175506285Y-101133333D01*
X175601523Y-101085714D01*
X175791999Y-101085714D01*
X175887238Y-101133333D01*
X175934857Y-101228571D01*
X175934857Y-101323809D01*
X175458666Y-101419047D01*
X176363428Y-101752380D02*
X176363428Y-101085714D01*
X176363428Y-101180952D02*
X176411047Y-101133333D01*
X176506285Y-101085714D01*
X176649142Y-101085714D01*
X176744380Y-101133333D01*
X176791999Y-101228571D01*
X176791999Y-101752380D01*
X176791999Y-101228571D02*
X176839619Y-101133333D01*
X176934857Y-101085714D01*
X177077714Y-101085714D01*
X177172952Y-101133333D01*
X177220571Y-101228571D01*
X177220571Y-101752380D01*
X178077714Y-101704761D02*
X177982476Y-101752380D01*
X177791999Y-101752380D01*
X177696761Y-101704761D01*
X177649142Y-101609523D01*
X177649142Y-101228571D01*
X177696761Y-101133333D01*
X177791999Y-101085714D01*
X177982476Y-101085714D01*
X178077714Y-101133333D01*
X178125333Y-101228571D01*
X178125333Y-101323809D01*
X177649142Y-101419047D01*
X178553904Y-101752380D02*
X178553904Y-101085714D01*
X178553904Y-101276190D02*
X178601523Y-101180952D01*
X178649142Y-101133333D01*
X178744380Y-101085714D01*
X178839619Y-101085714D01*
X179887238Y-100847619D02*
X179934857Y-100800000D01*
X180030095Y-100752380D01*
X180268190Y-100752380D01*
X180363428Y-100800000D01*
X180411047Y-100847619D01*
X180458666Y-100942857D01*
X180458666Y-101038095D01*
X180411047Y-101180952D01*
X179839619Y-101752380D01*
X180458666Y-101752380D01*
X181077714Y-100752380D02*
X181172952Y-100752380D01*
X181268190Y-100800000D01*
X181315809Y-100847619D01*
X181363428Y-100942857D01*
X181411047Y-101133333D01*
X181411047Y-101371428D01*
X181363428Y-101561904D01*
X181315809Y-101657142D01*
X181268190Y-101704761D01*
X181172952Y-101752380D01*
X181077714Y-101752380D01*
X180982476Y-101704761D01*
X180934857Y-101657142D01*
X180887238Y-101561904D01*
X180839619Y-101371428D01*
X180839619Y-101133333D01*
X180887238Y-100942857D01*
X180934857Y-100847619D01*
X180982476Y-100800000D01*
X181077714Y-100752380D01*
X181791999Y-100847619D02*
X181839619Y-100800000D01*
X181934857Y-100752380D01*
X182172952Y-100752380D01*
X182268190Y-100800000D01*
X182315809Y-100847619D01*
X182363428Y-100942857D01*
X182363428Y-101038095D01*
X182315809Y-101180952D01*
X181744380Y-101752380D01*
X182363428Y-101752380D01*
X182744380Y-100847619D02*
X182791999Y-100800000D01*
X182887238Y-100752380D01*
X183125333Y-100752380D01*
X183220571Y-100800000D01*
X183268190Y-100847619D01*
X183315809Y-100942857D01*
X183315809Y-101038095D01*
X183268190Y-101180952D01*
X182696761Y-101752380D01*
X183315809Y-101752380D01*
X160625333Y-103362380D02*
X160149142Y-103362380D01*
X160149142Y-102362380D01*
X160958666Y-103362380D02*
X160958666Y-102695714D01*
X160958666Y-102362380D02*
X160911047Y-102410000D01*
X160958666Y-102457619D01*
X161006285Y-102410000D01*
X160958666Y-102362380D01*
X160958666Y-102457619D01*
X161863428Y-103314761D02*
X161768190Y-103362380D01*
X161577714Y-103362380D01*
X161482476Y-103314761D01*
X161434857Y-103267142D01*
X161387238Y-103171904D01*
X161387238Y-102886190D01*
X161434857Y-102790952D01*
X161482476Y-102743333D01*
X161577714Y-102695714D01*
X161768190Y-102695714D01*
X161863428Y-102743333D01*
X162672952Y-103314761D02*
X162577714Y-103362380D01*
X162387238Y-103362380D01*
X162292000Y-103314761D01*
X162244380Y-103219523D01*
X162244380Y-102838571D01*
X162292000Y-102743333D01*
X162387238Y-102695714D01*
X162577714Y-102695714D01*
X162672952Y-102743333D01*
X162720571Y-102838571D01*
X162720571Y-102933809D01*
X162244380Y-103029047D01*
X163149142Y-102695714D02*
X163149142Y-103362380D01*
X163149142Y-102790952D02*
X163196761Y-102743333D01*
X163292000Y-102695714D01*
X163434857Y-102695714D01*
X163530095Y-102743333D01*
X163577714Y-102838571D01*
X163577714Y-103362380D01*
X164006285Y-103314761D02*
X164101523Y-103362380D01*
X164292000Y-103362380D01*
X164387238Y-103314761D01*
X164434857Y-103219523D01*
X164434857Y-103171904D01*
X164387238Y-103076666D01*
X164292000Y-103029047D01*
X164149142Y-103029047D01*
X164053904Y-102981428D01*
X164006285Y-102886190D01*
X164006285Y-102838571D01*
X164053904Y-102743333D01*
X164149142Y-102695714D01*
X164292000Y-102695714D01*
X164387238Y-102743333D01*
X165244380Y-103314761D02*
X165149142Y-103362380D01*
X164958666Y-103362380D01*
X164863428Y-103314761D01*
X164815809Y-103219523D01*
X164815809Y-102838571D01*
X164863428Y-102743333D01*
X164958666Y-102695714D01*
X165149142Y-102695714D01*
X165244380Y-102743333D01*
X165292000Y-102838571D01*
X165292000Y-102933809D01*
X164815809Y-103029047D01*
X165720571Y-103267142D02*
X165768190Y-103314761D01*
X165720571Y-103362380D01*
X165672952Y-103314761D01*
X165720571Y-103267142D01*
X165720571Y-103362380D01*
X165720571Y-102743333D02*
X165768190Y-102790952D01*
X165720571Y-102838571D01*
X165672952Y-102790952D01*
X165720571Y-102743333D01*
X165720571Y-102838571D01*
X167530095Y-103267142D02*
X167482476Y-103314761D01*
X167339619Y-103362380D01*
X167244380Y-103362380D01*
X167101523Y-103314761D01*
X167006285Y-103219523D01*
X166958666Y-103124285D01*
X166911047Y-102933809D01*
X166911047Y-102790952D01*
X166958666Y-102600476D01*
X167006285Y-102505238D01*
X167101523Y-102410000D01*
X167244380Y-102362380D01*
X167339619Y-102362380D01*
X167482476Y-102410000D01*
X167530095Y-102457619D01*
X167958666Y-102838571D02*
X168292000Y-102838571D01*
X168434857Y-103362380D02*
X167958666Y-103362380D01*
X167958666Y-102362380D01*
X168434857Y-102362380D01*
X169434857Y-103362380D02*
X169101523Y-102886190D01*
X168863428Y-103362380D02*
X168863428Y-102362380D01*
X169244380Y-102362380D01*
X169339619Y-102410000D01*
X169387238Y-102457619D01*
X169434857Y-102552857D01*
X169434857Y-102695714D01*
X169387238Y-102790952D01*
X169339619Y-102838571D01*
X169244380Y-102886190D01*
X168863428Y-102886190D01*
X169863428Y-103362380D02*
X169863428Y-102362380D01*
X170434857Y-103362380D01*
X170434857Y-102362380D01*
X170911047Y-102981428D02*
X171672952Y-102981428D01*
X172339619Y-102362380D02*
X172530095Y-102362380D01*
X172625333Y-102410000D01*
X172720571Y-102505238D01*
X172768190Y-102695714D01*
X172768190Y-103029047D01*
X172720571Y-103219523D01*
X172625333Y-103314761D01*
X172530095Y-103362380D01*
X172339619Y-103362380D01*
X172244380Y-103314761D01*
X172149142Y-103219523D01*
X172101523Y-103029047D01*
X172101523Y-102695714D01*
X172149142Y-102505238D01*
X172244380Y-102410000D01*
X172339619Y-102362380D01*
X173196761Y-103362380D02*
X173196761Y-102362380D01*
X173196761Y-102838571D02*
X173768190Y-102838571D01*
X173768190Y-103362380D02*
X173768190Y-102362380D01*
X174720571Y-103362380D02*
X174244380Y-103362380D01*
X174244380Y-102362380D01*
X175053904Y-102981428D02*
X175815809Y-102981428D01*
X176292000Y-103362380D02*
X176292000Y-102362380D01*
X176672952Y-102362380D01*
X176768190Y-102410000D01*
X176815809Y-102457619D01*
X176863428Y-102552857D01*
X176863428Y-102695714D01*
X176815809Y-102790952D01*
X176768190Y-102838571D01*
X176672952Y-102886190D01*
X176292000Y-102886190D01*
X177292000Y-102981428D02*
X178053904Y-102981428D01*
X178482476Y-102457619D02*
X178530095Y-102410000D01*
X178625333Y-102362380D01*
X178863428Y-102362380D01*
X178958666Y-102410000D01*
X179006285Y-102457619D01*
X179053904Y-102552857D01*
X179053904Y-102648095D01*
X179006285Y-102790952D01*
X178434857Y-103362380D01*
X179053904Y-103362380D01*
X179482476Y-103267142D02*
X179530095Y-103314761D01*
X179482476Y-103362380D01*
X179434857Y-103314761D01*
X179482476Y-103267142D01*
X179482476Y-103362380D01*
X180149142Y-102362380D02*
X180244380Y-102362380D01*
X180339619Y-102410000D01*
X180387238Y-102457619D01*
X180434857Y-102552857D01*
X180482476Y-102743333D01*
X180482476Y-102981428D01*
X180434857Y-103171904D01*
X180387238Y-103267142D01*
X180339619Y-103314761D01*
X180244380Y-103362380D01*
X180149142Y-103362380D01*
X180053904Y-103314761D01*
X180006285Y-103267142D01*
X179958666Y-103171904D01*
X179911047Y-102981428D01*
X179911047Y-102743333D01*
X179958666Y-102552857D01*
X180006285Y-102457619D01*
X180053904Y-102410000D01*
X180149142Y-102362380D01*
X152411047Y-104972380D02*
X152411047Y-103972380D01*
X152839619Y-104972380D02*
X152839619Y-104448571D01*
X152792000Y-104353333D01*
X152696761Y-104305714D01*
X152553904Y-104305714D01*
X152458666Y-104353333D01*
X152411047Y-104400952D01*
X153172952Y-104305714D02*
X153553904Y-104305714D01*
X153315809Y-103972380D02*
X153315809Y-104829523D01*
X153363428Y-104924761D01*
X153458666Y-104972380D01*
X153553904Y-104972380D01*
X153744380Y-104305714D02*
X154125333Y-104305714D01*
X153887238Y-103972380D02*
X153887238Y-104829523D01*
X153934857Y-104924761D01*
X154030095Y-104972380D01*
X154125333Y-104972380D01*
X154458666Y-104305714D02*
X154458666Y-105305714D01*
X154458666Y-104353333D02*
X154553904Y-104305714D01*
X154744380Y-104305714D01*
X154839619Y-104353333D01*
X154887238Y-104400952D01*
X154934857Y-104496190D01*
X154934857Y-104781904D01*
X154887238Y-104877142D01*
X154839619Y-104924761D01*
X154744380Y-104972380D01*
X154553904Y-104972380D01*
X154458666Y-104924761D01*
X155315809Y-104924761D02*
X155411047Y-104972380D01*
X155601523Y-104972380D01*
X155696761Y-104924761D01*
X155744380Y-104829523D01*
X155744380Y-104781904D01*
X155696761Y-104686666D01*
X155601523Y-104639047D01*
X155458666Y-104639047D01*
X155363428Y-104591428D01*
X155315809Y-104496190D01*
X155315809Y-104448571D01*
X155363428Y-104353333D01*
X155458666Y-104305714D01*
X155601523Y-104305714D01*
X155696761Y-104353333D01*
X156172952Y-104877142D02*
X156220571Y-104924761D01*
X156172952Y-104972380D01*
X156125333Y-104924761D01*
X156172952Y-104877142D01*
X156172952Y-104972380D01*
X156172952Y-104353333D02*
X156220571Y-104400952D01*
X156172952Y-104448571D01*
X156125333Y-104400952D01*
X156172952Y-104353333D01*
X156172952Y-104448571D01*
X157363428Y-103924761D02*
X156506285Y-105210476D01*
X158411047Y-103924761D02*
X157553904Y-105210476D01*
X159172952Y-104305714D02*
X159172952Y-105115238D01*
X159125333Y-105210476D01*
X159077714Y-105258095D01*
X158982476Y-105305714D01*
X158839619Y-105305714D01*
X158744380Y-105258095D01*
X159172952Y-104924761D02*
X159077714Y-104972380D01*
X158887238Y-104972380D01*
X158792000Y-104924761D01*
X158744380Y-104877142D01*
X158696761Y-104781904D01*
X158696761Y-104496190D01*
X158744380Y-104400952D01*
X158792000Y-104353333D01*
X158887238Y-104305714D01*
X159077714Y-104305714D01*
X159172952Y-104353333D01*
X159649142Y-104972380D02*
X159649142Y-104305714D01*
X159649142Y-103972380D02*
X159601523Y-104020000D01*
X159649142Y-104067619D01*
X159696761Y-104020000D01*
X159649142Y-103972380D01*
X159649142Y-104067619D01*
X159982476Y-104305714D02*
X160363428Y-104305714D01*
X160125333Y-103972380D02*
X160125333Y-104829523D01*
X160172952Y-104924761D01*
X160268190Y-104972380D01*
X160363428Y-104972380D01*
X160696761Y-104972380D02*
X160696761Y-103972380D01*
X161125333Y-104972380D02*
X161125333Y-104448571D01*
X161077714Y-104353333D01*
X160982476Y-104305714D01*
X160839619Y-104305714D01*
X160744380Y-104353333D01*
X160696761Y-104400952D01*
X162030095Y-104305714D02*
X162030095Y-104972380D01*
X161601523Y-104305714D02*
X161601523Y-104829523D01*
X161649142Y-104924761D01*
X161744380Y-104972380D01*
X161887238Y-104972380D01*
X161982476Y-104924761D01*
X162030095Y-104877142D01*
X162506285Y-104972380D02*
X162506285Y-103972380D01*
X162506285Y-104353333D02*
X162601523Y-104305714D01*
X162792000Y-104305714D01*
X162887238Y-104353333D01*
X162934857Y-104400952D01*
X162982476Y-104496190D01*
X162982476Y-104781904D01*
X162934857Y-104877142D01*
X162887238Y-104924761D01*
X162792000Y-104972380D01*
X162601523Y-104972380D01*
X162506285Y-104924761D01*
X163411047Y-104877142D02*
X163458666Y-104924761D01*
X163411047Y-104972380D01*
X163363428Y-104924761D01*
X163411047Y-104877142D01*
X163411047Y-104972380D01*
X164315809Y-104924761D02*
X164220571Y-104972380D01*
X164030095Y-104972380D01*
X163934857Y-104924761D01*
X163887238Y-104877142D01*
X163839619Y-104781904D01*
X163839619Y-104496190D01*
X163887238Y-104400952D01*
X163934857Y-104353333D01*
X164030095Y-104305714D01*
X164220571Y-104305714D01*
X164315809Y-104353333D01*
X164887238Y-104972380D02*
X164792000Y-104924761D01*
X164744380Y-104877142D01*
X164696761Y-104781904D01*
X164696761Y-104496190D01*
X164744380Y-104400952D01*
X164792000Y-104353333D01*
X164887238Y-104305714D01*
X165030095Y-104305714D01*
X165125333Y-104353333D01*
X165172952Y-104400952D01*
X165220571Y-104496190D01*
X165220571Y-104781904D01*
X165172952Y-104877142D01*
X165125333Y-104924761D01*
X165030095Y-104972380D01*
X164887238Y-104972380D01*
X165649142Y-104972380D02*
X165649142Y-104305714D01*
X165649142Y-104400952D02*
X165696761Y-104353333D01*
X165792000Y-104305714D01*
X165934857Y-104305714D01*
X166030095Y-104353333D01*
X166077714Y-104448571D01*
X166077714Y-104972380D01*
X166077714Y-104448571D02*
X166125333Y-104353333D01*
X166220571Y-104305714D01*
X166363428Y-104305714D01*
X166458666Y-104353333D01*
X166506285Y-104448571D01*
X166506285Y-104972380D01*
X167696761Y-103924761D02*
X166839619Y-105210476D01*
X168030095Y-104972380D02*
X168030095Y-103972380D01*
X168030095Y-104353333D02*
X168125333Y-104305714D01*
X168315809Y-104305714D01*
X168411047Y-104353333D01*
X168458666Y-104400952D01*
X168506285Y-104496190D01*
X168506285Y-104781904D01*
X168458666Y-104877142D01*
X168411047Y-104924761D01*
X168315809Y-104972380D01*
X168125333Y-104972380D01*
X168030095Y-104924761D01*
X169077714Y-104972380D02*
X168982476Y-104924761D01*
X168934857Y-104829523D01*
X168934857Y-103972380D01*
X169887238Y-104972380D02*
X169887238Y-104448571D01*
X169839619Y-104353333D01*
X169744380Y-104305714D01*
X169553904Y-104305714D01*
X169458666Y-104353333D01*
X169887238Y-104924761D02*
X169792000Y-104972380D01*
X169553904Y-104972380D01*
X169458666Y-104924761D01*
X169411047Y-104829523D01*
X169411047Y-104734285D01*
X169458666Y-104639047D01*
X169553904Y-104591428D01*
X169792000Y-104591428D01*
X169887238Y-104543809D01*
X170792000Y-104924761D02*
X170696761Y-104972380D01*
X170506285Y-104972380D01*
X170411047Y-104924761D01*
X170363428Y-104877142D01*
X170315809Y-104781904D01*
X170315809Y-104496190D01*
X170363428Y-104400952D01*
X170411047Y-104353333D01*
X170506285Y-104305714D01*
X170696761Y-104305714D01*
X170792000Y-104353333D01*
X171220571Y-104972380D02*
X171220571Y-103972380D01*
X171315809Y-104591428D02*
X171601523Y-104972380D01*
X171601523Y-104305714D02*
X171220571Y-104686666D01*
X172030095Y-104972380D02*
X172030095Y-103972380D01*
X172030095Y-104353333D02*
X172125333Y-104305714D01*
X172315809Y-104305714D01*
X172411047Y-104353333D01*
X172458666Y-104400952D01*
X172506285Y-104496190D01*
X172506285Y-104781904D01*
X172458666Y-104877142D01*
X172411047Y-104924761D01*
X172315809Y-104972380D01*
X172125333Y-104972380D01*
X172030095Y-104924761D01*
X172934857Y-104972380D02*
X172934857Y-104305714D01*
X172934857Y-103972380D02*
X172887238Y-104020000D01*
X172934857Y-104067619D01*
X172982476Y-104020000D01*
X172934857Y-103972380D01*
X172934857Y-104067619D01*
X173268190Y-104305714D02*
X173649142Y-104305714D01*
X173411047Y-103972380D02*
X173411047Y-104829523D01*
X173458666Y-104924761D01*
X173553904Y-104972380D01*
X173649142Y-104972380D01*
X174411047Y-104305714D02*
X174411047Y-104972380D01*
X174172952Y-103924761D02*
X173934857Y-104639047D01*
X174553904Y-104639047D01*
X174887238Y-104067619D02*
X174934857Y-104020000D01*
X175030095Y-103972380D01*
X175268190Y-103972380D01*
X175363428Y-104020000D01*
X175411047Y-104067619D01*
X175458666Y-104162857D01*
X175458666Y-104258095D01*
X175411047Y-104400952D01*
X174839619Y-104972380D01*
X175458666Y-104972380D01*
X176601523Y-103924761D02*
X175744380Y-105210476D01*
X176934857Y-104972380D02*
X176934857Y-103972380D01*
X177268190Y-104686666D01*
X177601523Y-103972380D01*
X177601523Y-104972380D01*
X178030095Y-104686666D02*
X178506285Y-104686666D01*
X177934857Y-104972380D02*
X178268190Y-103972380D01*
X178601523Y-104972380D01*
X178934857Y-103972380D02*
X178934857Y-104781904D01*
X178982476Y-104877142D01*
X179030095Y-104924761D01*
X179125333Y-104972380D01*
X179315809Y-104972380D01*
X179411047Y-104924761D01*
X179458666Y-104877142D01*
X179506285Y-104781904D01*
X179506285Y-103972380D01*
X179982476Y-104972380D02*
X179982476Y-104305714D01*
X179982476Y-104496190D02*
X180030095Y-104400952D01*
X180077714Y-104353333D01*
X180172952Y-104305714D01*
X180268190Y-104305714D01*
X180982476Y-104924761D02*
X180887238Y-104972380D01*
X180696761Y-104972380D01*
X180601523Y-104924761D01*
X180553904Y-104829523D01*
X180553904Y-104448571D01*
X180601523Y-104353333D01*
X180696761Y-104305714D01*
X180887238Y-104305714D01*
X180982476Y-104353333D01*
X181030095Y-104448571D01*
X181030095Y-104543809D01*
X180553904Y-104639047D01*
X181839619Y-104924761D02*
X181744380Y-104972380D01*
X181553904Y-104972380D01*
X181458666Y-104924761D01*
X181411047Y-104829523D01*
X181411047Y-104448571D01*
X181458666Y-104353333D01*
X181553904Y-104305714D01*
X181744380Y-104305714D01*
X181839619Y-104353333D01*
X181887238Y-104448571D01*
X181887238Y-104543809D01*
X181411047Y-104639047D01*
X182315809Y-104305714D02*
X182315809Y-104972380D01*
X182315809Y-104400952D02*
X182363428Y-104353333D01*
X182458666Y-104305714D01*
X182601523Y-104305714D01*
X182696761Y-104353333D01*
X182744380Y-104448571D01*
X182744380Y-104972380D01*
X183601523Y-104924761D02*
X183506285Y-104972380D01*
X183315809Y-104972380D01*
X183220571Y-104924761D01*
X183172952Y-104829523D01*
X183172952Y-104448571D01*
X183220571Y-104353333D01*
X183315809Y-104305714D01*
X183506285Y-104305714D01*
X183601523Y-104353333D01*
X183649142Y-104448571D01*
X183649142Y-104543809D01*
X183172952Y-104639047D01*
X183839619Y-105067619D02*
X184601523Y-105067619D01*
X184982476Y-104400952D02*
X184887238Y-104353333D01*
X184839619Y-104305714D01*
X184792000Y-104210476D01*
X184792000Y-104162857D01*
X184839619Y-104067619D01*
X184887238Y-104020000D01*
X184982476Y-103972380D01*
X185172952Y-103972380D01*
X185268190Y-104020000D01*
X185315809Y-104067619D01*
X185363428Y-104162857D01*
X185363428Y-104210476D01*
X185315809Y-104305714D01*
X185268190Y-104353333D01*
X185172952Y-104400952D01*
X184982476Y-104400952D01*
X184887238Y-104448571D01*
X184839619Y-104496190D01*
X184792000Y-104591428D01*
X184792000Y-104781904D01*
X184839619Y-104877142D01*
X184887238Y-104924761D01*
X184982476Y-104972380D01*
X185172952Y-104972380D01*
X185268190Y-104924761D01*
X185315809Y-104877142D01*
X185363428Y-104781904D01*
X185363428Y-104591428D01*
X185315809Y-104496190D01*
X185268190Y-104448571D01*
X185172952Y-104400952D01*
X185744380Y-104067619D02*
X185792000Y-104020000D01*
X185887238Y-103972380D01*
X186125333Y-103972380D01*
X186220571Y-104020000D01*
X186268190Y-104067619D01*
X186315809Y-104162857D01*
X186315809Y-104258095D01*
X186268190Y-104400952D01*
X185696761Y-104972380D01*
X186315809Y-104972380D01*
X186696761Y-104067619D02*
X186744380Y-104020000D01*
X186839619Y-103972380D01*
X187077714Y-103972380D01*
X187172952Y-104020000D01*
X187220571Y-104067619D01*
X187268190Y-104162857D01*
X187268190Y-104258095D01*
X187220571Y-104400952D01*
X186649142Y-104972380D01*
X187268190Y-104972380D01*
X188125333Y-103972380D02*
X187934857Y-103972380D01*
X187839619Y-104020000D01*
X187792000Y-104067619D01*
X187696761Y-104210476D01*
X187649142Y-104400952D01*
X187649142Y-104781904D01*
X187696761Y-104877142D01*
X187744380Y-104924761D01*
X187839619Y-104972380D01*
X188030095Y-104972380D01*
X188125333Y-104924761D01*
X188172952Y-104877142D01*
X188220571Y-104781904D01*
X188220571Y-104543809D01*
X188172952Y-104448571D01*
X188125333Y-104400952D01*
X188030095Y-104353333D01*
X187839619Y-104353333D01*
X187744380Y-104400952D01*
X187696761Y-104448571D01*
X187649142Y-104543809D01*
D10*
X161907023Y-108427380D02*
X161430833Y-108427380D01*
X161430833Y-107427380D01*
X162240357Y-107903571D02*
X162573690Y-107903571D01*
X162716547Y-108427380D02*
X162240357Y-108427380D01*
X162240357Y-107427380D01*
X162716547Y-107427380D01*
X163145119Y-108427380D02*
X163145119Y-107427380D01*
X163383214Y-107427380D01*
X163526071Y-107475000D01*
X163621309Y-107570238D01*
X163668928Y-107665476D01*
X163716547Y-107855952D01*
X163716547Y-107998809D01*
X163668928Y-108189285D01*
X163621309Y-108284523D01*
X163526071Y-108379761D01*
X163383214Y-108427380D01*
X163145119Y-108427380D01*
X164097500Y-108379761D02*
X164192738Y-108427380D01*
X164383214Y-108427380D01*
X164478452Y-108379761D01*
X164526071Y-108284523D01*
X164526071Y-108236904D01*
X164478452Y-108141666D01*
X164383214Y-108094047D01*
X164240357Y-108094047D01*
X164145119Y-108046428D01*
X164097500Y-107951190D01*
X164097500Y-107903571D01*
X164145119Y-107808333D01*
X164240357Y-107760714D01*
X164383214Y-107760714D01*
X164478452Y-107808333D01*
X155859404Y-110695000D02*
X155764166Y-110647380D01*
X155621309Y-110647380D01*
X155478452Y-110695000D01*
X155383214Y-110790238D01*
X155335595Y-110885476D01*
X155287976Y-111075952D01*
X155287976Y-111218809D01*
X155335595Y-111409285D01*
X155383214Y-111504523D01*
X155478452Y-111599761D01*
X155621309Y-111647380D01*
X155716547Y-111647380D01*
X155859404Y-111599761D01*
X155907023Y-111552142D01*
X155907023Y-111218809D01*
X155716547Y-111218809D01*
X158335595Y-110647380D02*
X157859404Y-110647380D01*
X157811785Y-111123571D01*
X157859404Y-111075952D01*
X157954642Y-111028333D01*
X158192738Y-111028333D01*
X158287976Y-111075952D01*
X158335595Y-111123571D01*
X158383214Y-111218809D01*
X158383214Y-111456904D01*
X158335595Y-111552142D01*
X158287976Y-111599761D01*
X158192738Y-111647380D01*
X157954642Y-111647380D01*
X157859404Y-111599761D01*
X157811785Y-111552142D01*
X158668928Y-110647380D02*
X159002261Y-111647380D01*
X159335595Y-110647380D01*
X160430833Y-111647380D02*
X160430833Y-110980714D01*
X160430833Y-111171190D02*
X160478452Y-111075952D01*
X160526071Y-111028333D01*
X160621309Y-110980714D01*
X160716547Y-110980714D01*
X161478452Y-111647380D02*
X161478452Y-111123571D01*
X161430833Y-111028333D01*
X161335595Y-110980714D01*
X161145119Y-110980714D01*
X161049880Y-111028333D01*
X161478452Y-111599761D02*
X161383214Y-111647380D01*
X161145119Y-111647380D01*
X161049880Y-111599761D01*
X161002261Y-111504523D01*
X161002261Y-111409285D01*
X161049880Y-111314047D01*
X161145119Y-111266428D01*
X161383214Y-111266428D01*
X161478452Y-111218809D01*
X161954642Y-111647380D02*
X161954642Y-110980714D01*
X161954642Y-110647380D02*
X161907023Y-110695000D01*
X161954642Y-110742619D01*
X162002261Y-110695000D01*
X161954642Y-110647380D01*
X161954642Y-110742619D01*
X162573690Y-111647380D02*
X162478452Y-111599761D01*
X162430833Y-111504523D01*
X162430833Y-110647380D01*
X155526071Y-112781190D02*
X155526071Y-113257380D01*
X155192738Y-112257380D02*
X155526071Y-112781190D01*
X155859404Y-112257380D01*
X158192738Y-113257380D02*
X157716547Y-113257380D01*
X157716547Y-112257380D01*
X158668928Y-113257380D02*
X158573690Y-113209761D01*
X158526071Y-113162142D01*
X158478452Y-113066904D01*
X158478452Y-112781190D01*
X158526071Y-112685952D01*
X158573690Y-112638333D01*
X158668928Y-112590714D01*
X158811785Y-112590714D01*
X158907023Y-112638333D01*
X158954642Y-112685952D01*
X159002261Y-112781190D01*
X159002261Y-113066904D01*
X158954642Y-113162142D01*
X158907023Y-113209761D01*
X158811785Y-113257380D01*
X158668928Y-113257380D01*
X159430833Y-113257380D02*
X159430833Y-112257380D01*
X159430833Y-112638333D02*
X159526071Y-112590714D01*
X159716547Y-112590714D01*
X159811785Y-112638333D01*
X159859404Y-112685952D01*
X159907023Y-112781190D01*
X159907023Y-113066904D01*
X159859404Y-113162142D01*
X159811785Y-113209761D01*
X159716547Y-113257380D01*
X159526071Y-113257380D01*
X159430833Y-113209761D01*
X160716547Y-113209761D02*
X160621309Y-113257380D01*
X160430833Y-113257380D01*
X160335595Y-113209761D01*
X160287976Y-113114523D01*
X160287976Y-112733571D01*
X160335595Y-112638333D01*
X160430833Y-112590714D01*
X160621309Y-112590714D01*
X160716547Y-112638333D01*
X160764166Y-112733571D01*
X160764166Y-112828809D01*
X160287976Y-112924047D01*
X161907023Y-112352619D02*
X161954642Y-112305000D01*
X162049880Y-112257380D01*
X162287976Y-112257380D01*
X162383214Y-112305000D01*
X162430833Y-112352619D01*
X162478452Y-112447857D01*
X162478452Y-112543095D01*
X162430833Y-112685952D01*
X161859404Y-113257380D01*
X162478452Y-113257380D01*
X163811785Y-113257380D02*
X163716547Y-113209761D01*
X163668928Y-113114523D01*
X163668928Y-112257380D01*
X164192738Y-113257380D02*
X164192738Y-112590714D01*
X164192738Y-112257380D02*
X164145119Y-112305000D01*
X164192738Y-112352619D01*
X164240357Y-112305000D01*
X164192738Y-112257380D01*
X164192738Y-112352619D01*
X164668928Y-112590714D02*
X164668928Y-113257380D01*
X164668928Y-112685952D02*
X164716547Y-112638333D01*
X164811785Y-112590714D01*
X164954642Y-112590714D01*
X165049880Y-112638333D01*
X165097500Y-112733571D01*
X165097500Y-113257380D01*
X165573690Y-113257380D02*
X165573690Y-112257380D01*
X165668928Y-112876428D02*
X165954642Y-113257380D01*
X165954642Y-112590714D02*
X165573690Y-112971666D01*
X167097500Y-113209761D02*
X167192738Y-113257380D01*
X167383214Y-113257380D01*
X167478452Y-113209761D01*
X167526071Y-113114523D01*
X167526071Y-113066904D01*
X167478452Y-112971666D01*
X167383214Y-112924047D01*
X167240357Y-112924047D01*
X167145119Y-112876428D01*
X167097500Y-112781190D01*
X167097500Y-112733571D01*
X167145119Y-112638333D01*
X167240357Y-112590714D01*
X167383214Y-112590714D01*
X167478452Y-112638333D01*
X167811785Y-112590714D02*
X168192738Y-112590714D01*
X167954642Y-112257380D02*
X167954642Y-113114523D01*
X168002261Y-113209761D01*
X168097500Y-113257380D01*
X168192738Y-113257380D01*
X168954642Y-113257380D02*
X168954642Y-112733571D01*
X168907023Y-112638333D01*
X168811785Y-112590714D01*
X168621309Y-112590714D01*
X168526071Y-112638333D01*
X168954642Y-113209761D02*
X168859404Y-113257380D01*
X168621309Y-113257380D01*
X168526071Y-113209761D01*
X168478452Y-113114523D01*
X168478452Y-113019285D01*
X168526071Y-112924047D01*
X168621309Y-112876428D01*
X168859404Y-112876428D01*
X168954642Y-112828809D01*
X169287976Y-112590714D02*
X169668928Y-112590714D01*
X169430833Y-112257380D02*
X169430833Y-113114523D01*
X169478452Y-113209761D01*
X169573690Y-113257380D01*
X169668928Y-113257380D01*
X170430833Y-112590714D02*
X170430833Y-113257380D01*
X170002261Y-112590714D02*
X170002261Y-113114523D01*
X170049880Y-113209761D01*
X170145119Y-113257380D01*
X170287976Y-113257380D01*
X170383214Y-113209761D01*
X170430833Y-113162142D01*
X170859404Y-113209761D02*
X170954642Y-113257380D01*
X171145119Y-113257380D01*
X171240357Y-113209761D01*
X171287976Y-113114523D01*
X171287976Y-113066904D01*
X171240357Y-112971666D01*
X171145119Y-112924047D01*
X171002261Y-112924047D01*
X170907023Y-112876428D01*
X170859404Y-112781190D01*
X170859404Y-112733571D01*
X170907023Y-112638333D01*
X171002261Y-112590714D01*
X171145119Y-112590714D01*
X171240357Y-112638333D01*
X155859404Y-113915000D02*
X155764166Y-113867380D01*
X155621309Y-113867380D01*
X155478452Y-113915000D01*
X155383214Y-114010238D01*
X155335595Y-114105476D01*
X155287976Y-114295952D01*
X155287976Y-114438809D01*
X155335595Y-114629285D01*
X155383214Y-114724523D01*
X155478452Y-114819761D01*
X155621309Y-114867380D01*
X155716547Y-114867380D01*
X155859404Y-114819761D01*
X155907023Y-114772142D01*
X155907023Y-114438809D01*
X155716547Y-114438809D01*
X158383214Y-114867380D02*
X157811785Y-114867380D01*
X158097500Y-114867380D02*
X158097500Y-113867380D01*
X158002261Y-114010238D01*
X157907023Y-114105476D01*
X157811785Y-114153095D01*
X158764166Y-113962619D02*
X158811785Y-113915000D01*
X158907023Y-113867380D01*
X159145119Y-113867380D01*
X159240357Y-113915000D01*
X159287976Y-113962619D01*
X159335595Y-114057857D01*
X159335595Y-114153095D01*
X159287976Y-114295952D01*
X158716547Y-114867380D01*
X159335595Y-114867380D01*
X159621309Y-113867380D02*
X159954642Y-114867380D01*
X160287976Y-113867380D01*
X161383214Y-114867380D02*
X161383214Y-114200714D01*
X161383214Y-114391190D02*
X161430833Y-114295952D01*
X161478452Y-114248333D01*
X161573690Y-114200714D01*
X161668928Y-114200714D01*
X162430833Y-114867380D02*
X162430833Y-114343571D01*
X162383214Y-114248333D01*
X162287976Y-114200714D01*
X162097500Y-114200714D01*
X162002261Y-114248333D01*
X162430833Y-114819761D02*
X162335595Y-114867380D01*
X162097500Y-114867380D01*
X162002261Y-114819761D01*
X161954642Y-114724523D01*
X161954642Y-114629285D01*
X162002261Y-114534047D01*
X162097500Y-114486428D01*
X162335595Y-114486428D01*
X162430833Y-114438809D01*
X162907023Y-114867380D02*
X162907023Y-114200714D01*
X162907023Y-113867380D02*
X162859404Y-113915000D01*
X162907023Y-113962619D01*
X162954642Y-113915000D01*
X162907023Y-113867380D01*
X162907023Y-113962619D01*
X163526071Y-114867380D02*
X163430833Y-114819761D01*
X163383214Y-114724523D01*
X163383214Y-113867380D01*
X155526071Y-116001190D02*
X155526071Y-116477380D01*
X155192738Y-115477380D02*
X155526071Y-116001190D01*
X155859404Y-115477380D01*
X158192738Y-116477380D02*
X157716547Y-116477380D01*
X157716547Y-115477380D01*
X158668928Y-116477380D02*
X158573690Y-116429761D01*
X158526071Y-116382142D01*
X158478452Y-116286904D01*
X158478452Y-116001190D01*
X158526071Y-115905952D01*
X158573690Y-115858333D01*
X158668928Y-115810714D01*
X158811785Y-115810714D01*
X158907023Y-115858333D01*
X158954642Y-115905952D01*
X159002261Y-116001190D01*
X159002261Y-116286904D01*
X158954642Y-116382142D01*
X158907023Y-116429761D01*
X158811785Y-116477380D01*
X158668928Y-116477380D01*
X159430833Y-116477380D02*
X159430833Y-115477380D01*
X159430833Y-115858333D02*
X159526071Y-115810714D01*
X159716547Y-115810714D01*
X159811785Y-115858333D01*
X159859404Y-115905952D01*
X159907023Y-116001190D01*
X159907023Y-116286904D01*
X159859404Y-116382142D01*
X159811785Y-116429761D01*
X159716547Y-116477380D01*
X159526071Y-116477380D01*
X159430833Y-116429761D01*
X160716547Y-116429761D02*
X160621309Y-116477380D01*
X160430833Y-116477380D01*
X160335595Y-116429761D01*
X160287976Y-116334523D01*
X160287976Y-115953571D01*
X160335595Y-115858333D01*
X160430833Y-115810714D01*
X160621309Y-115810714D01*
X160716547Y-115858333D01*
X160764166Y-115953571D01*
X160764166Y-116048809D01*
X160287976Y-116144047D01*
X162478452Y-116477380D02*
X161907023Y-116477380D01*
X162192738Y-116477380D02*
X162192738Y-115477380D01*
X162097500Y-115620238D01*
X162002261Y-115715476D01*
X161907023Y-115763095D01*
X163811785Y-116477380D02*
X163716547Y-116429761D01*
X163668928Y-116334523D01*
X163668928Y-115477380D01*
X164192738Y-116477380D02*
X164192738Y-115810714D01*
X164192738Y-115477380D02*
X164145119Y-115525000D01*
X164192738Y-115572619D01*
X164240357Y-115525000D01*
X164192738Y-115477380D01*
X164192738Y-115572619D01*
X164668928Y-115810714D02*
X164668928Y-116477380D01*
X164668928Y-115905952D02*
X164716547Y-115858333D01*
X164811785Y-115810714D01*
X164954642Y-115810714D01*
X165049880Y-115858333D01*
X165097500Y-115953571D01*
X165097500Y-116477380D01*
X165573690Y-116477380D02*
X165573690Y-115477380D01*
X165668928Y-116096428D02*
X165954642Y-116477380D01*
X165954642Y-115810714D02*
X165573690Y-116191666D01*
X167097500Y-116429761D02*
X167192738Y-116477380D01*
X167383214Y-116477380D01*
X167478452Y-116429761D01*
X167526071Y-116334523D01*
X167526071Y-116286904D01*
X167478452Y-116191666D01*
X167383214Y-116144047D01*
X167240357Y-116144047D01*
X167145119Y-116096428D01*
X167097500Y-116001190D01*
X167097500Y-115953571D01*
X167145119Y-115858333D01*
X167240357Y-115810714D01*
X167383214Y-115810714D01*
X167478452Y-115858333D01*
X167811785Y-115810714D02*
X168192738Y-115810714D01*
X167954642Y-115477380D02*
X167954642Y-116334523D01*
X168002261Y-116429761D01*
X168097500Y-116477380D01*
X168192738Y-116477380D01*
X168954642Y-116477380D02*
X168954642Y-115953571D01*
X168907023Y-115858333D01*
X168811785Y-115810714D01*
X168621309Y-115810714D01*
X168526071Y-115858333D01*
X168954642Y-116429761D02*
X168859404Y-116477380D01*
X168621309Y-116477380D01*
X168526071Y-116429761D01*
X168478452Y-116334523D01*
X168478452Y-116239285D01*
X168526071Y-116144047D01*
X168621309Y-116096428D01*
X168859404Y-116096428D01*
X168954642Y-116048809D01*
X169287976Y-115810714D02*
X169668928Y-115810714D01*
X169430833Y-115477380D02*
X169430833Y-116334523D01*
X169478452Y-116429761D01*
X169573690Y-116477380D01*
X169668928Y-116477380D01*
X170430833Y-115810714D02*
X170430833Y-116477380D01*
X170002261Y-115810714D02*
X170002261Y-116334523D01*
X170049880Y-116429761D01*
X170145119Y-116477380D01*
X170287976Y-116477380D01*
X170383214Y-116429761D01*
X170430833Y-116382142D01*
X170859404Y-116429761D02*
X170954642Y-116477380D01*
X171145119Y-116477380D01*
X171240357Y-116429761D01*
X171287976Y-116334523D01*
X171287976Y-116286904D01*
X171240357Y-116191666D01*
X171145119Y-116144047D01*
X171002261Y-116144047D01*
X170907023Y-116096428D01*
X170859404Y-116001190D01*
X170859404Y-115953571D01*
X170907023Y-115858333D01*
X171002261Y-115810714D01*
X171145119Y-115810714D01*
X171240357Y-115858333D01*
X176142857Y-108404761D02*
X176285714Y-108452380D01*
X176523809Y-108452380D01*
X176619047Y-108404761D01*
X176666666Y-108357142D01*
X176714285Y-108261904D01*
X176714285Y-108166666D01*
X176666666Y-108071428D01*
X176619047Y-108023809D01*
X176523809Y-107976190D01*
X176333333Y-107928571D01*
X176238095Y-107880952D01*
X176190476Y-107833333D01*
X176142857Y-107738095D01*
X176142857Y-107642857D01*
X176190476Y-107547619D01*
X176238095Y-107500000D01*
X176333333Y-107452380D01*
X176571428Y-107452380D01*
X176714285Y-107500000D01*
X177523809Y-108404761D02*
X177428571Y-108452380D01*
X177238095Y-108452380D01*
X177142857Y-108404761D01*
X177095238Y-108309523D01*
X177095238Y-107928571D01*
X177142857Y-107833333D01*
X177238095Y-107785714D01*
X177428571Y-107785714D01*
X177523809Y-107833333D01*
X177571428Y-107928571D01*
X177571428Y-108023809D01*
X177095238Y-108119047D01*
X178000000Y-108452380D02*
X178000000Y-107785714D01*
X178000000Y-107976190D02*
X178047619Y-107880952D01*
X178095238Y-107833333D01*
X178190476Y-107785714D01*
X178285714Y-107785714D01*
X178619047Y-108452380D02*
X178619047Y-107785714D01*
X178619047Y-107452380D02*
X178571428Y-107500000D01*
X178619047Y-107547619D01*
X178666666Y-107500000D01*
X178619047Y-107452380D01*
X178619047Y-107547619D01*
X179523809Y-108452380D02*
X179523809Y-107928571D01*
X179476190Y-107833333D01*
X179380952Y-107785714D01*
X179190476Y-107785714D01*
X179095238Y-107833333D01*
X179523809Y-108404761D02*
X179428571Y-108452380D01*
X179190476Y-108452380D01*
X179095238Y-108404761D01*
X179047619Y-108309523D01*
X179047619Y-108214285D01*
X179095238Y-108119047D01*
X179190476Y-108071428D01*
X179428571Y-108071428D01*
X179523809Y-108023809D01*
X180142857Y-108452380D02*
X180047619Y-108404761D01*
X180000000Y-108309523D01*
X180000000Y-107452380D01*
X181238095Y-107785714D02*
X181952380Y-107785714D01*
X181523809Y-107357142D02*
X181238095Y-108642857D01*
X181857142Y-108214285D02*
X181142857Y-108214285D01*
X181571428Y-108642857D02*
X181857142Y-107357142D01*
X181178571Y-79678571D02*
X180464285Y-79678571D01*
X180464285Y-78178571D01*
X181892857Y-79678571D02*
X181750000Y-79607142D01*
X181678571Y-79535714D01*
X181607142Y-79392857D01*
X181607142Y-78964285D01*
X181678571Y-78821428D01*
X181750000Y-78750000D01*
X181892857Y-78678571D01*
X182107142Y-78678571D01*
X182250000Y-78750000D01*
X182321428Y-78821428D01*
X182392857Y-78964285D01*
X182392857Y-79392857D01*
X182321428Y-79535714D01*
X182250000Y-79607142D01*
X182107142Y-79678571D01*
X181892857Y-79678571D01*
X183035714Y-79678571D02*
X183035714Y-78178571D01*
X183035714Y-78750000D02*
X183178571Y-78678571D01*
X183464285Y-78678571D01*
X183607142Y-78750000D01*
X183678571Y-78821428D01*
X183750000Y-78964285D01*
X183750000Y-79392857D01*
X183678571Y-79535714D01*
X183607142Y-79607142D01*
X183464285Y-79678571D01*
X183178571Y-79678571D01*
X183035714Y-79607142D01*
X184964285Y-79607142D02*
X184821428Y-79678571D01*
X184535714Y-79678571D01*
X184392857Y-79607142D01*
X184321428Y-79464285D01*
X184321428Y-78892857D01*
X184392857Y-78750000D01*
X184535714Y-78678571D01*
X184821428Y-78678571D01*
X184964285Y-78750000D01*
X185035714Y-78892857D01*
X185035714Y-79035714D01*
X184321428Y-79178571D01*
X187607142Y-79678571D02*
X186750000Y-79678571D01*
X187178571Y-79678571D02*
X187178571Y-78178571D01*
X187035714Y-78392857D01*
X186892857Y-78535714D01*
X186750000Y-78607142D01*
X181170003Y-60678571D02*
X180455717Y-60678571D01*
X180455717Y-59178571D01*
X181884289Y-60678571D02*
X181741432Y-60607142D01*
X181670003Y-60535714D01*
X181598574Y-60392857D01*
X181598574Y-59964285D01*
X181670003Y-59821428D01*
X181741432Y-59750000D01*
X181884289Y-59678571D01*
X182098574Y-59678571D01*
X182241432Y-59750000D01*
X182312860Y-59821428D01*
X182384289Y-59964285D01*
X182384289Y-60392857D01*
X182312860Y-60535714D01*
X182241432Y-60607142D01*
X182098574Y-60678571D01*
X181884289Y-60678571D01*
X183027146Y-60678571D02*
X183027146Y-59178571D01*
X183027146Y-59750000D02*
X183170003Y-59678571D01*
X183455717Y-59678571D01*
X183598574Y-59750000D01*
X183670003Y-59821428D01*
X183741432Y-59964285D01*
X183741432Y-60392857D01*
X183670003Y-60535714D01*
X183598574Y-60607142D01*
X183455717Y-60678571D01*
X183170003Y-60678571D01*
X183027146Y-60607142D01*
X184955717Y-60607142D02*
X184812860Y-60678571D01*
X184527146Y-60678571D01*
X184384289Y-60607142D01*
X184312860Y-60464285D01*
X184312860Y-59892857D01*
X184384289Y-59750000D01*
X184527146Y-59678571D01*
X184812860Y-59678571D01*
X184955717Y-59750000D01*
X185027146Y-59892857D01*
X185027146Y-60035714D01*
X184312860Y-60178571D01*
X186741432Y-59321428D02*
X186812860Y-59250000D01*
X186955717Y-59178571D01*
X187312860Y-59178571D01*
X187455717Y-59250000D01*
X187527146Y-59321428D01*
X187598574Y-59464285D01*
X187598574Y-59607142D01*
X187527146Y-59821428D01*
X186670003Y-60678571D01*
X187598574Y-60678571D01*
X127880952Y-109357142D02*
X127833333Y-109404761D01*
X127690476Y-109452380D01*
X127595238Y-109452380D01*
X127452380Y-109404761D01*
X127357142Y-109309523D01*
X127309523Y-109214285D01*
X127261904Y-109023809D01*
X127261904Y-108880952D01*
X127309523Y-108690476D01*
X127357142Y-108595238D01*
X127452380Y-108500000D01*
X127595238Y-108452380D01*
X127690476Y-108452380D01*
X127833333Y-108500000D01*
X127880952Y-108547619D01*
X128261904Y-108547619D02*
X128309523Y-108500000D01*
X128404761Y-108452380D01*
X128642857Y-108452380D01*
X128738095Y-108500000D01*
X128785714Y-108547619D01*
X128833333Y-108642857D01*
X128833333Y-108738095D01*
X128785714Y-108880952D01*
X128214285Y-109452380D01*
X128833333Y-109452380D01*
X129452380Y-108452380D02*
X129547619Y-108452380D01*
X129642857Y-108500000D01*
X129690476Y-108547619D01*
X129738095Y-108642857D01*
X129785714Y-108833333D01*
X129785714Y-109071428D01*
X129738095Y-109261904D01*
X129690476Y-109357142D01*
X129642857Y-109404761D01*
X129547619Y-109452380D01*
X129452380Y-109452380D01*
X129357142Y-109404761D01*
X129309523Y-109357142D01*
X129261904Y-109261904D01*
X129214285Y-109071428D01*
X129214285Y-108833333D01*
X129261904Y-108642857D01*
X129309523Y-108547619D01*
X129357142Y-108500000D01*
X129452380Y-108452380D01*
X130738095Y-109452380D02*
X130166666Y-109452380D01*
X130452380Y-109452380D02*
X130452380Y-108452380D01*
X130357142Y-108595238D01*
X130261904Y-108690476D01*
X130166666Y-108738095D01*
X159131904Y-94142380D02*
X159131904Y-93142380D01*
X159703333Y-94142380D02*
X159274761Y-93570952D01*
X159703333Y-93142380D02*
X159131904Y-93713809D01*
X160655714Y-94142380D02*
X160084285Y-94142380D01*
X160370000Y-94142380D02*
X160370000Y-93142380D01*
X160274761Y-93285238D01*
X160179523Y-93380476D01*
X160084285Y-93428095D01*
X120333333Y-81457142D02*
X120285714Y-81504761D01*
X120142857Y-81552380D01*
X120047619Y-81552380D01*
X119904761Y-81504761D01*
X119809523Y-81409523D01*
X119761904Y-81314285D01*
X119714285Y-81123809D01*
X119714285Y-80980952D01*
X119761904Y-80790476D01*
X119809523Y-80695238D01*
X119904761Y-80600000D01*
X120047619Y-80552380D01*
X120142857Y-80552380D01*
X120285714Y-80600000D01*
X120333333Y-80647619D01*
X121285714Y-81552380D02*
X120714285Y-81552380D01*
X121000000Y-81552380D02*
X121000000Y-80552380D01*
X120904761Y-80695238D01*
X120809523Y-80790476D01*
X120714285Y-80838095D01*
X138113333Y-81457142D02*
X138065714Y-81504761D01*
X137922857Y-81552380D01*
X137827619Y-81552380D01*
X137684761Y-81504761D01*
X137589523Y-81409523D01*
X137541904Y-81314285D01*
X137494285Y-81123809D01*
X137494285Y-80980952D01*
X137541904Y-80790476D01*
X137589523Y-80695238D01*
X137684761Y-80600000D01*
X137827619Y-80552380D01*
X137922857Y-80552380D01*
X138065714Y-80600000D01*
X138113333Y-80647619D01*
X138494285Y-80647619D02*
X138541904Y-80600000D01*
X138637142Y-80552380D01*
X138875238Y-80552380D01*
X138970476Y-80600000D01*
X139018095Y-80647619D01*
X139065714Y-80742857D01*
X139065714Y-80838095D01*
X139018095Y-80980952D01*
X138446666Y-81552380D01*
X139065714Y-81552380D01*
X193398095Y-92634380D02*
X193398095Y-93443904D01*
X193445714Y-93539142D01*
X193493333Y-93586761D01*
X193588571Y-93634380D01*
X193779047Y-93634380D01*
X193874285Y-93586761D01*
X193921904Y-93539142D01*
X193969523Y-93443904D01*
X193969523Y-92634380D01*
X194969523Y-93634380D02*
X194398095Y-93634380D01*
X194683809Y-93634380D02*
X194683809Y-92634380D01*
X194588571Y-92777238D01*
X194493333Y-92872476D01*
X194398095Y-92920095D01*
X183357142Y-74997142D02*
X183309523Y-75044761D01*
X183166666Y-75092380D01*
X183071428Y-75092380D01*
X182928571Y-75044761D01*
X182833333Y-74949523D01*
X182785714Y-74854285D01*
X182738095Y-74663809D01*
X182738095Y-74520952D01*
X182785714Y-74330476D01*
X182833333Y-74235238D01*
X182928571Y-74140000D01*
X183071428Y-74092380D01*
X183166666Y-74092380D01*
X183309523Y-74140000D01*
X183357142Y-74187619D01*
X183738095Y-74187619D02*
X183785714Y-74140000D01*
X183880952Y-74092380D01*
X184119047Y-74092380D01*
X184214285Y-74140000D01*
X184261904Y-74187619D01*
X184309523Y-74282857D01*
X184309523Y-74378095D01*
X184261904Y-74520952D01*
X183690476Y-75092380D01*
X184309523Y-75092380D01*
X184642857Y-74092380D02*
X185261904Y-74092380D01*
X184928571Y-74473333D01*
X185071428Y-74473333D01*
X185166666Y-74520952D01*
X185214285Y-74568571D01*
X185261904Y-74663809D01*
X185261904Y-74901904D01*
X185214285Y-74997142D01*
X185166666Y-75044761D01*
X185071428Y-75092380D01*
X184785714Y-75092380D01*
X184690476Y-75044761D01*
X184642857Y-74997142D01*
X183833333Y-94047142D02*
X183785714Y-94094761D01*
X183642857Y-94142380D01*
X183547619Y-94142380D01*
X183404761Y-94094761D01*
X183309523Y-93999523D01*
X183261904Y-93904285D01*
X183214285Y-93713809D01*
X183214285Y-93570952D01*
X183261904Y-93380476D01*
X183309523Y-93285238D01*
X183404761Y-93190000D01*
X183547619Y-93142380D01*
X183642857Y-93142380D01*
X183785714Y-93190000D01*
X183833333Y-93237619D01*
X184166666Y-93142380D02*
X184785714Y-93142380D01*
X184452380Y-93523333D01*
X184595238Y-93523333D01*
X184690476Y-93570952D01*
X184738095Y-93618571D01*
X184785714Y-93713809D01*
X184785714Y-93951904D01*
X184738095Y-94047142D01*
X184690476Y-94094761D01*
X184595238Y-94142380D01*
X184309523Y-94142380D01*
X184214285Y-94094761D01*
X184166666Y-94047142D01*
X128628095Y-74092380D02*
X129199523Y-74092380D01*
X128913809Y-75092380D02*
X128913809Y-74092380D01*
X129485238Y-74187619D02*
X129532857Y-74140000D01*
X129628095Y-74092380D01*
X129866190Y-74092380D01*
X129961428Y-74140000D01*
X130009047Y-74187619D01*
X130056666Y-74282857D01*
X130056666Y-74378095D01*
X130009047Y-74520952D01*
X129437619Y-75092380D01*
X130056666Y-75092380D01*
X128747142Y-62452380D02*
X128413809Y-61976190D01*
X128175714Y-62452380D02*
X128175714Y-61452380D01*
X128556666Y-61452380D01*
X128651904Y-61500000D01*
X128699523Y-61547619D01*
X128747142Y-61642857D01*
X128747142Y-61785714D01*
X128699523Y-61880952D01*
X128651904Y-61928571D01*
X128556666Y-61976190D01*
X128175714Y-61976190D01*
X129128095Y-61547619D02*
X129175714Y-61500000D01*
X129270952Y-61452380D01*
X129509047Y-61452380D01*
X129604285Y-61500000D01*
X129651904Y-61547619D01*
X129699523Y-61642857D01*
X129699523Y-61738095D01*
X129651904Y-61880952D01*
X129080476Y-62452380D01*
X129699523Y-62452380D01*
X130651904Y-62452380D02*
X130080476Y-62452380D01*
X130366190Y-62452380D02*
X130366190Y-61452380D01*
X130270952Y-61595238D01*
X130175714Y-61690476D01*
X130080476Y-61738095D01*
X193993333Y-81986380D02*
X193660000Y-81510190D01*
X193421904Y-81986380D02*
X193421904Y-80986380D01*
X193802857Y-80986380D01*
X193898095Y-81034000D01*
X193945714Y-81081619D01*
X193993333Y-81176857D01*
X193993333Y-81319714D01*
X193945714Y-81414952D01*
X193898095Y-81462571D01*
X193802857Y-81510190D01*
X193421904Y-81510190D01*
X194374285Y-81081619D02*
X194421904Y-81034000D01*
X194517142Y-80986380D01*
X194755238Y-80986380D01*
X194850476Y-81034000D01*
X194898095Y-81081619D01*
X194945714Y-81176857D01*
X194945714Y-81272095D01*
X194898095Y-81414952D01*
X194326666Y-81986380D01*
X194945714Y-81986380D01*
X193517142Y-62936380D02*
X193183809Y-62460190D01*
X192945714Y-62936380D02*
X192945714Y-61936380D01*
X193326666Y-61936380D01*
X193421904Y-61984000D01*
X193469523Y-62031619D01*
X193517142Y-62126857D01*
X193517142Y-62269714D01*
X193469523Y-62364952D01*
X193421904Y-62412571D01*
X193326666Y-62460190D01*
X192945714Y-62460190D01*
X193898095Y-62031619D02*
X193945714Y-61984000D01*
X194040952Y-61936380D01*
X194279047Y-61936380D01*
X194374285Y-61984000D01*
X194421904Y-62031619D01*
X194469523Y-62126857D01*
X194469523Y-62222095D01*
X194421904Y-62364952D01*
X193850476Y-62936380D01*
X194469523Y-62936380D01*
X194850476Y-62031619D02*
X194898095Y-61984000D01*
X194993333Y-61936380D01*
X195231428Y-61936380D01*
X195326666Y-61984000D01*
X195374285Y-62031619D01*
X195421904Y-62126857D01*
X195421904Y-62222095D01*
X195374285Y-62364952D01*
X194802857Y-62936380D01*
X195421904Y-62936380D01*
X192921904Y-73584380D02*
X192921904Y-74393904D01*
X192969523Y-74489142D01*
X193017142Y-74536761D01*
X193112380Y-74584380D01*
X193302857Y-74584380D01*
X193398095Y-74536761D01*
X193445714Y-74489142D01*
X193493333Y-74393904D01*
X193493333Y-73584380D01*
X193921904Y-73679619D02*
X193969523Y-73632000D01*
X194064761Y-73584380D01*
X194302857Y-73584380D01*
X194398095Y-73632000D01*
X194445714Y-73679619D01*
X194493333Y-73774857D01*
X194493333Y-73870095D01*
X194445714Y-74012952D01*
X193874285Y-74584380D01*
X194493333Y-74584380D01*
X195445714Y-74584380D02*
X194874285Y-74584380D01*
X195160000Y-74584380D02*
X195160000Y-73584380D01*
X195064761Y-73727238D01*
X194969523Y-73822476D01*
X194874285Y-73870095D01*
X123180952Y-109357142D02*
X123133333Y-109404761D01*
X122990476Y-109452380D01*
X122895238Y-109452380D01*
X122752380Y-109404761D01*
X122657142Y-109309523D01*
X122609523Y-109214285D01*
X122561904Y-109023809D01*
X122561904Y-108880952D01*
X122609523Y-108690476D01*
X122657142Y-108595238D01*
X122752380Y-108500000D01*
X122895238Y-108452380D01*
X122990476Y-108452380D01*
X123133333Y-108500000D01*
X123180952Y-108547619D01*
X123561904Y-108547619D02*
X123609523Y-108500000D01*
X123704761Y-108452380D01*
X123942857Y-108452380D01*
X124038095Y-108500000D01*
X124085714Y-108547619D01*
X124133333Y-108642857D01*
X124133333Y-108738095D01*
X124085714Y-108880952D01*
X123514285Y-109452380D01*
X124133333Y-109452380D01*
X124752380Y-108452380D02*
X124847619Y-108452380D01*
X124942857Y-108500000D01*
X124990476Y-108547619D01*
X125038095Y-108642857D01*
X125085714Y-108833333D01*
X125085714Y-109071428D01*
X125038095Y-109261904D01*
X124990476Y-109357142D01*
X124942857Y-109404761D01*
X124847619Y-109452380D01*
X124752380Y-109452380D01*
X124657142Y-109404761D01*
X124609523Y-109357142D01*
X124561904Y-109261904D01*
X124514285Y-109071428D01*
X124514285Y-108833333D01*
X124561904Y-108642857D01*
X124609523Y-108547619D01*
X124657142Y-108500000D01*
X124752380Y-108452380D01*
X125704761Y-108452380D02*
X125800000Y-108452380D01*
X125895238Y-108500000D01*
X125942857Y-108547619D01*
X125990476Y-108642857D01*
X126038095Y-108833333D01*
X126038095Y-109071428D01*
X125990476Y-109261904D01*
X125942857Y-109357142D01*
X125895238Y-109404761D01*
X125800000Y-109452380D01*
X125704761Y-109452380D01*
X125609523Y-109404761D01*
X125561904Y-109357142D01*
X125514285Y-109261904D01*
X125466666Y-109071428D01*
X125466666Y-108833333D01*
X125514285Y-108642857D01*
X125561904Y-108547619D01*
X125609523Y-108500000D01*
X125704761Y-108452380D01*
X119857142Y-62407142D02*
X119809523Y-62454761D01*
X119666666Y-62502380D01*
X119571428Y-62502380D01*
X119428571Y-62454761D01*
X119333333Y-62359523D01*
X119285714Y-62264285D01*
X119238095Y-62073809D01*
X119238095Y-61930952D01*
X119285714Y-61740476D01*
X119333333Y-61645238D01*
X119428571Y-61550000D01*
X119571428Y-61502380D01*
X119666666Y-61502380D01*
X119809523Y-61550000D01*
X119857142Y-61597619D01*
X120238095Y-61597619D02*
X120285714Y-61550000D01*
X120380952Y-61502380D01*
X120619047Y-61502380D01*
X120714285Y-61550000D01*
X120761904Y-61597619D01*
X120809523Y-61692857D01*
X120809523Y-61788095D01*
X120761904Y-61930952D01*
X120190476Y-62502380D01*
X120809523Y-62502380D01*
X121761904Y-62502380D02*
X121190476Y-62502380D01*
X121476190Y-62502380D02*
X121476190Y-61502380D01*
X121380952Y-61645238D01*
X121285714Y-61740476D01*
X121190476Y-61788095D01*
X137637142Y-62407142D02*
X137589523Y-62454761D01*
X137446666Y-62502380D01*
X137351428Y-62502380D01*
X137208571Y-62454761D01*
X137113333Y-62359523D01*
X137065714Y-62264285D01*
X137018095Y-62073809D01*
X137018095Y-61930952D01*
X137065714Y-61740476D01*
X137113333Y-61645238D01*
X137208571Y-61550000D01*
X137351428Y-61502380D01*
X137446666Y-61502380D01*
X137589523Y-61550000D01*
X137637142Y-61597619D01*
X138018095Y-61597619D02*
X138065714Y-61550000D01*
X138160952Y-61502380D01*
X138399047Y-61502380D01*
X138494285Y-61550000D01*
X138541904Y-61597619D01*
X138589523Y-61692857D01*
X138589523Y-61788095D01*
X138541904Y-61930952D01*
X137970476Y-62502380D01*
X138589523Y-62502380D01*
X138970476Y-61597619D02*
X139018095Y-61550000D01*
X139113333Y-61502380D01*
X139351428Y-61502380D01*
X139446666Y-61550000D01*
X139494285Y-61597619D01*
X139541904Y-61692857D01*
X139541904Y-61788095D01*
X139494285Y-61930952D01*
X138922857Y-62502380D01*
X139541904Y-62502380D01*
X128628095Y-93142380D02*
X129199523Y-93142380D01*
X128913809Y-94142380D02*
X128913809Y-93142380D01*
X130056666Y-94142380D02*
X129485238Y-94142380D01*
X129770952Y-94142380D02*
X129770952Y-93142380D01*
X129675714Y-93285238D01*
X129580476Y-93380476D01*
X129485238Y-93428095D01*
X144764285Y-108452380D02*
X144764285Y-109166666D01*
X144716666Y-109309523D01*
X144621428Y-109404761D01*
X144478571Y-109452380D01*
X144383333Y-109452380D01*
X145192857Y-108547619D02*
X145240476Y-108500000D01*
X145335714Y-108452380D01*
X145573809Y-108452380D01*
X145669047Y-108500000D01*
X145716666Y-108547619D01*
X145764285Y-108642857D01*
X145764285Y-108738095D01*
X145716666Y-108880952D01*
X145145238Y-109452380D01*
X145764285Y-109452380D01*
X146383333Y-108452380D02*
X146478571Y-108452380D01*
X146573809Y-108500000D01*
X146621428Y-108547619D01*
X146669047Y-108642857D01*
X146716666Y-108833333D01*
X146716666Y-109071428D01*
X146669047Y-109261904D01*
X146621428Y-109357142D01*
X146573809Y-109404761D01*
X146478571Y-109452380D01*
X146383333Y-109452380D01*
X146288095Y-109404761D01*
X146240476Y-109357142D01*
X146192857Y-109261904D01*
X146145238Y-109071428D01*
X146145238Y-108833333D01*
X146192857Y-108642857D01*
X146240476Y-108547619D01*
X146288095Y-108500000D01*
X146383333Y-108452380D01*
X147097619Y-108547619D02*
X147145238Y-108500000D01*
X147240476Y-108452380D01*
X147478571Y-108452380D01*
X147573809Y-108500000D01*
X147621428Y-108547619D01*
X147669047Y-108642857D01*
X147669047Y-108738095D01*
X147621428Y-108880952D01*
X147050000Y-109452380D01*
X147669047Y-109452380D01*
X133307714Y-108452380D02*
X133307714Y-109261904D01*
X133355333Y-109357142D01*
X133402952Y-109404761D01*
X133498190Y-109452380D01*
X133688666Y-109452380D01*
X133783904Y-109404761D01*
X133831523Y-109357142D01*
X133879142Y-109261904D01*
X133879142Y-108452380D01*
X134307714Y-108547619D02*
X134355333Y-108500000D01*
X134450571Y-108452380D01*
X134688666Y-108452380D01*
X134783904Y-108500000D01*
X134831523Y-108547619D01*
X134879142Y-108642857D01*
X134879142Y-108738095D01*
X134831523Y-108880952D01*
X134260095Y-109452380D01*
X134879142Y-109452380D01*
X135498190Y-108452380D02*
X135593428Y-108452380D01*
X135688666Y-108500000D01*
X135736285Y-108547619D01*
X135783904Y-108642857D01*
X135831523Y-108833333D01*
X135831523Y-109071428D01*
X135783904Y-109261904D01*
X135736285Y-109357142D01*
X135688666Y-109404761D01*
X135593428Y-109452380D01*
X135498190Y-109452380D01*
X135402952Y-109404761D01*
X135355333Y-109357142D01*
X135307714Y-109261904D01*
X135260095Y-109071428D01*
X135260095Y-108833333D01*
X135307714Y-108642857D01*
X135355333Y-108547619D01*
X135402952Y-108500000D01*
X135498190Y-108452380D01*
X136450571Y-108452380D02*
X136545809Y-108452380D01*
X136641047Y-108500000D01*
X136688666Y-108547619D01*
X136736285Y-108642857D01*
X136783904Y-108833333D01*
X136783904Y-109071428D01*
X136736285Y-109261904D01*
X136688666Y-109357142D01*
X136641047Y-109404761D01*
X136545809Y-109452380D01*
X136450571Y-109452380D01*
X136355333Y-109404761D01*
X136307714Y-109357142D01*
X136260095Y-109261904D01*
X136212476Y-109071428D01*
X136212476Y-108833333D01*
X136260095Y-108642857D01*
X136307714Y-108547619D01*
X136355333Y-108500000D01*
X136450571Y-108452380D01*
X129223333Y-81552380D02*
X128890000Y-81076190D01*
X128651904Y-81552380D02*
X128651904Y-80552380D01*
X129032857Y-80552380D01*
X129128095Y-80600000D01*
X129175714Y-80647619D01*
X129223333Y-80742857D01*
X129223333Y-80885714D01*
X129175714Y-80980952D01*
X129128095Y-81028571D01*
X129032857Y-81076190D01*
X128651904Y-81076190D01*
X130175714Y-81552380D02*
X129604285Y-81552380D01*
X129890000Y-81552380D02*
X129890000Y-80552380D01*
X129794761Y-80695238D01*
X129699523Y-80790476D01*
X129604285Y-80838095D01*
X138880952Y-109357142D02*
X138833333Y-109404761D01*
X138690476Y-109452380D01*
X138595238Y-109452380D01*
X138452380Y-109404761D01*
X138357142Y-109309523D01*
X138309523Y-109214285D01*
X138261904Y-109023809D01*
X138261904Y-108880952D01*
X138309523Y-108690476D01*
X138357142Y-108595238D01*
X138452380Y-108500000D01*
X138595238Y-108452380D01*
X138690476Y-108452380D01*
X138833333Y-108500000D01*
X138880952Y-108547619D01*
X139261904Y-108547619D02*
X139309523Y-108500000D01*
X139404761Y-108452380D01*
X139642857Y-108452380D01*
X139738095Y-108500000D01*
X139785714Y-108547619D01*
X139833333Y-108642857D01*
X139833333Y-108738095D01*
X139785714Y-108880952D01*
X139214285Y-109452380D01*
X139833333Y-109452380D01*
X140452380Y-108452380D02*
X140547619Y-108452380D01*
X140642857Y-108500000D01*
X140690476Y-108547619D01*
X140738095Y-108642857D01*
X140785714Y-108833333D01*
X140785714Y-109071428D01*
X140738095Y-109261904D01*
X140690476Y-109357142D01*
X140642857Y-109404761D01*
X140547619Y-109452380D01*
X140452380Y-109452380D01*
X140357142Y-109404761D01*
X140309523Y-109357142D01*
X140261904Y-109261904D01*
X140214285Y-109071428D01*
X140214285Y-108833333D01*
X140261904Y-108642857D01*
X140309523Y-108547619D01*
X140357142Y-108500000D01*
X140452380Y-108452380D01*
X141166666Y-108547619D02*
X141214285Y-108500000D01*
X141309523Y-108452380D01*
X141547619Y-108452380D01*
X141642857Y-108500000D01*
X141690476Y-108547619D01*
X141738095Y-108642857D01*
X141738095Y-108738095D01*
X141690476Y-108880952D01*
X141119047Y-109452380D01*
X141738095Y-109452380D01*
X159131904Y-75092380D02*
X159131904Y-74092380D01*
X159703333Y-75092380D02*
X159274761Y-74520952D01*
X159703333Y-74092380D02*
X159131904Y-74663809D01*
X160084285Y-74187619D02*
X160131904Y-74140000D01*
X160227142Y-74092380D01*
X160465238Y-74092380D01*
X160560476Y-74140000D01*
X160608095Y-74187619D01*
X160655714Y-74282857D01*
X160655714Y-74378095D01*
X160608095Y-74520952D01*
X160036666Y-75092380D01*
X160655714Y-75092380D01*
X116565285Y-108452380D02*
X116565285Y-109166666D01*
X116517666Y-109309523D01*
X116422428Y-109404761D01*
X116279571Y-109452380D01*
X116184333Y-109452380D01*
X116993857Y-108547619D02*
X117041476Y-108500000D01*
X117136714Y-108452380D01*
X117374809Y-108452380D01*
X117470047Y-108500000D01*
X117517666Y-108547619D01*
X117565285Y-108642857D01*
X117565285Y-108738095D01*
X117517666Y-108880952D01*
X116946238Y-109452380D01*
X117565285Y-109452380D01*
X118184333Y-108452380D02*
X118279571Y-108452380D01*
X118374809Y-108500000D01*
X118422428Y-108547619D01*
X118470047Y-108642857D01*
X118517666Y-108833333D01*
X118517666Y-109071428D01*
X118470047Y-109261904D01*
X118422428Y-109357142D01*
X118374809Y-109404761D01*
X118279571Y-109452380D01*
X118184333Y-109452380D01*
X118089095Y-109404761D01*
X118041476Y-109357142D01*
X117993857Y-109261904D01*
X117946238Y-109071428D01*
X117946238Y-108833333D01*
X117993857Y-108642857D01*
X118041476Y-108547619D01*
X118089095Y-108500000D01*
X118184333Y-108452380D01*
X119470047Y-109452380D02*
X118898619Y-109452380D01*
X119184333Y-109452380D02*
X119184333Y-108452380D01*
X119089095Y-108595238D01*
X118993857Y-108690476D01*
X118898619Y-108738095D01*
D12*
X128265000Y-105161252D02*
X128265000Y-104638748D01*
X129735000Y-105161252D02*
X129735000Y-104638748D01*
X178760000Y-92360000D02*
X178760000Y-82320000D01*
X178760000Y-82320000D02*
X143520000Y-82320000D01*
X143520000Y-92360000D02*
X178760000Y-92360000D01*
X143520000Y-82320000D02*
X143520000Y-92360000D01*
X121661252Y-80160000D02*
X119338748Y-80160000D01*
X121661252Y-76740000D02*
X119338748Y-76740000D01*
X139441252Y-76740000D02*
X137118748Y-76740000D01*
X139441252Y-80160000D02*
X137118748Y-80160000D01*
X112187000Y-102909000D02*
X112187000Y-104909000D01*
X111997000Y-106209000D02*
X111997000Y-109019000D01*
X111997000Y-109019000D02*
X105937000Y-109019000D01*
X111997000Y-98799000D02*
X111997000Y-101609000D01*
X105937000Y-98799000D02*
X111997000Y-98799000D01*
X190305000Y-84680000D02*
X190305000Y-86330000D01*
X198045000Y-84680000D02*
X190305000Y-84680000D01*
X190305000Y-88330000D02*
X190305000Y-89980000D01*
X190305000Y-89980000D02*
X198045000Y-89980000D01*
X198045000Y-89980000D02*
X198045000Y-84680000D01*
X190305000Y-88330000D02*
G75*
G03*
X190305000Y-86330000I0J1000000D01*
G01*
X186260000Y-72875000D02*
X186260000Y-64640000D01*
X181740000Y-72875000D02*
X186260000Y-72875000D01*
X181740000Y-64640000D02*
X181740000Y-72875000D01*
X181740000Y-91925000D02*
X186260000Y-91925000D01*
X181740000Y-83690000D02*
X181740000Y-91925000D01*
X186260000Y-91925000D02*
X186260000Y-83690000D01*
X142090000Y-73225000D02*
X142090000Y-63355000D01*
X116690000Y-63355000D02*
X116690000Y-73225000D01*
X116690000Y-73225000D02*
X142090000Y-73225000D01*
X142090000Y-63355000D02*
X116690000Y-63355000D01*
X128662936Y-60310000D02*
X130117064Y-60310000D01*
X128662936Y-58490000D02*
X130117064Y-58490000D01*
X193432936Y-78810000D02*
X194887064Y-78810000D01*
X193432936Y-80630000D02*
X194887064Y-80630000D01*
X193432936Y-61580000D02*
X194887064Y-61580000D01*
X193432936Y-59760000D02*
X194887064Y-59760000D01*
X190305000Y-70930000D02*
X198045000Y-70930000D01*
X190305000Y-69280000D02*
X190305000Y-70930000D01*
X198045000Y-70930000D02*
X198045000Y-65630000D01*
X190305000Y-65630000D02*
X190305000Y-67280000D01*
X198045000Y-65630000D02*
X190305000Y-65630000D01*
X190305000Y-69280000D02*
G75*
G03*
X190305000Y-67280000I0J1000000D01*
G01*
X122604437Y-106669000D02*
X121540000Y-105604563D01*
X122615000Y-107534000D02*
X122615000Y-106909000D01*
X127060000Y-101149000D02*
X125360000Y-101149000D01*
X121540000Y-101149000D02*
X123240000Y-101149000D01*
X122302500Y-107221500D02*
X122927500Y-107221500D01*
X121540000Y-105604563D02*
X121540000Y-101149000D01*
X125995563Y-106669000D02*
X125360000Y-106669000D01*
X127060000Y-105604563D02*
X127060000Y-101149000D01*
X122604437Y-106669000D02*
X123240000Y-106669000D01*
X125995563Y-106669000D02*
X127060000Y-105604563D01*
X121661252Y-57690000D02*
X119338748Y-57690000D01*
X121661252Y-61110000D02*
X119338748Y-61110000D01*
X139441252Y-61110000D02*
X137118748Y-61110000D01*
X139441252Y-57690000D02*
X137118748Y-57690000D01*
X116690000Y-92275000D02*
X142090000Y-92275000D01*
X142090000Y-82405000D02*
X116690000Y-82405000D01*
X116690000Y-82405000D02*
X116690000Y-92275000D01*
X142090000Y-92275000D02*
X142090000Y-82405000D01*
X148650000Y-107330000D02*
X148650000Y-102130000D01*
X143450000Y-102130000D02*
X148650000Y-102130000D01*
X146050000Y-107330000D02*
X148650000Y-107330000D01*
X144780000Y-107330000D02*
X143450000Y-107330000D01*
X143450000Y-107330000D02*
X143450000Y-106000000D01*
X143450000Y-104730000D02*
X143450000Y-102130000D01*
X146050000Y-104730000D02*
X143450000Y-104730000D01*
X146050000Y-107330000D02*
X146050000Y-104730000D01*
X138180000Y-104470000D02*
X138180000Y-105570000D01*
X138450000Y-102970000D02*
X138450000Y-104470000D01*
X131550000Y-102970000D02*
X131550000Y-104470000D01*
X131550000Y-104470000D02*
X131820000Y-104470000D01*
X131820000Y-104470000D02*
X131820000Y-107300000D01*
X138450000Y-104470000D02*
X138180000Y-104470000D01*
X128662936Y-79360000D02*
X130117064Y-79360000D01*
X128662936Y-77540000D02*
X130117064Y-77540000D01*
X139265000Y-105417252D02*
X139265000Y-104894748D01*
X140735000Y-105417252D02*
X140735000Y-104894748D01*
X106082000Y-94177000D02*
X106582000Y-94677000D01*
X114597000Y-61502000D02*
X109082000Y-61502000D01*
X105582000Y-94677000D02*
X106082000Y-94177000D01*
X114642000Y-93982000D02*
X109082000Y-93982000D01*
X114642000Y-93982000D02*
X114642000Y-61502000D01*
X106582000Y-94677000D02*
X105582000Y-94677000D01*
X143520000Y-73310000D02*
X178760000Y-73310000D01*
X143520000Y-63270000D02*
X143520000Y-73310000D01*
X178760000Y-73310000D02*
X178760000Y-63270000D01*
X178760000Y-63270000D02*
X143520000Y-63270000D01*
X116581000Y-107330000D02*
X115251000Y-107330000D01*
X115251000Y-102130000D02*
X120451000Y-102130000D01*
X120451000Y-107330000D02*
X120451000Y-102130000D01*
X117851000Y-104730000D02*
X115251000Y-104730000D01*
X117851000Y-107330000D02*
X120451000Y-107330000D01*
X117851000Y-107330000D02*
X117851000Y-104730000D01*
X115251000Y-107330000D02*
X115251000Y-106000000D01*
X115251000Y-104730000D02*
X115251000Y-102130000D01*
%LPC*%
D13*
X129000000Y-105937500D03*
X129000000Y-103862500D03*
D14*
X162410000Y-91150000D03*
X167490000Y-91150000D03*
X154790000Y-91150000D03*
X172570000Y-91150000D03*
X149710000Y-91150000D03*
X177650000Y-91150000D03*
X144630000Y-91150000D03*
X144630000Y-83530000D03*
X177650000Y-83530000D03*
X149710000Y-83530000D03*
X172570000Y-83530000D03*
X154790000Y-83530000D03*
X167490000Y-83530000D03*
X162410000Y-83530000D03*
D15*
X122637500Y-78450000D03*
X118362500Y-78450000D03*
X140417500Y-78450000D03*
X136142500Y-78450000D03*
D16*
X101887000Y-103909000D03*
D17*
X110887000Y-103909000D03*
D18*
X104887000Y-103909000D03*
D19*
X103887000Y-108409000D03*
X103887000Y-99409000D03*
D20*
X191635000Y-91140000D03*
D21*
X194175000Y-91140000D03*
X196715000Y-91140000D03*
X196715000Y-83520000D03*
X194175000Y-83520000D03*
X191635000Y-83520000D03*
D22*
X184000000Y-71490000D03*
X184000000Y-65090000D03*
X184000000Y-90540000D03*
X184000000Y-84140000D03*
D14*
X120500000Y-72100000D03*
X123040000Y-72100000D03*
X125580000Y-72100000D03*
X128120000Y-72100000D03*
X130660000Y-72100000D03*
X133200000Y-72100000D03*
X135740000Y-72100000D03*
X138280000Y-72100000D03*
X138280000Y-64480000D03*
X135740000Y-64480000D03*
X133200000Y-64480000D03*
X130660000Y-64480000D03*
X128120000Y-64480000D03*
X125580000Y-64480000D03*
X123040000Y-64480000D03*
X120500000Y-64480000D03*
D23*
X127840000Y-59400000D03*
X130940000Y-59400000D03*
D24*
X194400000Y-114400000D03*
D23*
X192610000Y-79720000D03*
X195710000Y-79720000D03*
X192610000Y-60670000D03*
X195710000Y-60670000D03*
D20*
X191635000Y-72090000D03*
D21*
X194175000Y-72090000D03*
X196715000Y-72090000D03*
X196715000Y-64470000D03*
X194175000Y-64470000D03*
X191635000Y-64470000D03*
D25*
X124300000Y-106109000D03*
X124300000Y-101709000D03*
D15*
X122637500Y-59400000D03*
X118362500Y-59400000D03*
X140417500Y-59400000D03*
X136142500Y-59400000D03*
D14*
X120500000Y-91150000D03*
X123040000Y-91150000D03*
X125580000Y-91150000D03*
X128120000Y-91150000D03*
X130660000Y-91150000D03*
X133200000Y-91150000D03*
X135740000Y-91150000D03*
X138280000Y-91150000D03*
X138280000Y-83530000D03*
X135740000Y-83530000D03*
X133200000Y-83530000D03*
X130660000Y-83530000D03*
X128120000Y-83530000D03*
X125580000Y-83530000D03*
X123040000Y-83530000D03*
X120500000Y-83530000D03*
D26*
X144780000Y-106000000D03*
D27*
X144780000Y-103460000D03*
X147320000Y-106000000D03*
X147320000Y-103460000D03*
D28*
X132720000Y-106200000D03*
D29*
X135000000Y-99900000D03*
D28*
X137280000Y-106200000D03*
D23*
X127840000Y-78450000D03*
X130940000Y-78450000D03*
D13*
X140000000Y-106193500D03*
X140000000Y-104118500D03*
D30*
X104242000Y-63517000D03*
X104242000Y-91967000D03*
D31*
X106782000Y-89177000D03*
D32*
X108562000Y-88161000D03*
X106782000Y-87145000D03*
X108562000Y-86129000D03*
X106782000Y-85113000D03*
X108562000Y-84097000D03*
X106782000Y-83081000D03*
X108562000Y-82065000D03*
X113382000Y-92477000D03*
X113382000Y-90187000D03*
X113382000Y-81047000D03*
X113382000Y-78757000D03*
X106782000Y-73427000D03*
X108562000Y-72411000D03*
X106782000Y-71395000D03*
X108562000Y-70379000D03*
X106782000Y-69363000D03*
X108562000Y-68347000D03*
X106782000Y-67331000D03*
X108562000Y-66315000D03*
X113382000Y-76727000D03*
X113382000Y-74437000D03*
X113382000Y-65297000D03*
X113382000Y-63007000D03*
D33*
X107672000Y-61747000D03*
X107672000Y-93747000D03*
D24*
X194400000Y-55600000D03*
X105600000Y-114400000D03*
D14*
X162410000Y-72100000D03*
X167490000Y-72100000D03*
X154790000Y-72100000D03*
X172570000Y-72100000D03*
X149710000Y-72100000D03*
X177650000Y-72100000D03*
X144630000Y-72100000D03*
X144630000Y-64480000D03*
X177650000Y-64480000D03*
X149710000Y-64480000D03*
X172570000Y-64480000D03*
X154790000Y-64480000D03*
X167490000Y-64480000D03*
X162410000Y-64480000D03*
D26*
X116581000Y-106000000D03*
D27*
X116581000Y-103460000D03*
X119121000Y-106000000D03*
X119121000Y-103460000D03*
D24*
X105600000Y-55600000D03*
M02*
