M48
; DRILL file {KiCad 6.0.9+dfsg-1} date Sat 03 Dec 2022 11:10:47 PM UTC
; FORMAT={-:-/ absolute / metric / decimal}
; #@! TF.CreationDate,2022-12-03T23:10:47+00:00
; #@! TF.GenerationSoftware,Kicad,Pcbnew,6.0.9+dfsg-1
; #@! TF.FileFunction,Plated,1,4,PTH
FMAT,2
METRIC
; #@! TA.AperFunction,Plated,PTH,ViaDrill
T1C0.400
; #@! TA.AperFunction,Plated,PTH,ComponentDrill
T2C0.762
; #@! TA.AperFunction,Plated,PTH,ComponentDrill
T3C0.800
; #@! TA.AperFunction,Plated,PTH,ComponentDrill
T4C0.890
; #@! TA.AperFunction,Plated,PTH,ComponentDrill
T5C0.900
; #@! TA.AperFunction,Plated,PTH,ComponentDrill
T6C1.000
; #@! TA.AperFunction,Plated,PTH,ComponentDrill
T7C1.570
; #@! TA.AperFunction,Plated,PTH,ComponentDrill
T8C3.200
%
G90
G05
T1
X101.069Y-81.557
X101.069Y-83.081
X101.069Y-89.177
X101.092Y-66.317
X101.092Y-67.841
X101.092Y-72.413
X101.092Y-73.937
X101.092Y-87.653
X110.721Y-84.097
X110.744Y-68.326
X110.744Y-71.374
X110.767Y-87.145
X112.268Y-69.342
X112.268Y-70.358
X112.274Y-86.112
X112.291Y-85.09
X116.0Y-63.0
X116.5Y-79.3
X119.634Y-75.946
X121.412Y-75.946
X128.2Y-107.4
X129.0Y-98.0
X129.1Y-107.4
X130.0Y-107.4
X130.631Y-70.507
X130.66Y-89.588
X132.51Y-68.29
X132.56Y-87.34
X142.852Y-66.428
X142.852Y-72.13
X142.852Y-85.448
X142.852Y-91.15
X144.6Y-57.3
X144.6Y-76.3
X144.63Y-59.436
X144.63Y-78.45
X149.82Y-94.38
X154.72Y-68.42
X154.79Y-87.34
X156.65Y-87.35
X156.7Y-68.3
X162.4Y-68.3
X162.41Y-87.34
X167.49Y-87.34
X167.5Y-68.3
X172.57Y-85.308
X172.57Y-87.34
X172.6Y-66.6
X172.6Y-68.3
X180.23Y-71.15
X180.256Y-90.2
X187.1Y-63.5
X187.1Y-72.114
X187.196Y-65.43
X187.302Y-82.58
X187.302Y-84.48
X187.302Y-91.15
T2
X120.5Y-64.48
X120.5Y-72.1
X120.5Y-83.53
X120.5Y-91.15
X123.04Y-64.48
X123.04Y-72.1
X123.04Y-83.53
X123.04Y-91.15
X125.58Y-64.48
X125.58Y-72.1
X125.58Y-83.53
X125.58Y-91.15
X128.12Y-64.48
X128.12Y-72.1
X128.12Y-83.53
X128.12Y-91.15
X130.66Y-64.48
X130.66Y-72.1
X130.66Y-83.53
X130.66Y-91.15
X133.2Y-64.48
X133.2Y-72.1
X133.2Y-83.53
X133.2Y-91.15
X135.74Y-64.48
X135.74Y-72.1
X135.74Y-83.53
X135.74Y-91.15
X138.28Y-64.48
X138.28Y-72.1
X138.28Y-83.53
X138.28Y-91.15
T3
X191.635Y-64.47
X191.635Y-72.09
X191.635Y-83.52
X191.635Y-91.14
X194.175Y-64.47
X194.175Y-72.09
X194.175Y-83.52
X194.175Y-91.14
X196.715Y-64.47
X196.715Y-72.09
X196.715Y-83.52
X196.715Y-91.14
T4
X106.782Y-67.331
X106.782Y-69.363
X106.782Y-71.395
X106.782Y-73.427
X106.782Y-83.081
X106.782Y-85.113
X106.782Y-87.145
X106.782Y-89.177
X108.562Y-66.315
X108.562Y-68.347
X108.562Y-70.379
X108.562Y-72.411
X108.562Y-82.065
X108.562Y-84.097
X108.562Y-86.129
X108.562Y-88.161
X113.382Y-63.007
X113.382Y-65.297
X113.382Y-74.437
X113.382Y-76.727
X113.382Y-78.757
X113.382Y-81.047
X113.382Y-90.187
X113.382Y-92.477
T5
X144.63Y-64.48
X144.63Y-72.1
X144.63Y-83.53
X144.63Y-91.15
X149.71Y-64.48
X149.71Y-72.1
X149.71Y-83.53
X149.71Y-91.15
X154.79Y-64.48
X154.79Y-72.1
X154.79Y-83.53
X154.79Y-91.15
X162.41Y-64.48
X162.41Y-72.1
X162.41Y-83.53
X162.41Y-91.15
X167.49Y-64.48
X167.49Y-72.1
X167.49Y-83.53
X167.49Y-91.15
X172.57Y-64.48
X172.57Y-72.1
X172.57Y-83.53
X172.57Y-91.15
X177.65Y-64.48
X177.65Y-72.1
X177.65Y-83.53
X177.65Y-91.15
T6
X116.581Y-103.46
X116.581Y-106.0
X119.121Y-103.46
X119.121Y-106.0
X144.78Y-103.46
X144.78Y-106.0
X147.32Y-103.46
X147.32Y-106.0
T7
X107.672Y-61.747
X107.672Y-93.747
T8
X105.6Y-55.6
X105.6Y-114.4
X194.4Y-55.6
X194.4Y-114.4
T6
X104.637Y-99.409G85X103.137Y-99.409
G05
X104.637Y-108.409G85X103.137Y-108.409
G05
X104.887Y-103.259G85X104.887Y-104.559
G05
X110.887Y-102.909G85X110.887Y-104.909
G05
T0
M30
