%TF.GenerationSoftware,KiCad,Pcbnew,6.0.9+dfsg-1*%
%TF.CreationDate,2022-12-03T23:11:16+00:00*%
%TF.ProjectId,Token_Ring_MAU,546f6b65-6e5f-4526-996e-675f4d41552e,rev?*%
%TF.SameCoordinates,Original*%
%TF.FileFunction,Drillmap*%
%TF.FilePolarity,Positive*%
%FSLAX45Y45*%
G04 Gerber Fmt 4.5, Leading zero omitted, Abs format (unit mm)*
G04 Created by KiCad (PCBNEW 6.0.9+dfsg-1) date 2022-12-03 23:11:16*
%MOMM*%
%LPD*%
G01*
G04 APERTURE LIST*
%ADD10C,0.100000*%
%ADD11C,0.200000*%
%ADD12C,0.160000*%
%ADD13C,0.325000*%
G04 APERTURE END LIST*
D10*
X10000000Y-11440000D02*
G75*
G03*
X10560000Y-12000000I560000J0D01*
G01*
X10560000Y-5000000D02*
G75*
G03*
X10000000Y-5560000I0J-560000D01*
G01*
X19450000Y-12000000D02*
G75*
G03*
X20000000Y-11440000I-5000J555000D01*
G01*
X20000000Y-11440000D02*
X20000000Y-5560000D01*
X10000000Y-5560000D02*
X10000000Y-11440000D01*
X20000000Y-5560000D02*
G75*
G03*
X19440000Y-5000000I-560000J0D01*
G01*
X10560000Y-12000000D02*
X19450000Y-12000000D01*
X10560000Y-5000000D02*
X19440000Y-5000000D01*
D11*
D12*
X10108700Y-10310900D02*
X10268700Y-10470900D01*
X10268700Y-10310900D02*
X10108700Y-10470900D01*
D13*
X10586700Y-6351700D02*
G75*
G03*
X10586700Y-6351700I-162500J0D01*
G01*
X10586700Y-9196700D02*
G75*
G03*
X10586700Y-9196700I-162500J0D01*
G01*
D11*
X10252619Y-12315476D02*
X10252619Y-12115476D01*
X10300238Y-12115476D01*
X10328810Y-12125000D01*
X10347857Y-12144048D01*
X10357381Y-12163095D01*
X10366905Y-12201190D01*
X10366905Y-12229762D01*
X10357381Y-12267857D01*
X10347857Y-12286905D01*
X10328810Y-12305952D01*
X10300238Y-12315476D01*
X10252619Y-12315476D01*
X10452619Y-12315476D02*
X10452619Y-12182143D01*
X10452619Y-12220238D02*
X10462143Y-12201190D01*
X10471667Y-12191667D01*
X10490714Y-12182143D01*
X10509762Y-12182143D01*
X10576429Y-12315476D02*
X10576429Y-12182143D01*
X10576429Y-12115476D02*
X10566905Y-12125000D01*
X10576429Y-12134524D01*
X10585952Y-12125000D01*
X10576429Y-12115476D01*
X10576429Y-12134524D01*
X10700238Y-12315476D02*
X10681190Y-12305952D01*
X10671667Y-12286905D01*
X10671667Y-12115476D01*
X10805000Y-12315476D02*
X10785952Y-12305952D01*
X10776429Y-12286905D01*
X10776429Y-12115476D01*
X11033571Y-12315476D02*
X11033571Y-12115476D01*
X11100238Y-12258333D01*
X11166905Y-12115476D01*
X11166905Y-12315476D01*
X11347857Y-12315476D02*
X11347857Y-12210714D01*
X11338333Y-12191667D01*
X11319286Y-12182143D01*
X11281190Y-12182143D01*
X11262143Y-12191667D01*
X11347857Y-12305952D02*
X11328809Y-12315476D01*
X11281190Y-12315476D01*
X11262143Y-12305952D01*
X11252619Y-12286905D01*
X11252619Y-12267857D01*
X11262143Y-12248809D01*
X11281190Y-12239286D01*
X11328809Y-12239286D01*
X11347857Y-12229762D01*
X11443095Y-12182143D02*
X11443095Y-12382143D01*
X11443095Y-12191667D02*
X11462143Y-12182143D01*
X11500238Y-12182143D01*
X11519286Y-12191667D01*
X11528809Y-12201190D01*
X11538333Y-12220238D01*
X11538333Y-12277381D01*
X11528809Y-12296428D01*
X11519286Y-12305952D01*
X11500238Y-12315476D01*
X11462143Y-12315476D01*
X11443095Y-12305952D01*
X11624048Y-12296428D02*
X11633571Y-12305952D01*
X11624048Y-12315476D01*
X11614524Y-12305952D01*
X11624048Y-12296428D01*
X11624048Y-12315476D01*
X11624048Y-12191667D02*
X11633571Y-12201190D01*
X11624048Y-12210714D01*
X11614524Y-12201190D01*
X11624048Y-12191667D01*
X11624048Y-12210714D01*
D12*
X9835000Y-12565000D02*
X9995000Y-12725000D01*
X9995000Y-12565000D02*
X9835000Y-12725000D01*
D11*
X10357381Y-12735476D02*
X10243095Y-12735476D01*
X10300238Y-12735476D02*
X10300238Y-12535476D01*
X10281190Y-12564048D01*
X10262143Y-12583095D01*
X10243095Y-12592619D01*
X10443095Y-12716428D02*
X10452619Y-12725952D01*
X10443095Y-12735476D01*
X10433571Y-12725952D01*
X10443095Y-12716428D01*
X10443095Y-12735476D01*
X10624048Y-12535476D02*
X10585952Y-12535476D01*
X10566905Y-12545000D01*
X10557381Y-12554524D01*
X10538333Y-12583095D01*
X10528810Y-12621190D01*
X10528810Y-12697381D01*
X10538333Y-12716428D01*
X10547857Y-12725952D01*
X10566905Y-12735476D01*
X10605000Y-12735476D01*
X10624048Y-12725952D01*
X10633571Y-12716428D01*
X10643095Y-12697381D01*
X10643095Y-12649762D01*
X10633571Y-12630714D01*
X10624048Y-12621190D01*
X10605000Y-12611667D01*
X10566905Y-12611667D01*
X10547857Y-12621190D01*
X10538333Y-12630714D01*
X10528810Y-12649762D01*
X10766905Y-12535476D02*
X10785952Y-12535476D01*
X10805000Y-12545000D01*
X10814524Y-12554524D01*
X10824048Y-12573571D01*
X10833571Y-12611667D01*
X10833571Y-12659286D01*
X10824048Y-12697381D01*
X10814524Y-12716428D01*
X10805000Y-12725952D01*
X10785952Y-12735476D01*
X10766905Y-12735476D01*
X10747857Y-12725952D01*
X10738333Y-12716428D01*
X10728810Y-12697381D01*
X10719286Y-12659286D01*
X10719286Y-12611667D01*
X10728810Y-12573571D01*
X10738333Y-12554524D01*
X10747857Y-12545000D01*
X10766905Y-12535476D01*
X10957381Y-12535476D02*
X10976429Y-12535476D01*
X10995476Y-12545000D01*
X11005000Y-12554524D01*
X11014524Y-12573571D01*
X11024048Y-12611667D01*
X11024048Y-12659286D01*
X11014524Y-12697381D01*
X11005000Y-12716428D01*
X10995476Y-12725952D01*
X10976429Y-12735476D01*
X10957381Y-12735476D01*
X10938333Y-12725952D01*
X10928810Y-12716428D01*
X10919286Y-12697381D01*
X10909762Y-12659286D01*
X10909762Y-12611667D01*
X10919286Y-12573571D01*
X10928810Y-12554524D01*
X10938333Y-12545000D01*
X10957381Y-12535476D01*
X11109762Y-12735476D02*
X11109762Y-12602143D01*
X11109762Y-12621190D02*
X11119286Y-12611667D01*
X11138333Y-12602143D01*
X11166905Y-12602143D01*
X11185952Y-12611667D01*
X11195476Y-12630714D01*
X11195476Y-12735476D01*
X11195476Y-12630714D02*
X11205000Y-12611667D01*
X11224048Y-12602143D01*
X11252619Y-12602143D01*
X11271667Y-12611667D01*
X11281190Y-12630714D01*
X11281190Y-12735476D01*
X11376428Y-12735476D02*
X11376428Y-12602143D01*
X11376428Y-12621190D02*
X11385952Y-12611667D01*
X11405000Y-12602143D01*
X11433571Y-12602143D01*
X11452619Y-12611667D01*
X11462143Y-12630714D01*
X11462143Y-12735476D01*
X11462143Y-12630714D02*
X11471667Y-12611667D01*
X11490714Y-12602143D01*
X11519286Y-12602143D01*
X11538333Y-12611667D01*
X11547857Y-12630714D01*
X11547857Y-12735476D01*
X11938333Y-12525952D02*
X11766905Y-12783095D01*
X12195476Y-12535476D02*
X12214524Y-12535476D01*
X12233571Y-12545000D01*
X12243095Y-12554524D01*
X12252619Y-12573571D01*
X12262143Y-12611667D01*
X12262143Y-12659286D01*
X12252619Y-12697381D01*
X12243095Y-12716428D01*
X12233571Y-12725952D01*
X12214524Y-12735476D01*
X12195476Y-12735476D01*
X12176428Y-12725952D01*
X12166905Y-12716428D01*
X12157381Y-12697381D01*
X12147857Y-12659286D01*
X12147857Y-12611667D01*
X12157381Y-12573571D01*
X12166905Y-12554524D01*
X12176428Y-12545000D01*
X12195476Y-12535476D01*
X12347857Y-12716428D02*
X12357381Y-12725952D01*
X12347857Y-12735476D01*
X12338333Y-12725952D01*
X12347857Y-12716428D01*
X12347857Y-12735476D01*
X12481190Y-12535476D02*
X12500238Y-12535476D01*
X12519286Y-12545000D01*
X12528809Y-12554524D01*
X12538333Y-12573571D01*
X12547857Y-12611667D01*
X12547857Y-12659286D01*
X12538333Y-12697381D01*
X12528809Y-12716428D01*
X12519286Y-12725952D01*
X12500238Y-12735476D01*
X12481190Y-12735476D01*
X12462143Y-12725952D01*
X12452619Y-12716428D01*
X12443095Y-12697381D01*
X12433571Y-12659286D01*
X12433571Y-12611667D01*
X12443095Y-12573571D01*
X12452619Y-12554524D01*
X12462143Y-12545000D01*
X12481190Y-12535476D01*
X12719286Y-12535476D02*
X12681190Y-12535476D01*
X12662143Y-12545000D01*
X12652619Y-12554524D01*
X12633571Y-12583095D01*
X12624048Y-12621190D01*
X12624048Y-12697381D01*
X12633571Y-12716428D01*
X12643095Y-12725952D01*
X12662143Y-12735476D01*
X12700238Y-12735476D01*
X12719286Y-12725952D01*
X12728809Y-12716428D01*
X12738333Y-12697381D01*
X12738333Y-12649762D01*
X12728809Y-12630714D01*
X12719286Y-12621190D01*
X12700238Y-12611667D01*
X12662143Y-12611667D01*
X12643095Y-12621190D01*
X12633571Y-12630714D01*
X12624048Y-12649762D01*
X12805000Y-12535476D02*
X12928809Y-12535476D01*
X12862143Y-12611667D01*
X12890714Y-12611667D01*
X12909762Y-12621190D01*
X12919286Y-12630714D01*
X12928809Y-12649762D01*
X12928809Y-12697381D01*
X12919286Y-12716428D01*
X12909762Y-12725952D01*
X12890714Y-12735476D01*
X12833571Y-12735476D01*
X12814524Y-12725952D01*
X12805000Y-12716428D01*
X13052619Y-12535476D02*
X13071667Y-12535476D01*
X13090714Y-12545000D01*
X13100238Y-12554524D01*
X13109762Y-12573571D01*
X13119286Y-12611667D01*
X13119286Y-12659286D01*
X13109762Y-12697381D01*
X13100238Y-12716428D01*
X13090714Y-12725952D01*
X13071667Y-12735476D01*
X13052619Y-12735476D01*
X13033571Y-12725952D01*
X13024048Y-12716428D01*
X13014524Y-12697381D01*
X13005000Y-12659286D01*
X13005000Y-12611667D01*
X13014524Y-12573571D01*
X13024048Y-12554524D01*
X13033571Y-12545000D01*
X13052619Y-12535476D01*
X13195476Y-12535476D02*
X13195476Y-12573571D01*
X13271667Y-12535476D02*
X13271667Y-12573571D01*
X13566905Y-12811667D02*
X13557381Y-12802143D01*
X13538333Y-12773571D01*
X13528809Y-12754524D01*
X13519286Y-12725952D01*
X13509762Y-12678333D01*
X13509762Y-12640238D01*
X13519286Y-12592619D01*
X13528809Y-12564048D01*
X13538333Y-12545000D01*
X13557381Y-12516428D01*
X13566905Y-12506905D01*
X13747857Y-12735476D02*
X13633571Y-12735476D01*
X13690714Y-12735476D02*
X13690714Y-12535476D01*
X13671667Y-12564048D01*
X13652619Y-12583095D01*
X13633571Y-12592619D01*
X13985952Y-12735476D02*
X13985952Y-12535476D01*
X14071667Y-12735476D02*
X14071667Y-12630714D01*
X14062143Y-12611667D01*
X14043095Y-12602143D01*
X14014524Y-12602143D01*
X13995476Y-12611667D01*
X13985952Y-12621190D01*
X14195476Y-12735476D02*
X14176428Y-12725952D01*
X14166905Y-12716428D01*
X14157381Y-12697381D01*
X14157381Y-12640238D01*
X14166905Y-12621190D01*
X14176428Y-12611667D01*
X14195476Y-12602143D01*
X14224048Y-12602143D01*
X14243095Y-12611667D01*
X14252619Y-12621190D01*
X14262143Y-12640238D01*
X14262143Y-12697381D01*
X14252619Y-12716428D01*
X14243095Y-12725952D01*
X14224048Y-12735476D01*
X14195476Y-12735476D01*
X14376428Y-12735476D02*
X14357381Y-12725952D01*
X14347857Y-12706905D01*
X14347857Y-12535476D01*
X14528809Y-12725952D02*
X14509762Y-12735476D01*
X14471667Y-12735476D01*
X14452619Y-12725952D01*
X14443095Y-12706905D01*
X14443095Y-12630714D01*
X14452619Y-12611667D01*
X14471667Y-12602143D01*
X14509762Y-12602143D01*
X14528809Y-12611667D01*
X14538333Y-12630714D01*
X14538333Y-12649762D01*
X14443095Y-12668809D01*
X14605000Y-12811667D02*
X14614524Y-12802143D01*
X14633571Y-12773571D01*
X14643095Y-12754524D01*
X14652619Y-12725952D01*
X14662143Y-12678333D01*
X14662143Y-12640238D01*
X14652619Y-12592619D01*
X14643095Y-12564048D01*
X14633571Y-12545000D01*
X14614524Y-12516428D01*
X14605000Y-12506905D01*
X14966905Y-12811667D02*
X14957381Y-12802143D01*
X14938333Y-12773571D01*
X14928809Y-12754524D01*
X14919286Y-12725952D01*
X14909762Y-12678333D01*
X14909762Y-12640238D01*
X14919286Y-12592619D01*
X14928809Y-12564048D01*
X14938333Y-12545000D01*
X14957381Y-12516428D01*
X14966905Y-12506905D01*
X15043095Y-12602143D02*
X15043095Y-12735476D01*
X15043095Y-12621190D02*
X15052619Y-12611667D01*
X15071667Y-12602143D01*
X15100238Y-12602143D01*
X15119286Y-12611667D01*
X15128809Y-12630714D01*
X15128809Y-12735476D01*
X15252619Y-12735476D02*
X15233571Y-12725952D01*
X15224048Y-12716428D01*
X15214524Y-12697381D01*
X15214524Y-12640238D01*
X15224048Y-12621190D01*
X15233571Y-12611667D01*
X15252619Y-12602143D01*
X15281190Y-12602143D01*
X15300238Y-12611667D01*
X15309762Y-12621190D01*
X15319286Y-12640238D01*
X15319286Y-12697381D01*
X15309762Y-12716428D01*
X15300238Y-12725952D01*
X15281190Y-12735476D01*
X15252619Y-12735476D01*
X15376428Y-12602143D02*
X15452619Y-12602143D01*
X15405000Y-12535476D02*
X15405000Y-12706905D01*
X15414524Y-12725952D01*
X15433571Y-12735476D01*
X15452619Y-12735476D01*
X15671667Y-12602143D02*
X15671667Y-12802143D01*
X15671667Y-12611667D02*
X15690714Y-12602143D01*
X15728809Y-12602143D01*
X15747857Y-12611667D01*
X15757381Y-12621190D01*
X15766905Y-12640238D01*
X15766905Y-12697381D01*
X15757381Y-12716428D01*
X15747857Y-12725952D01*
X15728809Y-12735476D01*
X15690714Y-12735476D01*
X15671667Y-12725952D01*
X15881190Y-12735476D02*
X15862143Y-12725952D01*
X15852619Y-12706905D01*
X15852619Y-12535476D01*
X16043095Y-12735476D02*
X16043095Y-12630714D01*
X16033571Y-12611667D01*
X16014524Y-12602143D01*
X15976428Y-12602143D01*
X15957381Y-12611667D01*
X16043095Y-12725952D02*
X16024048Y-12735476D01*
X15976428Y-12735476D01*
X15957381Y-12725952D01*
X15947857Y-12706905D01*
X15947857Y-12687857D01*
X15957381Y-12668809D01*
X15976428Y-12659286D01*
X16024048Y-12659286D01*
X16043095Y-12649762D01*
X16109762Y-12602143D02*
X16185952Y-12602143D01*
X16138333Y-12535476D02*
X16138333Y-12706905D01*
X16147857Y-12725952D01*
X16166905Y-12735476D01*
X16185952Y-12735476D01*
X16328809Y-12725952D02*
X16309762Y-12735476D01*
X16271667Y-12735476D01*
X16252619Y-12725952D01*
X16243095Y-12706905D01*
X16243095Y-12630714D01*
X16252619Y-12611667D01*
X16271667Y-12602143D01*
X16309762Y-12602143D01*
X16328809Y-12611667D01*
X16338333Y-12630714D01*
X16338333Y-12649762D01*
X16243095Y-12668809D01*
X16509762Y-12735476D02*
X16509762Y-12535476D01*
X16509762Y-12725952D02*
X16490714Y-12735476D01*
X16452619Y-12735476D01*
X16433571Y-12725952D01*
X16424048Y-12716428D01*
X16414524Y-12697381D01*
X16414524Y-12640238D01*
X16424048Y-12621190D01*
X16433571Y-12611667D01*
X16452619Y-12602143D01*
X16490714Y-12602143D01*
X16509762Y-12611667D01*
X16585952Y-12811667D02*
X16595476Y-12802143D01*
X16614524Y-12773571D01*
X16624048Y-12754524D01*
X16633571Y-12725952D01*
X16643095Y-12678333D01*
X16643095Y-12640238D01*
X16633571Y-12592619D01*
X16624048Y-12564048D01*
X16614524Y-12545000D01*
X16595476Y-12516428D01*
X16585952Y-12506905D01*
X9995000Y-12925000D02*
G75*
G03*
X9995000Y-12925000I-100000J0D01*
G01*
X10233571Y-12815476D02*
X10357381Y-12815476D01*
X10290714Y-12891667D01*
X10319286Y-12891667D01*
X10338333Y-12901190D01*
X10347857Y-12910714D01*
X10357381Y-12929762D01*
X10357381Y-12977381D01*
X10347857Y-12996428D01*
X10338333Y-13005952D01*
X10319286Y-13015476D01*
X10262143Y-13015476D01*
X10243095Y-13005952D01*
X10233571Y-12996428D01*
X10443095Y-12996428D02*
X10452619Y-13005952D01*
X10443095Y-13015476D01*
X10433571Y-13005952D01*
X10443095Y-12996428D01*
X10443095Y-13015476D01*
X10528810Y-12834524D02*
X10538333Y-12825000D01*
X10557381Y-12815476D01*
X10605000Y-12815476D01*
X10624048Y-12825000D01*
X10633571Y-12834524D01*
X10643095Y-12853571D01*
X10643095Y-12872619D01*
X10633571Y-12901190D01*
X10519286Y-13015476D01*
X10643095Y-13015476D01*
X10824048Y-12815476D02*
X10728810Y-12815476D01*
X10719286Y-12910714D01*
X10728810Y-12901190D01*
X10747857Y-12891667D01*
X10795476Y-12891667D01*
X10814524Y-12901190D01*
X10824048Y-12910714D01*
X10833571Y-12929762D01*
X10833571Y-12977381D01*
X10824048Y-12996428D01*
X10814524Y-13005952D01*
X10795476Y-13015476D01*
X10747857Y-13015476D01*
X10728810Y-13005952D01*
X10719286Y-12996428D01*
X10957381Y-12815476D02*
X10976429Y-12815476D01*
X10995476Y-12825000D01*
X11005000Y-12834524D01*
X11014524Y-12853571D01*
X11024048Y-12891667D01*
X11024048Y-12939286D01*
X11014524Y-12977381D01*
X11005000Y-12996428D01*
X10995476Y-13005952D01*
X10976429Y-13015476D01*
X10957381Y-13015476D01*
X10938333Y-13005952D01*
X10928810Y-12996428D01*
X10919286Y-12977381D01*
X10909762Y-12939286D01*
X10909762Y-12891667D01*
X10919286Y-12853571D01*
X10928810Y-12834524D01*
X10938333Y-12825000D01*
X10957381Y-12815476D01*
X11109762Y-13015476D02*
X11109762Y-12882143D01*
X11109762Y-12901190D02*
X11119286Y-12891667D01*
X11138333Y-12882143D01*
X11166905Y-12882143D01*
X11185952Y-12891667D01*
X11195476Y-12910714D01*
X11195476Y-13015476D01*
X11195476Y-12910714D02*
X11205000Y-12891667D01*
X11224048Y-12882143D01*
X11252619Y-12882143D01*
X11271667Y-12891667D01*
X11281190Y-12910714D01*
X11281190Y-13015476D01*
X11376428Y-13015476D02*
X11376428Y-12882143D01*
X11376428Y-12901190D02*
X11385952Y-12891667D01*
X11405000Y-12882143D01*
X11433571Y-12882143D01*
X11452619Y-12891667D01*
X11462143Y-12910714D01*
X11462143Y-13015476D01*
X11462143Y-12910714D02*
X11471667Y-12891667D01*
X11490714Y-12882143D01*
X11519286Y-12882143D01*
X11538333Y-12891667D01*
X11547857Y-12910714D01*
X11547857Y-13015476D01*
X11938333Y-12805952D02*
X11766905Y-13063095D01*
X12195476Y-12815476D02*
X12214524Y-12815476D01*
X12233571Y-12825000D01*
X12243095Y-12834524D01*
X12252619Y-12853571D01*
X12262143Y-12891667D01*
X12262143Y-12939286D01*
X12252619Y-12977381D01*
X12243095Y-12996428D01*
X12233571Y-13005952D01*
X12214524Y-13015476D01*
X12195476Y-13015476D01*
X12176428Y-13005952D01*
X12166905Y-12996428D01*
X12157381Y-12977381D01*
X12147857Y-12939286D01*
X12147857Y-12891667D01*
X12157381Y-12853571D01*
X12166905Y-12834524D01*
X12176428Y-12825000D01*
X12195476Y-12815476D01*
X12347857Y-12996428D02*
X12357381Y-13005952D01*
X12347857Y-13015476D01*
X12338333Y-13005952D01*
X12347857Y-12996428D01*
X12347857Y-13015476D01*
X12547857Y-13015476D02*
X12433571Y-13015476D01*
X12490714Y-13015476D02*
X12490714Y-12815476D01*
X12471667Y-12844048D01*
X12452619Y-12863095D01*
X12433571Y-12872619D01*
X12624048Y-12834524D02*
X12633571Y-12825000D01*
X12652619Y-12815476D01*
X12700238Y-12815476D01*
X12719286Y-12825000D01*
X12728809Y-12834524D01*
X12738333Y-12853571D01*
X12738333Y-12872619D01*
X12728809Y-12901190D01*
X12614524Y-13015476D01*
X12738333Y-13015476D01*
X12852619Y-12901190D02*
X12833571Y-12891667D01*
X12824048Y-12882143D01*
X12814524Y-12863095D01*
X12814524Y-12853571D01*
X12824048Y-12834524D01*
X12833571Y-12825000D01*
X12852619Y-12815476D01*
X12890714Y-12815476D01*
X12909762Y-12825000D01*
X12919286Y-12834524D01*
X12928809Y-12853571D01*
X12928809Y-12863095D01*
X12919286Y-12882143D01*
X12909762Y-12891667D01*
X12890714Y-12901190D01*
X12852619Y-12901190D01*
X12833571Y-12910714D01*
X12824048Y-12920238D01*
X12814524Y-12939286D01*
X12814524Y-12977381D01*
X12824048Y-12996428D01*
X12833571Y-13005952D01*
X12852619Y-13015476D01*
X12890714Y-13015476D01*
X12909762Y-13005952D01*
X12919286Y-12996428D01*
X12928809Y-12977381D01*
X12928809Y-12939286D01*
X12919286Y-12920238D01*
X12909762Y-12910714D01*
X12890714Y-12901190D01*
X13052619Y-12815476D02*
X13071667Y-12815476D01*
X13090714Y-12825000D01*
X13100238Y-12834524D01*
X13109762Y-12853571D01*
X13119286Y-12891667D01*
X13119286Y-12939286D01*
X13109762Y-12977381D01*
X13100238Y-12996428D01*
X13090714Y-13005952D01*
X13071667Y-13015476D01*
X13052619Y-13015476D01*
X13033571Y-13005952D01*
X13024048Y-12996428D01*
X13014524Y-12977381D01*
X13005000Y-12939286D01*
X13005000Y-12891667D01*
X13014524Y-12853571D01*
X13024048Y-12834524D01*
X13033571Y-12825000D01*
X13052619Y-12815476D01*
X13195476Y-12815476D02*
X13195476Y-12853571D01*
X13271667Y-12815476D02*
X13271667Y-12853571D01*
X13566905Y-13091667D02*
X13557381Y-13082143D01*
X13538333Y-13053571D01*
X13528809Y-13034524D01*
X13519286Y-13005952D01*
X13509762Y-12958333D01*
X13509762Y-12920238D01*
X13519286Y-12872619D01*
X13528809Y-12844048D01*
X13538333Y-12825000D01*
X13557381Y-12796428D01*
X13566905Y-12786905D01*
X13633571Y-12834524D02*
X13643095Y-12825000D01*
X13662143Y-12815476D01*
X13709762Y-12815476D01*
X13728809Y-12825000D01*
X13738333Y-12834524D01*
X13747857Y-12853571D01*
X13747857Y-12872619D01*
X13738333Y-12901190D01*
X13624048Y-13015476D01*
X13747857Y-13015476D01*
X13985952Y-13015476D02*
X13985952Y-12815476D01*
X14071667Y-13015476D02*
X14071667Y-12910714D01*
X14062143Y-12891667D01*
X14043095Y-12882143D01*
X14014524Y-12882143D01*
X13995476Y-12891667D01*
X13985952Y-12901190D01*
X14195476Y-13015476D02*
X14176428Y-13005952D01*
X14166905Y-12996428D01*
X14157381Y-12977381D01*
X14157381Y-12920238D01*
X14166905Y-12901190D01*
X14176428Y-12891667D01*
X14195476Y-12882143D01*
X14224048Y-12882143D01*
X14243095Y-12891667D01*
X14252619Y-12901190D01*
X14262143Y-12920238D01*
X14262143Y-12977381D01*
X14252619Y-12996428D01*
X14243095Y-13005952D01*
X14224048Y-13015476D01*
X14195476Y-13015476D01*
X14376428Y-13015476D02*
X14357381Y-13005952D01*
X14347857Y-12986905D01*
X14347857Y-12815476D01*
X14528809Y-13005952D02*
X14509762Y-13015476D01*
X14471667Y-13015476D01*
X14452619Y-13005952D01*
X14443095Y-12986905D01*
X14443095Y-12910714D01*
X14452619Y-12891667D01*
X14471667Y-12882143D01*
X14509762Y-12882143D01*
X14528809Y-12891667D01*
X14538333Y-12910714D01*
X14538333Y-12929762D01*
X14443095Y-12948809D01*
X14614524Y-13005952D02*
X14633571Y-13015476D01*
X14671667Y-13015476D01*
X14690714Y-13005952D01*
X14700238Y-12986905D01*
X14700238Y-12977381D01*
X14690714Y-12958333D01*
X14671667Y-12948809D01*
X14643095Y-12948809D01*
X14624048Y-12939286D01*
X14614524Y-12920238D01*
X14614524Y-12910714D01*
X14624048Y-12891667D01*
X14643095Y-12882143D01*
X14671667Y-12882143D01*
X14690714Y-12891667D01*
X14766905Y-13091667D02*
X14776428Y-13082143D01*
X14795476Y-13053571D01*
X14805000Y-13034524D01*
X14814524Y-13005952D01*
X14824048Y-12958333D01*
X14824048Y-12920238D01*
X14814524Y-12872619D01*
X14805000Y-12844048D01*
X14795476Y-12825000D01*
X14776428Y-12796428D01*
X14766905Y-12786905D01*
X15128809Y-13091667D02*
X15119286Y-13082143D01*
X15100238Y-13053571D01*
X15090714Y-13034524D01*
X15081190Y-13005952D01*
X15071667Y-12958333D01*
X15071667Y-12920238D01*
X15081190Y-12872619D01*
X15090714Y-12844048D01*
X15100238Y-12825000D01*
X15119286Y-12796428D01*
X15128809Y-12786905D01*
X15205000Y-12882143D02*
X15205000Y-13015476D01*
X15205000Y-12901190D02*
X15214524Y-12891667D01*
X15233571Y-12882143D01*
X15262143Y-12882143D01*
X15281190Y-12891667D01*
X15290714Y-12910714D01*
X15290714Y-13015476D01*
X15414524Y-13015476D02*
X15395476Y-13005952D01*
X15385952Y-12996428D01*
X15376428Y-12977381D01*
X15376428Y-12920238D01*
X15385952Y-12901190D01*
X15395476Y-12891667D01*
X15414524Y-12882143D01*
X15443095Y-12882143D01*
X15462143Y-12891667D01*
X15471667Y-12901190D01*
X15481190Y-12920238D01*
X15481190Y-12977381D01*
X15471667Y-12996428D01*
X15462143Y-13005952D01*
X15443095Y-13015476D01*
X15414524Y-13015476D01*
X15538333Y-12882143D02*
X15614524Y-12882143D01*
X15566905Y-12815476D02*
X15566905Y-12986905D01*
X15576428Y-13005952D01*
X15595476Y-13015476D01*
X15614524Y-13015476D01*
X15833571Y-12882143D02*
X15833571Y-13082143D01*
X15833571Y-12891667D02*
X15852619Y-12882143D01*
X15890714Y-12882143D01*
X15909762Y-12891667D01*
X15919286Y-12901190D01*
X15928809Y-12920238D01*
X15928809Y-12977381D01*
X15919286Y-12996428D01*
X15909762Y-13005952D01*
X15890714Y-13015476D01*
X15852619Y-13015476D01*
X15833571Y-13005952D01*
X16043095Y-13015476D02*
X16024048Y-13005952D01*
X16014524Y-12986905D01*
X16014524Y-12815476D01*
X16205000Y-13015476D02*
X16205000Y-12910714D01*
X16195476Y-12891667D01*
X16176428Y-12882143D01*
X16138333Y-12882143D01*
X16119286Y-12891667D01*
X16205000Y-13005952D02*
X16185952Y-13015476D01*
X16138333Y-13015476D01*
X16119286Y-13005952D01*
X16109762Y-12986905D01*
X16109762Y-12967857D01*
X16119286Y-12948809D01*
X16138333Y-12939286D01*
X16185952Y-12939286D01*
X16205000Y-12929762D01*
X16271667Y-12882143D02*
X16347857Y-12882143D01*
X16300238Y-12815476D02*
X16300238Y-12986905D01*
X16309762Y-13005952D01*
X16328809Y-13015476D01*
X16347857Y-13015476D01*
X16490714Y-13005952D02*
X16471667Y-13015476D01*
X16433571Y-13015476D01*
X16414524Y-13005952D01*
X16405000Y-12986905D01*
X16405000Y-12910714D01*
X16414524Y-12891667D01*
X16433571Y-12882143D01*
X16471667Y-12882143D01*
X16490714Y-12891667D01*
X16500238Y-12910714D01*
X16500238Y-12929762D01*
X16405000Y-12948809D01*
X16671667Y-13015476D02*
X16671667Y-12815476D01*
X16671667Y-13005952D02*
X16652619Y-13015476D01*
X16614524Y-13015476D01*
X16595476Y-13005952D01*
X16585952Y-12996428D01*
X16576428Y-12977381D01*
X16576428Y-12920238D01*
X16585952Y-12901190D01*
X16595476Y-12891667D01*
X16614524Y-12882143D01*
X16652619Y-12882143D01*
X16671667Y-12891667D01*
X16747857Y-13091667D02*
X16757381Y-13082143D01*
X16776428Y-13053571D01*
X16785952Y-13034524D01*
X16795476Y-13005952D01*
X16805000Y-12958333D01*
X16805000Y-12920238D01*
X16795476Y-12872619D01*
X16785952Y-12844048D01*
X16776428Y-12825000D01*
X16757381Y-12796428D01*
X16747857Y-12786905D01*
M02*
