%TF.GenerationSoftware,KiCad,Pcbnew,6.0.9+dfsg-1*%
%TF.CreationDate,2022-12-03T23:10:22+00:00*%
%TF.ProjectId,Token_Ring_MAU,546f6b65-6e5f-4526-996e-675f4d41552e,rev?*%
%TF.SameCoordinates,Original*%
%TF.FileFunction,Copper,L4,Bot*%
%TF.FilePolarity,Positive*%
%FSLAX46Y46*%
G04 Gerber Fmt 4.6, Leading zero omitted, Abs format (unit mm)*
G04 Created by KiCad (PCBNEW 6.0.9+dfsg-1) date 2022-12-03 23:10:22*
%MOMM*%
%LPD*%
G01*
G04 APERTURE LIST*
G04 Aperture macros list*
%AMRoundRect*
0 Rectangle with rounded corners*
0 $1 Rounding radius*
0 $2 $3 $4 $5 $6 $7 $8 $9 X,Y pos of 4 corners*
0 Add a 4 corners polygon primitive as box body*
4,1,4,$2,$3,$4,$5,$6,$7,$8,$9,$2,$3,0*
0 Add four circle primitives for the rounded corners*
1,1,$1+$1,$2,$3*
1,1,$1+$1,$4,$5*
1,1,$1+$1,$6,$7*
1,1,$1+$1,$8,$9*
0 Add four rect primitives between the rounded corners*
20,1,$1+$1,$2,$3,$4,$5,0*
20,1,$1+$1,$4,$5,$6,$7,0*
20,1,$1+$1,$6,$7,$8,$9,0*
20,1,$1+$1,$8,$9,$2,$3,0*%
G04 Aperture macros list end*
%TA.AperFunction,ComponentPad*%
%ADD10C,1.524000*%
%TD*%
%TA.AperFunction,ComponentPad*%
%ADD11R,2.000000X4.000000*%
%TD*%
%TA.AperFunction,ComponentPad*%
%ADD12O,2.000000X3.300000*%
%TD*%
%TA.AperFunction,ComponentPad*%
%ADD13O,3.500000X2.000000*%
%TD*%
%TA.AperFunction,ComponentPad*%
%ADD14R,1.600000X1.600000*%
%TD*%
%TA.AperFunction,ComponentPad*%
%ADD15O,1.600000X1.600000*%
%TD*%
%TA.AperFunction,ComponentPad*%
%ADD16C,5.600000*%
%TD*%
%TA.AperFunction,ComponentPad*%
%ADD17R,1.700000X1.700000*%
%TD*%
%TA.AperFunction,ComponentPad*%
%ADD18O,1.700000X1.700000*%
%TD*%
%TA.AperFunction,ComponentPad*%
%ADD19R,1.500000X1.500000*%
%TD*%
%TA.AperFunction,ComponentPad*%
%ADD20C,1.500000*%
%TD*%
%TA.AperFunction,ComponentPad*%
%ADD21C,2.300000*%
%TD*%
%TA.AperFunction,SMDPad,CuDef*%
%ADD22RoundRect,0.237500X0.250000X0.237500X-0.250000X0.237500X-0.250000X-0.237500X0.250000X-0.237500X0*%
%TD*%
%TA.AperFunction,SMDPad,CuDef*%
%ADD23RoundRect,0.250000X-0.350000X-0.450000X0.350000X-0.450000X0.350000X0.450000X-0.350000X0.450000X0*%
%TD*%
%TA.AperFunction,SMDPad,CuDef*%
%ADD24RoundRect,0.237500X-0.250000X-0.237500X0.250000X-0.237500X0.250000X0.237500X-0.250000X0.237500X0*%
%TD*%
%TA.AperFunction,SMDPad,CuDef*%
%ADD25RoundRect,0.150000X0.587500X0.150000X-0.587500X0.150000X-0.587500X-0.150000X0.587500X-0.150000X0*%
%TD*%
%TA.AperFunction,SMDPad,CuDef*%
%ADD26RoundRect,0.237500X-0.300000X-0.237500X0.300000X-0.237500X0.300000X0.237500X-0.300000X0.237500X0*%
%TD*%
%TA.AperFunction,SMDPad,CuDef*%
%ADD27RoundRect,0.150000X-0.587500X-0.150000X0.587500X-0.150000X0.587500X0.150000X-0.587500X0.150000X0*%
%TD*%
%TA.AperFunction,SMDPad,CuDef*%
%ADD28RoundRect,0.250000X-0.325000X-0.450000X0.325000X-0.450000X0.325000X0.450000X-0.325000X0.450000X0*%
%TD*%
%TA.AperFunction,ViaPad*%
%ADD29C,0.800000*%
%TD*%
%TA.AperFunction,Conductor*%
%ADD30C,0.250000*%
%TD*%
%TA.AperFunction,Conductor*%
%ADD31C,0.200000*%
%TD*%
G04 APERTURE END LIST*
D10*
X162410000Y-91150000D03*
X167490000Y-91150000D03*
X154790000Y-91150000D03*
X172570000Y-91150000D03*
X149710000Y-91150000D03*
X177650000Y-91150000D03*
X144630000Y-91150000D03*
X144630000Y-83530000D03*
X177650000Y-83530000D03*
X149710000Y-83530000D03*
X172570000Y-83530000D03*
X154790000Y-83530000D03*
X167490000Y-83530000D03*
X162410000Y-83530000D03*
D11*
X110887000Y-103909000D03*
D12*
X104887000Y-103909000D03*
D13*
X103887000Y-108409000D03*
X103887000Y-99409000D03*
D14*
X191635000Y-91140000D03*
D15*
X194175000Y-91140000D03*
X196715000Y-91140000D03*
X196715000Y-83520000D03*
X194175000Y-83520000D03*
X191635000Y-83520000D03*
D10*
X120500000Y-72100000D03*
X123040000Y-72100000D03*
X125580000Y-72100000D03*
X128120000Y-72100000D03*
X130660000Y-72100000D03*
X133200000Y-72100000D03*
X135740000Y-72100000D03*
X138280000Y-72100000D03*
X138280000Y-64480000D03*
X135740000Y-64480000D03*
X133200000Y-64480000D03*
X130660000Y-64480000D03*
X128120000Y-64480000D03*
X125580000Y-64480000D03*
X123040000Y-64480000D03*
X120500000Y-64480000D03*
D16*
X194400000Y-114400000D03*
D14*
X191635000Y-72090000D03*
D15*
X194175000Y-72090000D03*
X196715000Y-72090000D03*
X196715000Y-64470000D03*
X194175000Y-64470000D03*
X191635000Y-64470000D03*
D10*
X120500000Y-91150000D03*
X123040000Y-91150000D03*
X125580000Y-91150000D03*
X128120000Y-91150000D03*
X130660000Y-91150000D03*
X133200000Y-91150000D03*
X135740000Y-91150000D03*
X138280000Y-91150000D03*
X138280000Y-83530000D03*
X135740000Y-83530000D03*
X133200000Y-83530000D03*
X130660000Y-83530000D03*
X128120000Y-83530000D03*
X125580000Y-83530000D03*
X123040000Y-83530000D03*
X120500000Y-83530000D03*
D17*
X144780000Y-106000000D03*
D18*
X144780000Y-103460000D03*
X147320000Y-106000000D03*
X147320000Y-103460000D03*
D19*
X106782000Y-89177000D03*
D20*
X108562000Y-88161000D03*
X106782000Y-87145000D03*
X108562000Y-86129000D03*
X106782000Y-85113000D03*
X108562000Y-84097000D03*
X106782000Y-83081000D03*
X108562000Y-82065000D03*
X113382000Y-92477000D03*
X113382000Y-90187000D03*
X113382000Y-81047000D03*
X113382000Y-78757000D03*
X106782000Y-73427000D03*
X108562000Y-72411000D03*
X106782000Y-71395000D03*
X108562000Y-70379000D03*
X106782000Y-69363000D03*
X108562000Y-68347000D03*
X106782000Y-67331000D03*
X108562000Y-66315000D03*
X113382000Y-76727000D03*
X113382000Y-74437000D03*
X113382000Y-65297000D03*
X113382000Y-63007000D03*
D21*
X107672000Y-61747000D03*
X107672000Y-93747000D03*
D16*
X194400000Y-55600000D03*
X105600000Y-114400000D03*
D10*
X162410000Y-72100000D03*
X167490000Y-72100000D03*
X154790000Y-72100000D03*
X172570000Y-72100000D03*
X149710000Y-72100000D03*
X177650000Y-72100000D03*
X144630000Y-72100000D03*
X144630000Y-64480000D03*
X177650000Y-64480000D03*
X149710000Y-64480000D03*
X172570000Y-64480000D03*
X154790000Y-64480000D03*
X167490000Y-64480000D03*
X162410000Y-64480000D03*
D17*
X116581000Y-106000000D03*
D18*
X116581000Y-103460000D03*
X119121000Y-106000000D03*
X119121000Y-103460000D03*
D16*
X105600000Y-55600000D03*
D22*
X104267500Y-81557000D03*
X102442500Y-81557000D03*
X104267500Y-73937000D03*
X102442500Y-73937000D03*
X115212500Y-95504000D03*
X113387500Y-95504000D03*
X104267500Y-89177000D03*
X102442500Y-89177000D03*
D23*
X193160000Y-68290000D03*
X195160000Y-68290000D03*
D24*
X122127500Y-68290000D03*
X123952500Y-68290000D03*
D25*
X184937500Y-82580000D03*
X184937500Y-84480000D03*
X183062500Y-83530000D03*
D26*
X128527500Y-87340000D03*
X130252500Y-87340000D03*
D22*
X104267500Y-83081000D03*
X102442500Y-83081000D03*
X130302500Y-59400000D03*
X128477500Y-59400000D03*
D25*
X184937500Y-63530000D03*
X184937500Y-65430000D03*
X183062500Y-64480000D03*
D22*
X104267500Y-66317000D03*
X102442500Y-66317000D03*
X104267500Y-72413000D03*
X102442500Y-72413000D03*
X176022500Y-68290000D03*
X174197500Y-68290000D03*
X104267500Y-87653000D03*
X102442500Y-87653000D03*
D27*
X183062500Y-73050000D03*
X183062500Y-71150000D03*
X184937500Y-72100000D03*
D24*
X122127500Y-87340000D03*
X123952500Y-87340000D03*
D28*
X158360000Y-87340000D03*
X160410000Y-87340000D03*
D23*
X193160000Y-87340000D03*
X195160000Y-87340000D03*
D22*
X130302500Y-78450000D03*
X128477500Y-78450000D03*
D26*
X128527500Y-68290000D03*
X130252500Y-68290000D03*
D22*
X170942500Y-87340000D03*
X169117500Y-87340000D03*
X104267500Y-67841000D03*
X102442500Y-67841000D03*
X176022500Y-87340000D03*
X174197500Y-87340000D03*
X118232500Y-65301000D03*
X116407500Y-65301000D03*
D24*
X134827500Y-87340000D03*
X136652500Y-87340000D03*
D22*
X118232500Y-76731000D03*
X116407500Y-76731000D03*
X170942500Y-68290000D03*
X169117500Y-68290000D03*
D24*
X134827500Y-68290000D03*
X136652500Y-68290000D03*
D26*
X134877500Y-78450000D03*
X136602500Y-78450000D03*
D22*
X118232500Y-81049000D03*
X116407500Y-81049000D03*
D27*
X183062500Y-92100000D03*
X183062500Y-90200000D03*
X184937500Y-91150000D03*
D26*
X134877500Y-59400000D03*
X136602500Y-59400000D03*
D28*
X158475000Y-68300000D03*
X160525000Y-68300000D03*
D29*
X149820000Y-94380000D03*
X101092000Y-87653000D03*
X132560000Y-87340000D03*
X132510000Y-68290000D03*
X187302000Y-84480000D03*
X187195833Y-65430000D03*
X101069000Y-83081000D03*
X144600000Y-76300000D03*
X101092000Y-72413000D03*
X101092000Y-73937000D03*
X101092000Y-66317000D03*
X101092000Y-67841000D03*
X180256000Y-90200000D03*
X101069000Y-89177000D03*
X101069000Y-81557000D03*
X180230000Y-71150000D03*
X116500000Y-79300000D03*
X144600000Y-57300000D03*
X116000000Y-63000000D03*
X128200000Y-107400000D03*
X130000000Y-107400000D03*
X129100000Y-107400000D03*
X156700000Y-68300000D03*
X156650000Y-87350000D03*
X129000000Y-98000000D03*
X154790000Y-87340000D03*
X144630000Y-78450000D03*
X167490000Y-87340000D03*
X172570000Y-87340000D03*
X154720074Y-68420074D03*
X144630000Y-59436000D03*
X167500000Y-68300000D03*
X172600000Y-68300000D03*
X110767000Y-87145000D03*
X112274234Y-86112234D03*
X112291000Y-85090000D03*
X110721000Y-84097000D03*
X110744000Y-71374000D03*
X112268000Y-70358000D03*
X112268000Y-69342000D03*
X110744000Y-68326000D03*
X142852000Y-91150000D03*
X142852000Y-85448000D03*
X130660000Y-89588500D03*
X142852000Y-72130000D03*
X142852000Y-66428000D03*
X130630763Y-70506500D03*
X172570000Y-85308000D03*
X187302000Y-82580000D03*
X172600000Y-66600000D03*
X187100000Y-63500000D03*
X187302000Y-91150000D03*
X162410000Y-87340000D03*
X121412000Y-75946000D03*
X187100000Y-72113500D03*
X119634000Y-75946000D03*
X162400000Y-68300000D03*
D30*
X118500000Y-69400000D02*
X119610000Y-68290000D01*
X118700000Y-88900000D02*
X118700000Y-93100000D01*
X122127500Y-87340000D02*
X120540000Y-87340000D01*
X118700000Y-85500000D02*
X118700000Y-82700000D01*
X120540000Y-87340000D02*
X118700000Y-85500000D01*
X113382000Y-63007000D02*
X112593000Y-63007000D01*
X118700000Y-82700000D02*
X120600000Y-80800000D01*
X112593000Y-63007000D02*
X111900000Y-63700000D01*
X118700000Y-93100000D02*
X119980000Y-94380000D01*
X111900000Y-63700000D02*
X111900000Y-66200000D01*
X122127500Y-87340000D02*
X120260000Y-87340000D01*
X120600000Y-74800000D02*
X118500000Y-72700000D01*
X118500000Y-72700000D02*
X118500000Y-69400000D01*
X119890000Y-68290000D02*
X122127500Y-68290000D01*
X120260000Y-87340000D02*
X118700000Y-88900000D01*
X119610000Y-68290000D02*
X119890000Y-68290000D01*
X111900000Y-66200000D02*
X113990000Y-68290000D01*
X119980000Y-94380000D02*
X149820000Y-94380000D01*
X120600000Y-80800000D02*
X120600000Y-74800000D01*
X113990000Y-68290000D02*
X119890000Y-68290000D01*
X187302000Y-84480000D02*
X184937500Y-84480000D01*
X180256000Y-90200000D02*
X183062500Y-90200000D01*
X136602500Y-59450000D02*
X142450000Y-59450000D01*
X118232500Y-81049000D02*
X118232500Y-81032500D01*
X132560000Y-87340000D02*
X134827500Y-87340000D01*
X102442500Y-66317000D02*
X101092000Y-66317000D01*
X142450000Y-78450000D02*
X144600000Y-76300000D01*
X102442500Y-89177000D02*
X101069000Y-89177000D01*
X102442500Y-87653000D02*
X101092000Y-87653000D01*
X102442500Y-81557000D02*
X101069000Y-81557000D01*
X142450000Y-59450000D02*
X144600000Y-57300000D01*
X102442500Y-73937000D02*
X101092000Y-73937000D01*
X132510000Y-68290000D02*
X134827500Y-68290000D01*
X116000000Y-63068500D02*
X118232500Y-65301000D01*
X180230000Y-71150000D02*
X183036500Y-71150000D01*
X130252500Y-68290000D02*
X132510000Y-68290000D01*
X187195833Y-65430000D02*
X185035333Y-65430000D01*
X102442500Y-72413000D02*
X101092000Y-72413000D01*
X118232500Y-81032500D02*
X116500000Y-79300000D01*
X130252500Y-87340000D02*
X132560000Y-87340000D01*
X102442500Y-83081000D02*
X101069000Y-83081000D01*
X102442500Y-67841000D02*
X101092000Y-67841000D01*
X116000000Y-63000000D02*
X116000000Y-63068500D01*
X136602500Y-78450000D02*
X142450000Y-78450000D01*
X128000000Y-97000000D02*
X112000000Y-97000000D01*
X112000000Y-82000000D02*
X112000000Y-80139000D01*
X111000000Y-92569000D02*
X113382000Y-90187000D01*
X112000000Y-77375000D02*
X112000000Y-75819000D01*
X158360000Y-87340000D02*
X156660000Y-87340000D01*
X112000000Y-75819000D02*
X113382000Y-74437000D01*
X158475000Y-68300000D02*
X156700000Y-68300000D01*
X113382000Y-90187000D02*
X113382000Y-83382000D01*
X113382000Y-78757000D02*
X112000000Y-77375000D01*
X129000000Y-98000000D02*
X128000000Y-97000000D01*
X111000000Y-96000000D02*
X111000000Y-92569000D01*
X113382000Y-83382000D02*
X112000000Y-82000000D01*
X112000000Y-97000000D02*
X111000000Y-96000000D01*
X112000000Y-80139000D02*
X113382000Y-78757000D01*
D31*
X106782000Y-89177000D02*
X104267500Y-89177000D01*
X108562000Y-88161000D02*
X104775500Y-88161000D01*
X104775500Y-88161000D02*
X104267500Y-87653000D01*
X106782000Y-83081000D02*
X104267500Y-83081000D01*
X104267500Y-81557000D02*
X108054000Y-81557000D01*
D30*
X108054000Y-81557000D02*
X108562000Y-82065000D01*
X125326000Y-88864000D02*
X123040000Y-91150000D01*
X153774000Y-88356000D02*
X144996000Y-88356000D01*
X144996000Y-88356000D02*
X144488000Y-88864000D01*
X144488000Y-88864000D02*
X125326000Y-88864000D01*
X154790000Y-87340000D02*
X153774000Y-88356000D01*
X188826000Y-82260000D02*
X188826000Y-83530000D01*
X192636000Y-87340000D02*
X193160000Y-87340000D01*
X187302000Y-80736000D02*
X185016000Y-78450000D01*
X185016000Y-78450000D02*
X144630000Y-78450000D01*
X187302000Y-80736000D02*
X188826000Y-82260000D01*
X188826000Y-83530000D02*
X192636000Y-87340000D01*
X167490000Y-87340000D02*
X169117500Y-87340000D01*
X153520000Y-87340000D02*
X155160000Y-85700000D01*
X155160000Y-85700000D02*
X165850000Y-85700000D01*
X174197500Y-87340000D02*
X172570000Y-87340000D01*
X165850000Y-85700000D02*
X167490000Y-87340000D01*
X136652500Y-87340000D02*
X153520000Y-87340000D01*
X128527500Y-87340000D02*
X130305500Y-85562000D01*
X130305500Y-85562000D02*
X132184000Y-85562000D01*
X133200000Y-84546000D02*
X133200000Y-83530000D01*
X123952500Y-87340000D02*
X128527500Y-87340000D01*
X132184000Y-85562000D02*
X133200000Y-84546000D01*
X133962000Y-76926000D02*
X134877500Y-77841500D01*
X125580000Y-79720000D02*
X126850000Y-78450000D01*
X128477500Y-78450000D02*
X128477500Y-77838500D01*
X128477500Y-77838500D02*
X129390000Y-76926000D01*
X134877500Y-77841500D02*
X134877500Y-78450000D01*
X129390000Y-76926000D02*
X133962000Y-76926000D01*
X126850000Y-78450000D02*
X128477500Y-78450000D01*
X125580000Y-83530000D02*
X125580000Y-79720000D01*
X144946148Y-69200000D02*
X144438148Y-69708000D01*
X125276148Y-69708000D02*
X122990148Y-71994000D01*
X153940148Y-69200000D02*
X144946148Y-69200000D01*
X144438148Y-69708000D02*
X125276148Y-69708000D01*
X154720074Y-68420074D02*
X153940148Y-69200000D01*
X188819285Y-64516000D02*
X192629285Y-68326000D01*
X188819285Y-63246000D02*
X188819285Y-64516000D01*
X192629285Y-68326000D02*
X193153285Y-68326000D01*
X185009285Y-59436000D02*
X144623285Y-59436000D01*
X187295285Y-61722000D02*
X188819285Y-63246000D01*
X187295285Y-61722000D02*
X185009285Y-59436000D01*
X136649445Y-68300000D02*
X153516945Y-68300000D01*
X167500000Y-68300000D02*
X169078961Y-68300000D01*
X174181920Y-68300000D02*
X172600000Y-68300000D01*
X155216945Y-66600000D02*
X165786945Y-66600000D01*
X165786945Y-66600000D02*
X167486945Y-68300000D01*
X153516945Y-68300000D02*
X155216945Y-66600000D01*
X128498265Y-68278000D02*
X130276265Y-66500000D01*
X123952500Y-68290000D02*
X128527500Y-68290000D01*
X130276265Y-66500000D02*
X132154765Y-66500000D01*
X133170765Y-65484000D02*
X133170765Y-64468000D01*
X132154765Y-66500000D02*
X133170765Y-65484000D01*
X133389500Y-57912000D02*
X134877500Y-59400000D01*
X129965500Y-57912000D02*
X133389500Y-57912000D01*
X125565245Y-60695000D02*
X126835245Y-59425000D01*
X126835245Y-59425000D02*
X128462745Y-59425000D01*
X125565245Y-64505000D02*
X125565245Y-60695000D01*
X128477500Y-59400000D02*
X129965500Y-57912000D01*
X106782000Y-87145000D02*
X110767000Y-87145000D01*
X108562000Y-86129000D02*
X108578766Y-86112234D01*
X108578766Y-86112234D02*
X112274234Y-86112234D01*
X112268000Y-85113000D02*
X112291000Y-85090000D01*
X106782000Y-85113000D02*
X112268000Y-85113000D01*
X108562000Y-84097000D02*
X110721000Y-84097000D01*
X113387500Y-95504000D02*
X113387500Y-92482500D01*
X113387500Y-92482500D02*
X113382000Y-92477000D01*
X116407500Y-81049000D02*
X116405500Y-81047000D01*
X116405500Y-81047000D02*
X113382000Y-81047000D01*
X106272000Y-73937000D02*
X106782000Y-73427000D01*
D31*
X104267500Y-73937000D02*
X106272000Y-73937000D01*
X108562000Y-72411000D02*
X104269500Y-72411000D01*
D30*
X104269500Y-72411000D02*
X104267500Y-72413000D01*
X110723000Y-71395000D02*
X110744000Y-71374000D01*
X106782000Y-71395000D02*
X110723000Y-71395000D01*
X112247000Y-70379000D02*
X112268000Y-70358000D01*
X108562000Y-70379000D02*
X112247000Y-70379000D01*
X112247000Y-69363000D02*
X112268000Y-69342000D01*
X106782000Y-69363000D02*
X112247000Y-69363000D01*
X110723000Y-68347000D02*
X110744000Y-68326000D01*
X108562000Y-68347000D02*
X110723000Y-68347000D01*
X106272000Y-67841000D02*
X106782000Y-67331000D01*
D31*
X104267500Y-67841000D02*
X106272000Y-67841000D01*
D30*
X108562000Y-66315000D02*
X108557000Y-66310000D01*
X108557000Y-66310000D02*
X104274500Y-66310000D01*
X104274500Y-66310000D02*
X104267500Y-66317000D01*
X113382000Y-76727000D02*
X116403500Y-76727000D01*
X116403500Y-76727000D02*
X116407500Y-76731000D01*
X116403500Y-65297000D02*
X116407500Y-65301000D01*
X113382000Y-65297000D02*
X116403500Y-65297000D01*
X142852000Y-85448000D02*
X139156000Y-81752000D01*
X121770000Y-84800000D02*
X120500000Y-83530000D01*
X166220000Y-89880000D02*
X167490000Y-91150000D01*
X128628000Y-84800000D02*
X121770000Y-84800000D01*
X142852000Y-91150000D02*
X142852000Y-92420000D01*
X139156000Y-81752000D02*
X130406000Y-81752000D01*
X145138000Y-92928000D02*
X148186000Y-89880000D01*
X129390000Y-82768000D02*
X129390000Y-84038000D01*
X129390000Y-84038000D02*
X128628000Y-84800000D01*
X143360000Y-92928000D02*
X145138000Y-92928000D01*
X142852000Y-92420000D02*
X143360000Y-92928000D01*
X148186000Y-89880000D02*
X166220000Y-89880000D01*
X130406000Y-81752000D02*
X129390000Y-82768000D01*
X152250000Y-74676000D02*
X175110000Y-74676000D01*
X175110000Y-74676000D02*
X177650000Y-72136000D01*
X149710000Y-72136000D02*
X152250000Y-74676000D01*
X140185000Y-90769000D02*
X141074000Y-89880000D01*
X140185000Y-92293000D02*
X140185000Y-90769000D01*
X146730000Y-89050000D02*
X144630000Y-91150000D01*
X131930000Y-90381374D02*
X131930000Y-92166000D01*
X130660000Y-89588500D02*
X131137126Y-89588500D01*
X172570000Y-91150000D02*
X170470000Y-89050000D01*
X141074000Y-89880000D02*
X143360000Y-89880000D01*
X143360000Y-89880000D02*
X144630000Y-91150000D01*
X131137126Y-89588500D02*
X131930000Y-90381374D01*
X139296000Y-93182000D02*
X140185000Y-92293000D01*
X170470000Y-89050000D02*
X146730000Y-89050000D01*
X132946000Y-93182000D02*
X139296000Y-93182000D01*
X131930000Y-92166000D02*
X132946000Y-93182000D01*
X152250000Y-93690000D02*
X175110000Y-93690000D01*
X175110000Y-93690000D02*
X177650000Y-91150000D01*
X149710000Y-91150000D02*
X152250000Y-93690000D01*
X153266000Y-86324000D02*
X154790000Y-84800000D01*
X153234990Y-86284198D02*
X154758990Y-84760198D01*
X144630000Y-83530000D02*
X147424000Y-86324000D01*
X171268990Y-84760198D02*
X172538990Y-83490198D01*
X171300000Y-84800000D02*
X172570000Y-83530000D01*
X144598990Y-83490198D02*
X147392990Y-86284198D01*
X154790000Y-84800000D02*
X171300000Y-84800000D01*
X147392990Y-86284198D02*
X153234990Y-86284198D01*
X154758990Y-84760198D02*
X171268990Y-84760198D01*
X147424000Y-86324000D02*
X153266000Y-86324000D01*
X149710000Y-83530000D02*
X152490000Y-80750000D01*
X174870000Y-80750000D02*
X177650000Y-83530000D01*
X152490000Y-80750000D02*
X174870000Y-80750000D01*
X175080299Y-61976000D02*
X177620299Y-64516000D01*
X149680299Y-64516000D02*
X152220299Y-61976000D01*
X152220299Y-61976000D02*
X175080299Y-61976000D01*
X153774000Y-81752000D02*
X165712000Y-81752000D01*
X150472000Y-85054000D02*
X153774000Y-81752000D01*
X130152000Y-80990000D02*
X144884000Y-80990000D01*
X148948000Y-85054000D02*
X150472000Y-85054000D01*
X128120000Y-83022000D02*
X130152000Y-80990000D01*
X144884000Y-80990000D02*
X148948000Y-85054000D01*
X128120000Y-83530000D02*
X128120000Y-83022000D01*
X165712000Y-81752000D02*
X167490000Y-83530000D01*
X128628000Y-65780000D02*
X121770000Y-65780000D01*
X129390000Y-65018000D02*
X128628000Y-65780000D01*
X142852000Y-66428000D02*
X139156000Y-62732000D01*
X121770000Y-65780000D02*
X120500000Y-64510000D01*
X145138000Y-73908000D02*
X148186000Y-70860000D01*
X148186000Y-70860000D02*
X166220000Y-70860000D01*
X130406000Y-62732000D02*
X129390000Y-63748000D01*
X139156000Y-62732000D02*
X130406000Y-62732000D01*
X142852000Y-73400000D02*
X143360000Y-73908000D01*
X166220000Y-70860000D02*
X167490000Y-72130000D01*
X142852000Y-72130000D02*
X142852000Y-73400000D01*
X143360000Y-73908000D02*
X145138000Y-73908000D01*
X129390000Y-63748000D02*
X129390000Y-65018000D01*
X130630763Y-70506500D02*
X131107889Y-70506500D01*
X131107889Y-70506500D02*
X131900763Y-71299374D01*
X140155763Y-73211000D02*
X140155763Y-71687000D01*
X140155763Y-71687000D02*
X141044763Y-70798000D01*
X146808038Y-70000000D02*
X144603038Y-72205000D01*
X143330763Y-70798000D02*
X144600763Y-72068000D01*
X170338038Y-70000000D02*
X146808038Y-70000000D01*
X139266763Y-74100000D02*
X140155763Y-73211000D01*
X131900763Y-71299374D02*
X131900763Y-73084000D01*
X141044763Y-70798000D02*
X143330763Y-70798000D01*
X131900763Y-73084000D02*
X132916763Y-74100000D01*
X132916763Y-74100000D02*
X139266763Y-74100000D01*
X172543038Y-72205000D02*
X170338038Y-70000000D01*
X153165006Y-67324000D02*
X154689006Y-65800000D01*
X147323006Y-67324000D02*
X153165006Y-67324000D01*
X171199006Y-65800000D02*
X172469006Y-64530000D01*
X144529006Y-64530000D02*
X147323006Y-67324000D01*
X154689006Y-65800000D02*
X171199006Y-65800000D01*
X165674813Y-62738000D02*
X167452813Y-64516000D01*
X150434813Y-66040000D02*
X153736813Y-62738000D01*
X128082813Y-64516000D02*
X128082813Y-64008000D01*
X148910813Y-66040000D02*
X150434813Y-66040000D01*
X144846813Y-61976000D02*
X148910813Y-66040000D01*
X130114813Y-61976000D02*
X144846813Y-61976000D01*
X153736813Y-62738000D02*
X165674813Y-62738000D01*
X128082813Y-64008000D02*
X130114813Y-61976000D01*
X172570000Y-85308000D02*
X170942500Y-86935500D01*
X170942500Y-86935500D02*
X170942500Y-87340000D01*
X187302000Y-82580000D02*
X184937500Y-82580000D01*
X175618000Y-79720000D02*
X144630000Y-79720000D01*
X180190000Y-83530000D02*
X176380000Y-79720000D01*
X144630000Y-79720000D02*
X131572500Y-79720000D01*
X176380000Y-79720000D02*
X175618000Y-79720000D01*
X131572500Y-79720000D02*
X130302500Y-78450000D01*
X183062500Y-83530000D02*
X180190000Y-83530000D01*
X179174000Y-88356000D02*
X179174000Y-91150000D01*
X180124000Y-92100000D02*
X180256000Y-92100000D01*
X178158000Y-87340000D02*
X179174000Y-88356000D01*
X176022500Y-87340000D02*
X178158000Y-87340000D01*
X179174000Y-91150000D02*
X180124000Y-92100000D01*
X180256000Y-92100000D02*
X183062500Y-92100000D01*
X184937500Y-63530000D02*
X187170000Y-63530000D01*
X172600000Y-66632500D02*
X170942500Y-68290000D01*
X187140000Y-63500000D02*
X187100000Y-63500000D01*
X187170000Y-63530000D02*
X187140000Y-63500000D01*
X172600000Y-66600000D02*
X172600000Y-66632500D01*
X180172211Y-64516000D02*
X176362211Y-60706000D01*
X175600211Y-60706000D02*
X144612211Y-60706000D01*
X183044711Y-64516000D02*
X180172211Y-64516000D01*
X131554711Y-60706000D02*
X130284711Y-59436000D01*
X176362211Y-60706000D02*
X175600211Y-60706000D01*
X144612211Y-60706000D02*
X131554711Y-60706000D01*
X176015552Y-68284000D02*
X178151052Y-68284000D01*
X178151052Y-68284000D02*
X179167052Y-69300000D01*
X180117052Y-73044000D02*
X180249052Y-73044000D01*
X180249052Y-73044000D02*
X183055552Y-73044000D01*
X179167052Y-72094000D02*
X180117052Y-73044000D01*
X179167052Y-69300000D02*
X179167052Y-72094000D01*
X192382000Y-89118000D02*
X194414000Y-89118000D01*
X191635000Y-91140000D02*
X191635000Y-89865000D01*
X191635000Y-89865000D02*
X192382000Y-89118000D01*
X194414000Y-89118000D02*
X195160000Y-88372000D01*
X195160000Y-88372000D02*
X195160000Y-87340000D01*
X195130205Y-69354000D02*
X195130205Y-68322000D01*
X191605205Y-70847000D02*
X192352205Y-70100000D01*
X192352205Y-70100000D02*
X194384205Y-70100000D01*
X191605205Y-72122000D02*
X191605205Y-70847000D01*
X194384205Y-70100000D02*
X195130205Y-69354000D01*
X181276000Y-95504000D02*
X115212500Y-95504000D01*
X184937500Y-91150000D02*
X187302000Y-91150000D01*
X184937500Y-91842500D02*
X181276000Y-95504000D01*
X160410000Y-87340000D02*
X162410000Y-87340000D01*
X184937500Y-91150000D02*
X184937500Y-91842500D01*
X184937500Y-72584251D02*
X184937500Y-72100000D01*
X122232000Y-75126000D02*
X182395751Y-75126000D01*
X119017500Y-75946000D02*
X118232500Y-76731000D01*
X121412000Y-75946000D02*
X122232000Y-75126000D01*
X187086500Y-72100000D02*
X187100000Y-72113500D01*
X160525000Y-68300000D02*
X162400000Y-68300000D01*
X184937500Y-72100000D02*
X187086500Y-72100000D01*
X119634000Y-75946000D02*
X119017500Y-75946000D01*
X182395751Y-75126000D02*
X184937500Y-72584251D01*
M02*
