%TF.GenerationSoftware,KiCad,Pcbnew,6.0.9+dfsg-1*%
%TF.CreationDate,2022-12-03T23:10:22+00:00*%
%TF.ProjectId,Token_Ring_MAU,546f6b65-6e5f-4526-996e-675f4d41552e,rev?*%
%TF.SameCoordinates,Original*%
%TF.FileFunction,Copper,L3,Inr*%
%TF.FilePolarity,Positive*%
%FSLAX46Y46*%
G04 Gerber Fmt 4.6, Leading zero omitted, Abs format (unit mm)*
G04 Created by KiCad (PCBNEW 6.0.9+dfsg-1) date 2022-12-03 23:10:22*
%MOMM*%
%LPD*%
G01*
G04 APERTURE LIST*
%TA.AperFunction,ComponentPad*%
%ADD10C,1.524000*%
%TD*%
%TA.AperFunction,ComponentPad*%
%ADD11R,2.000000X4.000000*%
%TD*%
%TA.AperFunction,ComponentPad*%
%ADD12O,2.000000X3.300000*%
%TD*%
%TA.AperFunction,ComponentPad*%
%ADD13O,3.500000X2.000000*%
%TD*%
%TA.AperFunction,ComponentPad*%
%ADD14R,1.600000X1.600000*%
%TD*%
%TA.AperFunction,ComponentPad*%
%ADD15O,1.600000X1.600000*%
%TD*%
%TA.AperFunction,ComponentPad*%
%ADD16C,5.600000*%
%TD*%
%TA.AperFunction,ComponentPad*%
%ADD17R,1.700000X1.700000*%
%TD*%
%TA.AperFunction,ComponentPad*%
%ADD18O,1.700000X1.700000*%
%TD*%
%TA.AperFunction,ComponentPad*%
%ADD19R,1.500000X1.500000*%
%TD*%
%TA.AperFunction,ComponentPad*%
%ADD20C,1.500000*%
%TD*%
%TA.AperFunction,ComponentPad*%
%ADD21C,2.300000*%
%TD*%
%TA.AperFunction,ViaPad*%
%ADD22C,0.800000*%
%TD*%
G04 APERTURE END LIST*
D10*
X162410000Y-91150000D03*
X167490000Y-91150000D03*
X154790000Y-91150000D03*
X172570000Y-91150000D03*
X149710000Y-91150000D03*
X177650000Y-91150000D03*
X144630000Y-91150000D03*
X144630000Y-83530000D03*
X177650000Y-83530000D03*
X149710000Y-83530000D03*
X172570000Y-83530000D03*
X154790000Y-83530000D03*
X167490000Y-83530000D03*
X162410000Y-83530000D03*
D11*
X110887000Y-103909000D03*
D12*
X104887000Y-103909000D03*
D13*
X103887000Y-108409000D03*
X103887000Y-99409000D03*
D14*
X191635000Y-91140000D03*
D15*
X194175000Y-91140000D03*
X196715000Y-91140000D03*
X196715000Y-83520000D03*
X194175000Y-83520000D03*
X191635000Y-83520000D03*
D10*
X120500000Y-72100000D03*
X123040000Y-72100000D03*
X125580000Y-72100000D03*
X128120000Y-72100000D03*
X130660000Y-72100000D03*
X133200000Y-72100000D03*
X135740000Y-72100000D03*
X138280000Y-72100000D03*
X138280000Y-64480000D03*
X135740000Y-64480000D03*
X133200000Y-64480000D03*
X130660000Y-64480000D03*
X128120000Y-64480000D03*
X125580000Y-64480000D03*
X123040000Y-64480000D03*
X120500000Y-64480000D03*
D16*
X194400000Y-114400000D03*
D14*
X191635000Y-72090000D03*
D15*
X194175000Y-72090000D03*
X196715000Y-72090000D03*
X196715000Y-64470000D03*
X194175000Y-64470000D03*
X191635000Y-64470000D03*
D10*
X120500000Y-91150000D03*
X123040000Y-91150000D03*
X125580000Y-91150000D03*
X128120000Y-91150000D03*
X130660000Y-91150000D03*
X133200000Y-91150000D03*
X135740000Y-91150000D03*
X138280000Y-91150000D03*
X138280000Y-83530000D03*
X135740000Y-83530000D03*
X133200000Y-83530000D03*
X130660000Y-83530000D03*
X128120000Y-83530000D03*
X125580000Y-83530000D03*
X123040000Y-83530000D03*
X120500000Y-83530000D03*
D17*
X144780000Y-106000000D03*
D18*
X144780000Y-103460000D03*
X147320000Y-106000000D03*
X147320000Y-103460000D03*
D19*
X106782000Y-89177000D03*
D20*
X108562000Y-88161000D03*
X106782000Y-87145000D03*
X108562000Y-86129000D03*
X106782000Y-85113000D03*
X108562000Y-84097000D03*
X106782000Y-83081000D03*
X108562000Y-82065000D03*
X113382000Y-92477000D03*
X113382000Y-90187000D03*
X113382000Y-81047000D03*
X113382000Y-78757000D03*
X106782000Y-73427000D03*
X108562000Y-72411000D03*
X106782000Y-71395000D03*
X108562000Y-70379000D03*
X106782000Y-69363000D03*
X108562000Y-68347000D03*
X106782000Y-67331000D03*
X108562000Y-66315000D03*
X113382000Y-76727000D03*
X113382000Y-74437000D03*
X113382000Y-65297000D03*
X113382000Y-63007000D03*
D21*
X107672000Y-61747000D03*
X107672000Y-93747000D03*
D16*
X194400000Y-55600000D03*
X105600000Y-114400000D03*
D10*
X162410000Y-72100000D03*
X167490000Y-72100000D03*
X154790000Y-72100000D03*
X172570000Y-72100000D03*
X149710000Y-72100000D03*
X177650000Y-72100000D03*
X144630000Y-72100000D03*
X144630000Y-64480000D03*
X177650000Y-64480000D03*
X149710000Y-64480000D03*
X172570000Y-64480000D03*
X154790000Y-64480000D03*
X167490000Y-64480000D03*
X162410000Y-64480000D03*
D17*
X116581000Y-106000000D03*
D18*
X116581000Y-103460000D03*
X119121000Y-106000000D03*
X119121000Y-103460000D03*
D16*
X105600000Y-55600000D03*
D22*
X149820000Y-94380000D03*
X101092000Y-87653000D03*
X132560000Y-87340000D03*
X132510000Y-68290000D03*
X187302000Y-84480000D03*
X187195833Y-65430000D03*
X101069000Y-83081000D03*
X144600000Y-76300000D03*
X101092000Y-72413000D03*
X101092000Y-73937000D03*
X101092000Y-66317000D03*
X101092000Y-67841000D03*
X180256000Y-90200000D03*
X101069000Y-89177000D03*
X101069000Y-81557000D03*
X180230000Y-71150000D03*
X116500000Y-79300000D03*
X144600000Y-57300000D03*
X116000000Y-63000000D03*
X128200000Y-107400000D03*
X130000000Y-107400000D03*
X129100000Y-107400000D03*
X156700000Y-68300000D03*
X156650000Y-87350000D03*
X129000000Y-98000000D03*
X154790000Y-87340000D03*
X144630000Y-78450000D03*
X167490000Y-87340000D03*
X172570000Y-87340000D03*
X154720074Y-68420074D03*
X144630000Y-59436000D03*
X167500000Y-68300000D03*
X172600000Y-68300000D03*
X110767000Y-87145000D03*
X112274234Y-86112234D03*
X112291000Y-85090000D03*
X110721000Y-84097000D03*
X110744000Y-71374000D03*
X112268000Y-70358000D03*
X112268000Y-69342000D03*
X110744000Y-68326000D03*
X142852000Y-91150000D03*
X142852000Y-85448000D03*
X130660000Y-89588500D03*
X142852000Y-72130000D03*
X142852000Y-66428000D03*
X130630763Y-70506500D03*
X172570000Y-85308000D03*
X187302000Y-82580000D03*
X172600000Y-66600000D03*
X187100000Y-63500000D03*
X187302000Y-91150000D03*
X162410000Y-87340000D03*
X121412000Y-75946000D03*
X187100000Y-72113500D03*
X119634000Y-75946000D03*
X162400000Y-68300000D03*
%TA.AperFunction,Conductor*%
G36*
X194370018Y-50510000D02*
G01*
X194384851Y-50512310D01*
X194384855Y-50512310D01*
X194393724Y-50513691D01*
X194414664Y-50510953D01*
X194436202Y-50509997D01*
X194609918Y-50517182D01*
X194815247Y-50525675D01*
X194825625Y-50526535D01*
X195079567Y-50558188D01*
X195232864Y-50577297D01*
X195243124Y-50579009D01*
X195500233Y-50632919D01*
X195644785Y-50663229D01*
X195654879Y-50665785D01*
X195846235Y-50722754D01*
X196048217Y-50782886D01*
X196058047Y-50786261D01*
X196440390Y-50935451D01*
X196449915Y-50939629D01*
X196474148Y-50951476D01*
X196818598Y-51119867D01*
X196827757Y-51124823D01*
X197180312Y-51334901D01*
X197189030Y-51340597D01*
X197523020Y-51579061D01*
X197531238Y-51585457D01*
X197844413Y-51850703D01*
X197852074Y-51857757D01*
X198142243Y-52147926D01*
X198149297Y-52155587D01*
X198414543Y-52468762D01*
X198420939Y-52476980D01*
X198659403Y-52810970D01*
X198665099Y-52819688D01*
X198875177Y-53172243D01*
X198880133Y-53181402D01*
X198987794Y-53401627D01*
X199000597Y-53456944D01*
X199009415Y-104571071D01*
X199009956Y-107707829D01*
X198989966Y-107775953D01*
X198973094Y-107796903D01*
X198846873Y-107923235D01*
X198784578Y-107957286D01*
X198757833Y-107960177D01*
X169300289Y-107980845D01*
X142252217Y-107999823D01*
X142184083Y-107979869D01*
X142163065Y-107962950D01*
X142036936Y-107836910D01*
X142002889Y-107774610D01*
X142000000Y-107747783D01*
X142000000Y-103426695D01*
X143417251Y-103426695D01*
X143417548Y-103431848D01*
X143417548Y-103431851D01*
X143423011Y-103526590D01*
X143430110Y-103649715D01*
X143431247Y-103654761D01*
X143431248Y-103654767D01*
X143451119Y-103742939D01*
X143479222Y-103867639D01*
X143563266Y-104074616D01*
X143614019Y-104157438D01*
X143677291Y-104260688D01*
X143679987Y-104265088D01*
X143826250Y-104433938D01*
X143830230Y-104437242D01*
X143834981Y-104441187D01*
X143874616Y-104500090D01*
X143876113Y-104571071D01*
X143838997Y-104631593D01*
X143798724Y-104656112D01*
X143683295Y-104699385D01*
X143566739Y-104786739D01*
X143479385Y-104903295D01*
X143428255Y-105039684D01*
X143421500Y-105101866D01*
X143421500Y-106898134D01*
X143428255Y-106960316D01*
X143479385Y-107096705D01*
X143566739Y-107213261D01*
X143683295Y-107300615D01*
X143819684Y-107351745D01*
X143881866Y-107358500D01*
X145678134Y-107358500D01*
X145740316Y-107351745D01*
X145876705Y-107300615D01*
X145993261Y-107213261D01*
X146080615Y-107096705D01*
X146131745Y-106960316D01*
X146138500Y-106898134D01*
X146138500Y-105101866D01*
X146131745Y-105039684D01*
X146080615Y-104903295D01*
X145993261Y-104786739D01*
X145876705Y-104699385D01*
X145842951Y-104686731D01*
X145758203Y-104654960D01*
X145701439Y-104612318D01*
X145676739Y-104545756D01*
X145691947Y-104476408D01*
X145713493Y-104447727D01*
X145814435Y-104347137D01*
X145818096Y-104343489D01*
X145877594Y-104260689D01*
X145948453Y-104162077D01*
X145949776Y-104163028D01*
X145996645Y-104119857D01*
X146066580Y-104107625D01*
X146132026Y-104135144D01*
X146159875Y-104166994D01*
X146219987Y-104265088D01*
X146366250Y-104433938D01*
X146538126Y-104576632D01*
X146731000Y-104689338D01*
X146939692Y-104769030D01*
X146944760Y-104770061D01*
X146944763Y-104770062D01*
X147026734Y-104786739D01*
X147158597Y-104813567D01*
X147163772Y-104813757D01*
X147163774Y-104813757D01*
X147376673Y-104821564D01*
X147376677Y-104821564D01*
X147381837Y-104821753D01*
X147386957Y-104821097D01*
X147386959Y-104821097D01*
X147598288Y-104794025D01*
X147598289Y-104794025D01*
X147603416Y-104793368D01*
X147608366Y-104791883D01*
X147812429Y-104730661D01*
X147812434Y-104730659D01*
X147817384Y-104729174D01*
X148017994Y-104630896D01*
X148199860Y-104501173D01*
X148358096Y-104343489D01*
X148417594Y-104260689D01*
X148485435Y-104166277D01*
X148488453Y-104162077D01*
X148509320Y-104119857D01*
X148585136Y-103966453D01*
X148585137Y-103966451D01*
X148587430Y-103961811D01*
X148652370Y-103748069D01*
X148681529Y-103526590D01*
X148683156Y-103460000D01*
X148664852Y-103237361D01*
X148610431Y-103020702D01*
X148521354Y-102815840D01*
X148400014Y-102628277D01*
X148249670Y-102463051D01*
X148245619Y-102459852D01*
X148245615Y-102459848D01*
X148078414Y-102327800D01*
X148078410Y-102327798D01*
X148074359Y-102324598D01*
X147878789Y-102216638D01*
X147873920Y-102214914D01*
X147873916Y-102214912D01*
X147673087Y-102143795D01*
X147673083Y-102143794D01*
X147668212Y-102142069D01*
X147663119Y-102141162D01*
X147663116Y-102141161D01*
X147453373Y-102103800D01*
X147453367Y-102103799D01*
X147448284Y-102102894D01*
X147374452Y-102101992D01*
X147230081Y-102100228D01*
X147230079Y-102100228D01*
X147224911Y-102100165D01*
X147004091Y-102133955D01*
X146791756Y-102203357D01*
X146593607Y-102306507D01*
X146589474Y-102309610D01*
X146589471Y-102309612D01*
X146565247Y-102327800D01*
X146414965Y-102440635D01*
X146260629Y-102602138D01*
X146153201Y-102759621D01*
X146098293Y-102804621D01*
X146027768Y-102812792D01*
X145964021Y-102781538D01*
X145943324Y-102757054D01*
X145862822Y-102632617D01*
X145862820Y-102632614D01*
X145860014Y-102628277D01*
X145709670Y-102463051D01*
X145705619Y-102459852D01*
X145705615Y-102459848D01*
X145538414Y-102327800D01*
X145538410Y-102327798D01*
X145534359Y-102324598D01*
X145338789Y-102216638D01*
X145333920Y-102214914D01*
X145333916Y-102214912D01*
X145133087Y-102143795D01*
X145133083Y-102143794D01*
X145128212Y-102142069D01*
X145123119Y-102141162D01*
X145123116Y-102141161D01*
X144913373Y-102103800D01*
X144913367Y-102103799D01*
X144908284Y-102102894D01*
X144834452Y-102101992D01*
X144690081Y-102100228D01*
X144690079Y-102100228D01*
X144684911Y-102100165D01*
X144464091Y-102133955D01*
X144251756Y-102203357D01*
X144053607Y-102306507D01*
X144049474Y-102309610D01*
X144049471Y-102309612D01*
X144025247Y-102327800D01*
X143874965Y-102440635D01*
X143720629Y-102602138D01*
X143594743Y-102786680D01*
X143500688Y-102989305D01*
X143440989Y-103204570D01*
X143417251Y-103426695D01*
X142000000Y-103426695D01*
X142000000Y-101252190D01*
X142020002Y-101184069D01*
X142036905Y-101163095D01*
X142163095Y-101036905D01*
X142225407Y-101002879D01*
X142252190Y-101000000D01*
X189800000Y-101000000D01*
X190000000Y-100800000D01*
X190000000Y-91988134D01*
X190326500Y-91988134D01*
X190333255Y-92050316D01*
X190384385Y-92186705D01*
X190471739Y-92303261D01*
X190588295Y-92390615D01*
X190724684Y-92441745D01*
X190786866Y-92448500D01*
X192483134Y-92448500D01*
X192545316Y-92441745D01*
X192681705Y-92390615D01*
X192798261Y-92303261D01*
X192885615Y-92186705D01*
X192936745Y-92050316D01*
X192937917Y-92039526D01*
X192938803Y-92037394D01*
X192939425Y-92034778D01*
X192939848Y-92034879D01*
X192965155Y-91973965D01*
X193023517Y-91933537D01*
X193094471Y-91931078D01*
X193155490Y-91967371D01*
X193162489Y-91976031D01*
X193165643Y-91979789D01*
X193168802Y-91984300D01*
X193330700Y-92146198D01*
X193335208Y-92149355D01*
X193335211Y-92149357D01*
X193376542Y-92178297D01*
X193518251Y-92277523D01*
X193523233Y-92279846D01*
X193523238Y-92279849D01*
X193720775Y-92371961D01*
X193725757Y-92374284D01*
X193731065Y-92375706D01*
X193731067Y-92375707D01*
X193941598Y-92432119D01*
X193941600Y-92432119D01*
X193946913Y-92433543D01*
X194175000Y-92453498D01*
X194403087Y-92433543D01*
X194408400Y-92432119D01*
X194408402Y-92432119D01*
X194618933Y-92375707D01*
X194618935Y-92375706D01*
X194624243Y-92374284D01*
X194629225Y-92371961D01*
X194826762Y-92279849D01*
X194826767Y-92279846D01*
X194831749Y-92277523D01*
X194973458Y-92178297D01*
X195014789Y-92149357D01*
X195014792Y-92149355D01*
X195019300Y-92146198D01*
X195181198Y-91984300D01*
X195191365Y-91969781D01*
X195309366Y-91801257D01*
X195312523Y-91796749D01*
X195314846Y-91791767D01*
X195314849Y-91791762D01*
X195330805Y-91757543D01*
X195377722Y-91704258D01*
X195445999Y-91684797D01*
X195513959Y-91705339D01*
X195559195Y-91757543D01*
X195575151Y-91791762D01*
X195575154Y-91791767D01*
X195577477Y-91796749D01*
X195580634Y-91801257D01*
X195698636Y-91969781D01*
X195708802Y-91984300D01*
X195870700Y-92146198D01*
X195875208Y-92149355D01*
X195875211Y-92149357D01*
X195916542Y-92178297D01*
X196058251Y-92277523D01*
X196063233Y-92279846D01*
X196063238Y-92279849D01*
X196260775Y-92371961D01*
X196265757Y-92374284D01*
X196271065Y-92375706D01*
X196271067Y-92375707D01*
X196481598Y-92432119D01*
X196481600Y-92432119D01*
X196486913Y-92433543D01*
X196715000Y-92453498D01*
X196943087Y-92433543D01*
X196948400Y-92432119D01*
X196948402Y-92432119D01*
X197158933Y-92375707D01*
X197158935Y-92375706D01*
X197164243Y-92374284D01*
X197169225Y-92371961D01*
X197366762Y-92279849D01*
X197366767Y-92279846D01*
X197371749Y-92277523D01*
X197513458Y-92178297D01*
X197554789Y-92149357D01*
X197554792Y-92149355D01*
X197559300Y-92146198D01*
X197721198Y-91984300D01*
X197731365Y-91969781D01*
X197849366Y-91801257D01*
X197852523Y-91796749D01*
X197854846Y-91791767D01*
X197854849Y-91791762D01*
X197946961Y-91594225D01*
X197946961Y-91594224D01*
X197949284Y-91589243D01*
X198008543Y-91368087D01*
X198028498Y-91140000D01*
X198008543Y-90911913D01*
X197961660Y-90736944D01*
X197950707Y-90696067D01*
X197950706Y-90696065D01*
X197949284Y-90690757D01*
X197866080Y-90512324D01*
X197854849Y-90488238D01*
X197854846Y-90488233D01*
X197852523Y-90483251D01*
X197721198Y-90295700D01*
X197559300Y-90133802D01*
X197554792Y-90130645D01*
X197554789Y-90130643D01*
X197433209Y-90045512D01*
X197371749Y-90002477D01*
X197366767Y-90000154D01*
X197366762Y-90000151D01*
X197169225Y-89908039D01*
X197169224Y-89908039D01*
X197164243Y-89905716D01*
X197158935Y-89904294D01*
X197158933Y-89904293D01*
X196948402Y-89847881D01*
X196948400Y-89847881D01*
X196943087Y-89846457D01*
X196715000Y-89826502D01*
X196486913Y-89846457D01*
X196481600Y-89847881D01*
X196481598Y-89847881D01*
X196271067Y-89904293D01*
X196271065Y-89904294D01*
X196265757Y-89905716D01*
X196260776Y-89908039D01*
X196260775Y-89908039D01*
X196063238Y-90000151D01*
X196063233Y-90000154D01*
X196058251Y-90002477D01*
X195996791Y-90045512D01*
X195875211Y-90130643D01*
X195875208Y-90130645D01*
X195870700Y-90133802D01*
X195708802Y-90295700D01*
X195577477Y-90483251D01*
X195575154Y-90488233D01*
X195575151Y-90488238D01*
X195559195Y-90522457D01*
X195512278Y-90575742D01*
X195444001Y-90595203D01*
X195376041Y-90574661D01*
X195330805Y-90522457D01*
X195314849Y-90488238D01*
X195314846Y-90488233D01*
X195312523Y-90483251D01*
X195181198Y-90295700D01*
X195019300Y-90133802D01*
X195014792Y-90130645D01*
X195014789Y-90130643D01*
X194893209Y-90045512D01*
X194831749Y-90002477D01*
X194826767Y-90000154D01*
X194826762Y-90000151D01*
X194629225Y-89908039D01*
X194629224Y-89908039D01*
X194624243Y-89905716D01*
X194618935Y-89904294D01*
X194618933Y-89904293D01*
X194408402Y-89847881D01*
X194408400Y-89847881D01*
X194403087Y-89846457D01*
X194175000Y-89826502D01*
X193946913Y-89846457D01*
X193941600Y-89847881D01*
X193941598Y-89847881D01*
X193731067Y-89904293D01*
X193731065Y-89904294D01*
X193725757Y-89905716D01*
X193720776Y-89908039D01*
X193720775Y-89908039D01*
X193523238Y-90000151D01*
X193523233Y-90000154D01*
X193518251Y-90002477D01*
X193456791Y-90045512D01*
X193335211Y-90130643D01*
X193335208Y-90130645D01*
X193330700Y-90133802D01*
X193168802Y-90295700D01*
X193165643Y-90300211D01*
X193162108Y-90304424D01*
X193160974Y-90303473D01*
X193110929Y-90343471D01*
X193040310Y-90350776D01*
X192976951Y-90318742D01*
X192940970Y-90257538D01*
X192937918Y-90240483D01*
X192936745Y-90229684D01*
X192885615Y-90093295D01*
X192798261Y-89976739D01*
X192681705Y-89889385D01*
X192545316Y-89838255D01*
X192483134Y-89831500D01*
X190786866Y-89831500D01*
X190724684Y-89838255D01*
X190588295Y-89889385D01*
X190471739Y-89976739D01*
X190384385Y-90093295D01*
X190333255Y-90229684D01*
X190326500Y-90291866D01*
X190326500Y-91988134D01*
X190000000Y-91988134D01*
X190000000Y-83520000D01*
X190321502Y-83520000D01*
X190341457Y-83748087D01*
X190400716Y-83969243D01*
X190403039Y-83974224D01*
X190403039Y-83974225D01*
X190495151Y-84171762D01*
X190495154Y-84171767D01*
X190497477Y-84176749D01*
X190500634Y-84181257D01*
X190618636Y-84349781D01*
X190628802Y-84364300D01*
X190790700Y-84526198D01*
X190795208Y-84529355D01*
X190795211Y-84529357D01*
X190809697Y-84539500D01*
X190978251Y-84657523D01*
X190983233Y-84659846D01*
X190983238Y-84659849D01*
X191180775Y-84751961D01*
X191185757Y-84754284D01*
X191191065Y-84755706D01*
X191191067Y-84755707D01*
X191401598Y-84812119D01*
X191401600Y-84812119D01*
X191406913Y-84813543D01*
X191635000Y-84833498D01*
X191863087Y-84813543D01*
X191868400Y-84812119D01*
X191868402Y-84812119D01*
X192078933Y-84755707D01*
X192078935Y-84755706D01*
X192084243Y-84754284D01*
X192089225Y-84751961D01*
X192286762Y-84659849D01*
X192286767Y-84659846D01*
X192291749Y-84657523D01*
X192460303Y-84539500D01*
X192474789Y-84529357D01*
X192474792Y-84529355D01*
X192479300Y-84526198D01*
X192641198Y-84364300D01*
X192651365Y-84349781D01*
X192769366Y-84181257D01*
X192772523Y-84176749D01*
X192774846Y-84171767D01*
X192774849Y-84171762D01*
X192866961Y-83974225D01*
X192866961Y-83974224D01*
X192869284Y-83969243D01*
X192928543Y-83748087D01*
X192948498Y-83520000D01*
X195401502Y-83520000D01*
X195421457Y-83748087D01*
X195480716Y-83969243D01*
X195483039Y-83974224D01*
X195483039Y-83974225D01*
X195575151Y-84171762D01*
X195575154Y-84171767D01*
X195577477Y-84176749D01*
X195580634Y-84181257D01*
X195698636Y-84349781D01*
X195708802Y-84364300D01*
X195870700Y-84526198D01*
X195875208Y-84529355D01*
X195875211Y-84529357D01*
X195889697Y-84539500D01*
X196058251Y-84657523D01*
X196063233Y-84659846D01*
X196063238Y-84659849D01*
X196260775Y-84751961D01*
X196265757Y-84754284D01*
X196271065Y-84755706D01*
X196271067Y-84755707D01*
X196481598Y-84812119D01*
X196481600Y-84812119D01*
X196486913Y-84813543D01*
X196715000Y-84833498D01*
X196943087Y-84813543D01*
X196948400Y-84812119D01*
X196948402Y-84812119D01*
X197158933Y-84755707D01*
X197158935Y-84755706D01*
X197164243Y-84754284D01*
X197169225Y-84751961D01*
X197366762Y-84659849D01*
X197366767Y-84659846D01*
X197371749Y-84657523D01*
X197540303Y-84539500D01*
X197554789Y-84529357D01*
X197554792Y-84529355D01*
X197559300Y-84526198D01*
X197721198Y-84364300D01*
X197731365Y-84349781D01*
X197849366Y-84181257D01*
X197852523Y-84176749D01*
X197854846Y-84171767D01*
X197854849Y-84171762D01*
X197946961Y-83974225D01*
X197946961Y-83974224D01*
X197949284Y-83969243D01*
X198008543Y-83748087D01*
X198028498Y-83520000D01*
X198008543Y-83291913D01*
X197961660Y-83116944D01*
X197950707Y-83076067D01*
X197950706Y-83076065D01*
X197949284Y-83070757D01*
X197866080Y-82892324D01*
X197854849Y-82868238D01*
X197854846Y-82868233D01*
X197852523Y-82863251D01*
X197721198Y-82675700D01*
X197559300Y-82513802D01*
X197554792Y-82510645D01*
X197554789Y-82510643D01*
X197433209Y-82425512D01*
X197371749Y-82382477D01*
X197366767Y-82380154D01*
X197366762Y-82380151D01*
X197169225Y-82288039D01*
X197169224Y-82288039D01*
X197164243Y-82285716D01*
X197158935Y-82284294D01*
X197158933Y-82284293D01*
X196948402Y-82227881D01*
X196948400Y-82227881D01*
X196943087Y-82226457D01*
X196715000Y-82206502D01*
X196486913Y-82226457D01*
X196481600Y-82227881D01*
X196481598Y-82227881D01*
X196271067Y-82284293D01*
X196271065Y-82284294D01*
X196265757Y-82285716D01*
X196260776Y-82288039D01*
X196260775Y-82288039D01*
X196063238Y-82380151D01*
X196063233Y-82380154D01*
X196058251Y-82382477D01*
X195996791Y-82425512D01*
X195875211Y-82510643D01*
X195875208Y-82510645D01*
X195870700Y-82513802D01*
X195708802Y-82675700D01*
X195577477Y-82863251D01*
X195575154Y-82868233D01*
X195575151Y-82868238D01*
X195563920Y-82892324D01*
X195480716Y-83070757D01*
X195479294Y-83076065D01*
X195479293Y-83076067D01*
X195468340Y-83116944D01*
X195421457Y-83291913D01*
X195401502Y-83520000D01*
X192948498Y-83520000D01*
X192928543Y-83291913D01*
X192881660Y-83116944D01*
X192870707Y-83076067D01*
X192870706Y-83076065D01*
X192869284Y-83070757D01*
X192786080Y-82892324D01*
X192774849Y-82868238D01*
X192774846Y-82868233D01*
X192772523Y-82863251D01*
X192641198Y-82675700D01*
X192479300Y-82513802D01*
X192474792Y-82510645D01*
X192474789Y-82510643D01*
X192353209Y-82425512D01*
X192291749Y-82382477D01*
X192286767Y-82380154D01*
X192286762Y-82380151D01*
X192089225Y-82288039D01*
X192089224Y-82288039D01*
X192084243Y-82285716D01*
X192078935Y-82284294D01*
X192078933Y-82284293D01*
X191868402Y-82227881D01*
X191868400Y-82227881D01*
X191863087Y-82226457D01*
X191635000Y-82206502D01*
X191406913Y-82226457D01*
X191401600Y-82227881D01*
X191401598Y-82227881D01*
X191191067Y-82284293D01*
X191191065Y-82284294D01*
X191185757Y-82285716D01*
X191180776Y-82288039D01*
X191180775Y-82288039D01*
X190983238Y-82380151D01*
X190983233Y-82380154D01*
X190978251Y-82382477D01*
X190916791Y-82425512D01*
X190795211Y-82510643D01*
X190795208Y-82510645D01*
X190790700Y-82513802D01*
X190628802Y-82675700D01*
X190497477Y-82863251D01*
X190495154Y-82868233D01*
X190495151Y-82868238D01*
X190483920Y-82892324D01*
X190400716Y-83070757D01*
X190399294Y-83076065D01*
X190399293Y-83076067D01*
X190388340Y-83116944D01*
X190341457Y-83291913D01*
X190321502Y-83520000D01*
X190000000Y-83520000D01*
X190000000Y-72938134D01*
X190326500Y-72938134D01*
X190333255Y-73000316D01*
X190384385Y-73136705D01*
X190471739Y-73253261D01*
X190588295Y-73340615D01*
X190724684Y-73391745D01*
X190786866Y-73398500D01*
X192483134Y-73398500D01*
X192545316Y-73391745D01*
X192681705Y-73340615D01*
X192798261Y-73253261D01*
X192885615Y-73136705D01*
X192936745Y-73000316D01*
X192937917Y-72989526D01*
X192938803Y-72987394D01*
X192939425Y-72984778D01*
X192939848Y-72984879D01*
X192965155Y-72923965D01*
X193023517Y-72883537D01*
X193094471Y-72881078D01*
X193155490Y-72917371D01*
X193162489Y-72926031D01*
X193165643Y-72929789D01*
X193168802Y-72934300D01*
X193330700Y-73096198D01*
X193335208Y-73099355D01*
X193335211Y-73099357D01*
X193376542Y-73128297D01*
X193518251Y-73227523D01*
X193523233Y-73229846D01*
X193523238Y-73229849D01*
X193720775Y-73321961D01*
X193725757Y-73324284D01*
X193731065Y-73325706D01*
X193731067Y-73325707D01*
X193941598Y-73382119D01*
X193941600Y-73382119D01*
X193946913Y-73383543D01*
X194175000Y-73403498D01*
X194403087Y-73383543D01*
X194408400Y-73382119D01*
X194408402Y-73382119D01*
X194618933Y-73325707D01*
X194618935Y-73325706D01*
X194624243Y-73324284D01*
X194629225Y-73321961D01*
X194826762Y-73229849D01*
X194826767Y-73229846D01*
X194831749Y-73227523D01*
X194973458Y-73128297D01*
X195014789Y-73099357D01*
X195014792Y-73099355D01*
X195019300Y-73096198D01*
X195181198Y-72934300D01*
X195191365Y-72919781D01*
X195269028Y-72808866D01*
X195312523Y-72746749D01*
X195314846Y-72741767D01*
X195314849Y-72741762D01*
X195330805Y-72707543D01*
X195377722Y-72654258D01*
X195445999Y-72634797D01*
X195513959Y-72655339D01*
X195559195Y-72707543D01*
X195575151Y-72741762D01*
X195575154Y-72741767D01*
X195577477Y-72746749D01*
X195620972Y-72808866D01*
X195698636Y-72919781D01*
X195708802Y-72934300D01*
X195870700Y-73096198D01*
X195875208Y-73099355D01*
X195875211Y-73099357D01*
X195916542Y-73128297D01*
X196058251Y-73227523D01*
X196063233Y-73229846D01*
X196063238Y-73229849D01*
X196260775Y-73321961D01*
X196265757Y-73324284D01*
X196271065Y-73325706D01*
X196271067Y-73325707D01*
X196481598Y-73382119D01*
X196481600Y-73382119D01*
X196486913Y-73383543D01*
X196715000Y-73403498D01*
X196943087Y-73383543D01*
X196948400Y-73382119D01*
X196948402Y-73382119D01*
X197158933Y-73325707D01*
X197158935Y-73325706D01*
X197164243Y-73324284D01*
X197169225Y-73321961D01*
X197366762Y-73229849D01*
X197366767Y-73229846D01*
X197371749Y-73227523D01*
X197513458Y-73128297D01*
X197554789Y-73099357D01*
X197554792Y-73099355D01*
X197559300Y-73096198D01*
X197721198Y-72934300D01*
X197731365Y-72919781D01*
X197809028Y-72808866D01*
X197852523Y-72746749D01*
X197854846Y-72741767D01*
X197854849Y-72741762D01*
X197946961Y-72544225D01*
X197946961Y-72544224D01*
X197949284Y-72539243D01*
X197963804Y-72485056D01*
X198007119Y-72323402D01*
X198007119Y-72323400D01*
X198008543Y-72318087D01*
X198028498Y-72090000D01*
X198008543Y-71861913D01*
X197985000Y-71774050D01*
X197950707Y-71646067D01*
X197950706Y-71646065D01*
X197949284Y-71640757D01*
X197893700Y-71521556D01*
X197854849Y-71438238D01*
X197854846Y-71438233D01*
X197852523Y-71433251D01*
X197737332Y-71268742D01*
X197724357Y-71250211D01*
X197724355Y-71250208D01*
X197721198Y-71245700D01*
X197559300Y-71083802D01*
X197554792Y-71080645D01*
X197554789Y-71080643D01*
X197433209Y-70995512D01*
X197371749Y-70952477D01*
X197366767Y-70950154D01*
X197366762Y-70950151D01*
X197169225Y-70858039D01*
X197169224Y-70858039D01*
X197164243Y-70855716D01*
X197158935Y-70854294D01*
X197158933Y-70854293D01*
X196948402Y-70797881D01*
X196948400Y-70797881D01*
X196943087Y-70796457D01*
X196715000Y-70776502D01*
X196486913Y-70796457D01*
X196481600Y-70797881D01*
X196481598Y-70797881D01*
X196271067Y-70854293D01*
X196271065Y-70854294D01*
X196265757Y-70855716D01*
X196260776Y-70858039D01*
X196260775Y-70858039D01*
X196063238Y-70950151D01*
X196063233Y-70950154D01*
X196058251Y-70952477D01*
X195996791Y-70995512D01*
X195875211Y-71080643D01*
X195875208Y-71080645D01*
X195870700Y-71083802D01*
X195708802Y-71245700D01*
X195705645Y-71250208D01*
X195705643Y-71250211D01*
X195692668Y-71268742D01*
X195577477Y-71433251D01*
X195575154Y-71438233D01*
X195575151Y-71438238D01*
X195559195Y-71472457D01*
X195512278Y-71525742D01*
X195444001Y-71545203D01*
X195376041Y-71524661D01*
X195330805Y-71472457D01*
X195314849Y-71438238D01*
X195314846Y-71438233D01*
X195312523Y-71433251D01*
X195197332Y-71268742D01*
X195184357Y-71250211D01*
X195184355Y-71250208D01*
X195181198Y-71245700D01*
X195019300Y-71083802D01*
X195014792Y-71080645D01*
X195014789Y-71080643D01*
X194893209Y-70995512D01*
X194831749Y-70952477D01*
X194826767Y-70950154D01*
X194826762Y-70950151D01*
X194629225Y-70858039D01*
X194629224Y-70858039D01*
X194624243Y-70855716D01*
X194618935Y-70854294D01*
X194618933Y-70854293D01*
X194408402Y-70797881D01*
X194408400Y-70797881D01*
X194403087Y-70796457D01*
X194175000Y-70776502D01*
X193946913Y-70796457D01*
X193941600Y-70797881D01*
X193941598Y-70797881D01*
X193731067Y-70854293D01*
X193731065Y-70854294D01*
X193725757Y-70855716D01*
X193720776Y-70858039D01*
X193720775Y-70858039D01*
X193523238Y-70950151D01*
X193523233Y-70950154D01*
X193518251Y-70952477D01*
X193456791Y-70995512D01*
X193335211Y-71080643D01*
X193335208Y-71080645D01*
X193330700Y-71083802D01*
X193168802Y-71245700D01*
X193165643Y-71250211D01*
X193162108Y-71254424D01*
X193160974Y-71253473D01*
X193110929Y-71293471D01*
X193040310Y-71300776D01*
X192976951Y-71268742D01*
X192940970Y-71207538D01*
X192937918Y-71190483D01*
X192936745Y-71179684D01*
X192885615Y-71043295D01*
X192798261Y-70926739D01*
X192681705Y-70839385D01*
X192545316Y-70788255D01*
X192483134Y-70781500D01*
X190786866Y-70781500D01*
X190724684Y-70788255D01*
X190588295Y-70839385D01*
X190471739Y-70926739D01*
X190384385Y-71043295D01*
X190333255Y-71179684D01*
X190326500Y-71241866D01*
X190326500Y-72938134D01*
X190000000Y-72938134D01*
X190000000Y-64470000D01*
X190321502Y-64470000D01*
X190341457Y-64698087D01*
X190400716Y-64919243D01*
X190403039Y-64924224D01*
X190403039Y-64924225D01*
X190495151Y-65121762D01*
X190495154Y-65121767D01*
X190497477Y-65126749D01*
X190500634Y-65131257D01*
X190618636Y-65299781D01*
X190628802Y-65314300D01*
X190790700Y-65476198D01*
X190795208Y-65479355D01*
X190795211Y-65479357D01*
X190852541Y-65519500D01*
X190978251Y-65607523D01*
X190983233Y-65609846D01*
X190983238Y-65609849D01*
X191180775Y-65701961D01*
X191185757Y-65704284D01*
X191191065Y-65705706D01*
X191191067Y-65705707D01*
X191401598Y-65762119D01*
X191401600Y-65762119D01*
X191406913Y-65763543D01*
X191635000Y-65783498D01*
X191863087Y-65763543D01*
X191868400Y-65762119D01*
X191868402Y-65762119D01*
X192078933Y-65705707D01*
X192078935Y-65705706D01*
X192084243Y-65704284D01*
X192089225Y-65701961D01*
X192286762Y-65609849D01*
X192286767Y-65609846D01*
X192291749Y-65607523D01*
X192417459Y-65519500D01*
X192474789Y-65479357D01*
X192474792Y-65479355D01*
X192479300Y-65476198D01*
X192641198Y-65314300D01*
X192651365Y-65299781D01*
X192769366Y-65131257D01*
X192772523Y-65126749D01*
X192774846Y-65121767D01*
X192774849Y-65121762D01*
X192866961Y-64924225D01*
X192866961Y-64924224D01*
X192869284Y-64919243D01*
X192928543Y-64698087D01*
X192948498Y-64470000D01*
X195401502Y-64470000D01*
X195421457Y-64698087D01*
X195480716Y-64919243D01*
X195483039Y-64924224D01*
X195483039Y-64924225D01*
X195575151Y-65121762D01*
X195575154Y-65121767D01*
X195577477Y-65126749D01*
X195580634Y-65131257D01*
X195698636Y-65299781D01*
X195708802Y-65314300D01*
X195870700Y-65476198D01*
X195875208Y-65479355D01*
X195875211Y-65479357D01*
X195932541Y-65519500D01*
X196058251Y-65607523D01*
X196063233Y-65609846D01*
X196063238Y-65609849D01*
X196260775Y-65701961D01*
X196265757Y-65704284D01*
X196271065Y-65705706D01*
X196271067Y-65705707D01*
X196481598Y-65762119D01*
X196481600Y-65762119D01*
X196486913Y-65763543D01*
X196715000Y-65783498D01*
X196943087Y-65763543D01*
X196948400Y-65762119D01*
X196948402Y-65762119D01*
X197158933Y-65705707D01*
X197158935Y-65705706D01*
X197164243Y-65704284D01*
X197169225Y-65701961D01*
X197366762Y-65609849D01*
X197366767Y-65609846D01*
X197371749Y-65607523D01*
X197497459Y-65519500D01*
X197554789Y-65479357D01*
X197554792Y-65479355D01*
X197559300Y-65476198D01*
X197721198Y-65314300D01*
X197731365Y-65299781D01*
X197849366Y-65131257D01*
X197852523Y-65126749D01*
X197854846Y-65121767D01*
X197854849Y-65121762D01*
X197946961Y-64924225D01*
X197946961Y-64924224D01*
X197949284Y-64919243D01*
X198008543Y-64698087D01*
X198028498Y-64470000D01*
X198008543Y-64241913D01*
X198007119Y-64236598D01*
X197950707Y-64026067D01*
X197950706Y-64026065D01*
X197949284Y-64020757D01*
X197866080Y-63842324D01*
X197854849Y-63818238D01*
X197854846Y-63818233D01*
X197852523Y-63813251D01*
X197721198Y-63625700D01*
X197559300Y-63463802D01*
X197554792Y-63460645D01*
X197554789Y-63460643D01*
X197433209Y-63375512D01*
X197371749Y-63332477D01*
X197366767Y-63330154D01*
X197366762Y-63330151D01*
X197169225Y-63238039D01*
X197169224Y-63238039D01*
X197164243Y-63235716D01*
X197158935Y-63234294D01*
X197158933Y-63234293D01*
X196948402Y-63177881D01*
X196948400Y-63177881D01*
X196943087Y-63176457D01*
X196715000Y-63156502D01*
X196486913Y-63176457D01*
X196481600Y-63177881D01*
X196481598Y-63177881D01*
X196271067Y-63234293D01*
X196271065Y-63234294D01*
X196265757Y-63235716D01*
X196260776Y-63238039D01*
X196260775Y-63238039D01*
X196063238Y-63330151D01*
X196063233Y-63330154D01*
X196058251Y-63332477D01*
X195996791Y-63375512D01*
X195875211Y-63460643D01*
X195875208Y-63460645D01*
X195870700Y-63463802D01*
X195708802Y-63625700D01*
X195577477Y-63813251D01*
X195575154Y-63818233D01*
X195575151Y-63818238D01*
X195563920Y-63842324D01*
X195480716Y-64020757D01*
X195479294Y-64026065D01*
X195479293Y-64026067D01*
X195422881Y-64236598D01*
X195421457Y-64241913D01*
X195401502Y-64470000D01*
X192948498Y-64470000D01*
X192928543Y-64241913D01*
X192927119Y-64236598D01*
X192870707Y-64026067D01*
X192870706Y-64026065D01*
X192869284Y-64020757D01*
X192786080Y-63842324D01*
X192774849Y-63818238D01*
X192774846Y-63818233D01*
X192772523Y-63813251D01*
X192641198Y-63625700D01*
X192479300Y-63463802D01*
X192474792Y-63460645D01*
X192474789Y-63460643D01*
X192353209Y-63375512D01*
X192291749Y-63332477D01*
X192286767Y-63330154D01*
X192286762Y-63330151D01*
X192089225Y-63238039D01*
X192089224Y-63238039D01*
X192084243Y-63235716D01*
X192078935Y-63234294D01*
X192078933Y-63234293D01*
X191868402Y-63177881D01*
X191868400Y-63177881D01*
X191863087Y-63176457D01*
X191635000Y-63156502D01*
X191406913Y-63176457D01*
X191401600Y-63177881D01*
X191401598Y-63177881D01*
X191191067Y-63234293D01*
X191191065Y-63234294D01*
X191185757Y-63235716D01*
X191180776Y-63238039D01*
X191180775Y-63238039D01*
X190983238Y-63330151D01*
X190983233Y-63330154D01*
X190978251Y-63332477D01*
X190916791Y-63375512D01*
X190795211Y-63460643D01*
X190795208Y-63460645D01*
X190790700Y-63463802D01*
X190628802Y-63625700D01*
X190497477Y-63813251D01*
X190495154Y-63818233D01*
X190495151Y-63818238D01*
X190483920Y-63842324D01*
X190400716Y-64020757D01*
X190399294Y-64026065D01*
X190399293Y-64026067D01*
X190342881Y-64236598D01*
X190341457Y-64241913D01*
X190321502Y-64470000D01*
X190000000Y-64470000D01*
X190000000Y-55588434D01*
X191086661Y-55588434D01*
X191104792Y-55946340D01*
X191105329Y-55949695D01*
X191105330Y-55949701D01*
X191130545Y-56107121D01*
X191161470Y-56300195D01*
X191256033Y-56645859D01*
X191387374Y-56979288D01*
X191553957Y-57296582D01*
X191555858Y-57299411D01*
X191555864Y-57299421D01*
X191739569Y-57572800D01*
X191753834Y-57594029D01*
X191984665Y-57868150D01*
X192243751Y-58115738D01*
X192528061Y-58333897D01*
X192560056Y-58353350D01*
X192831355Y-58518303D01*
X192831360Y-58518306D01*
X192834270Y-58520075D01*
X192837358Y-58521521D01*
X192837357Y-58521521D01*
X193155710Y-58670649D01*
X193155720Y-58670653D01*
X193158794Y-58672093D01*
X193162012Y-58673195D01*
X193162015Y-58673196D01*
X193494615Y-58787071D01*
X193494623Y-58787073D01*
X193497838Y-58788174D01*
X193847435Y-58866959D01*
X193899728Y-58872917D01*
X194200114Y-58907142D01*
X194200122Y-58907142D01*
X194203497Y-58907527D01*
X194206901Y-58907545D01*
X194206904Y-58907545D01*
X194401227Y-58908562D01*
X194561857Y-58909403D01*
X194565243Y-58909053D01*
X194565245Y-58909053D01*
X194914932Y-58872917D01*
X194914941Y-58872916D01*
X194918324Y-58872566D01*
X194921657Y-58871852D01*
X194921660Y-58871851D01*
X195094186Y-58834864D01*
X195268727Y-58797446D01*
X195608968Y-58684922D01*
X195935066Y-58536311D01*
X196029052Y-58480506D01*
X196240262Y-58355099D01*
X196240267Y-58355096D01*
X196243207Y-58353350D01*
X196529786Y-58138180D01*
X196791451Y-57893319D01*
X197025140Y-57621630D01*
X197131750Y-57466512D01*
X197226190Y-57329101D01*
X197226195Y-57329094D01*
X197228120Y-57326292D01*
X197229732Y-57323298D01*
X197229737Y-57323290D01*
X197396395Y-57013772D01*
X197398017Y-57010760D01*
X197532842Y-56678724D01*
X197543142Y-56642568D01*
X197603350Y-56431206D01*
X197631020Y-56334070D01*
X197691401Y-55980828D01*
X197693511Y-55946340D01*
X197713168Y-55624928D01*
X197713278Y-55623131D01*
X197713359Y-55600000D01*
X197693979Y-55242159D01*
X197636066Y-54888505D01*
X197540297Y-54543173D01*
X197537243Y-54535497D01*
X197409052Y-54213369D01*
X197407793Y-54210205D01*
X197377768Y-54153498D01*
X197241702Y-53896513D01*
X197241698Y-53896506D01*
X197240103Y-53893494D01*
X197039190Y-53596746D01*
X196807403Y-53323432D01*
X196547454Y-53076750D01*
X196262384Y-52859585D01*
X196259472Y-52857828D01*
X196259467Y-52857825D01*
X195958443Y-52676236D01*
X195958437Y-52676233D01*
X195955528Y-52674478D01*
X195630475Y-52523593D01*
X195460751Y-52466145D01*
X195294255Y-52409789D01*
X195294250Y-52409788D01*
X195291028Y-52408697D01*
X195092681Y-52364724D01*
X194944493Y-52331871D01*
X194944487Y-52331870D01*
X194941158Y-52331132D01*
X194937769Y-52330758D01*
X194937764Y-52330757D01*
X194588338Y-52292180D01*
X194588333Y-52292180D01*
X194584957Y-52291807D01*
X194581558Y-52291801D01*
X194581557Y-52291801D01*
X194412080Y-52291505D01*
X194226592Y-52291182D01*
X194113413Y-52303277D01*
X193873639Y-52328901D01*
X193873631Y-52328902D01*
X193870256Y-52329263D01*
X193520117Y-52405606D01*
X193180271Y-52519317D01*
X193177178Y-52520739D01*
X193177177Y-52520740D01*
X193170974Y-52523593D01*
X192854694Y-52669066D01*
X192547193Y-52853101D01*
X192544467Y-52855163D01*
X192544465Y-52855164D01*
X192538620Y-52859585D01*
X192261367Y-53069270D01*
X192000559Y-53315043D01*
X191767819Y-53587546D01*
X191765900Y-53590358D01*
X191765897Y-53590363D01*
X191683664Y-53710913D01*
X191565871Y-53883591D01*
X191397077Y-54199714D01*
X191263411Y-54532218D01*
X191262491Y-54535492D01*
X191262489Y-54535497D01*
X191232080Y-54643683D01*
X191166437Y-54877213D01*
X191107290Y-55230663D01*
X191086661Y-55588434D01*
X190000000Y-55588434D01*
X190000000Y-52225063D01*
X190009591Y-52176845D01*
X190131831Y-51881732D01*
X190159145Y-51840855D01*
X191454595Y-50545405D01*
X191516907Y-50511379D01*
X191543690Y-50508500D01*
X194350633Y-50508500D01*
X194370018Y-50510000D01*
G37*
%TD.AperFunction*%
%TA.AperFunction,Conductor*%
G36*
X169824431Y-50528502D02*
G01*
X169845405Y-50545405D01*
X169963095Y-50663095D01*
X169997121Y-50725407D01*
X170000000Y-50752190D01*
X170000000Y-99747810D01*
X169979998Y-99815931D01*
X169963095Y-99836905D01*
X169836905Y-99963095D01*
X169774593Y-99997121D01*
X169747810Y-100000000D01*
X130800000Y-100000000D01*
X130600000Y-100200000D01*
X130600000Y-107757810D01*
X130579998Y-107825931D01*
X130563095Y-107846905D01*
X130436905Y-107973095D01*
X130374593Y-108007121D01*
X130347810Y-108010000D01*
X127852190Y-108010000D01*
X127784069Y-107989998D01*
X127763095Y-107973095D01*
X127636905Y-107846905D01*
X127602879Y-107784593D01*
X127600000Y-107757810D01*
X127600000Y-96252190D01*
X127620002Y-96184069D01*
X127636905Y-96163095D01*
X127763095Y-96036905D01*
X127825407Y-96002879D01*
X127852190Y-96000000D01*
X151800000Y-96000000D01*
X152000000Y-95800000D01*
X152000000Y-91150000D01*
X153514647Y-91150000D01*
X153534022Y-91371463D01*
X153591560Y-91586196D01*
X153593882Y-91591177D01*
X153593883Y-91591178D01*
X153683186Y-91782689D01*
X153683189Y-91782694D01*
X153685512Y-91787676D01*
X153813023Y-91969781D01*
X153970219Y-92126977D01*
X153974727Y-92130134D01*
X153974730Y-92130136D01*
X154050495Y-92183187D01*
X154152323Y-92254488D01*
X154157305Y-92256811D01*
X154157310Y-92256814D01*
X154348822Y-92346117D01*
X154353804Y-92348440D01*
X154359112Y-92349862D01*
X154359114Y-92349863D01*
X154424949Y-92367503D01*
X154568537Y-92405978D01*
X154790000Y-92425353D01*
X155011463Y-92405978D01*
X155155051Y-92367503D01*
X155220886Y-92349863D01*
X155220888Y-92349862D01*
X155226196Y-92348440D01*
X155231178Y-92346117D01*
X155422690Y-92256814D01*
X155422695Y-92256811D01*
X155427677Y-92254488D01*
X155529505Y-92183187D01*
X155605270Y-92130136D01*
X155605273Y-92130134D01*
X155609781Y-92126977D01*
X155766977Y-91969781D01*
X155894488Y-91787676D01*
X155896811Y-91782694D01*
X155896814Y-91782689D01*
X155986117Y-91591178D01*
X155986118Y-91591177D01*
X155988440Y-91586196D01*
X156045978Y-91371463D01*
X156065353Y-91150000D01*
X161134647Y-91150000D01*
X161154022Y-91371463D01*
X161211560Y-91586196D01*
X161213882Y-91591177D01*
X161213883Y-91591178D01*
X161303186Y-91782689D01*
X161303189Y-91782694D01*
X161305512Y-91787676D01*
X161433023Y-91969781D01*
X161590219Y-92126977D01*
X161594727Y-92130134D01*
X161594730Y-92130136D01*
X161670495Y-92183187D01*
X161772323Y-92254488D01*
X161777305Y-92256811D01*
X161777310Y-92256814D01*
X161968822Y-92346117D01*
X161973804Y-92348440D01*
X161979112Y-92349862D01*
X161979114Y-92349863D01*
X162044949Y-92367503D01*
X162188537Y-92405978D01*
X162410000Y-92425353D01*
X162631463Y-92405978D01*
X162775051Y-92367503D01*
X162840886Y-92349863D01*
X162840888Y-92349862D01*
X162846196Y-92348440D01*
X162851178Y-92346117D01*
X163042690Y-92256814D01*
X163042695Y-92256811D01*
X163047677Y-92254488D01*
X163149505Y-92183187D01*
X163225270Y-92130136D01*
X163225273Y-92130134D01*
X163229781Y-92126977D01*
X163386977Y-91969781D01*
X163514488Y-91787676D01*
X163516811Y-91782694D01*
X163516814Y-91782689D01*
X163606117Y-91591178D01*
X163606118Y-91591177D01*
X163608440Y-91586196D01*
X163665978Y-91371463D01*
X163685353Y-91150000D01*
X166214647Y-91150000D01*
X166234022Y-91371463D01*
X166291560Y-91586196D01*
X166293882Y-91591177D01*
X166293883Y-91591178D01*
X166383186Y-91782689D01*
X166383189Y-91782694D01*
X166385512Y-91787676D01*
X166513023Y-91969781D01*
X166670219Y-92126977D01*
X166674727Y-92130134D01*
X166674730Y-92130136D01*
X166750495Y-92183187D01*
X166852323Y-92254488D01*
X166857305Y-92256811D01*
X166857310Y-92256814D01*
X167048822Y-92346117D01*
X167053804Y-92348440D01*
X167059112Y-92349862D01*
X167059114Y-92349863D01*
X167124949Y-92367503D01*
X167268537Y-92405978D01*
X167490000Y-92425353D01*
X167711463Y-92405978D01*
X167855051Y-92367503D01*
X167920886Y-92349863D01*
X167920888Y-92349862D01*
X167926196Y-92348440D01*
X167931178Y-92346117D01*
X168122690Y-92256814D01*
X168122695Y-92256811D01*
X168127677Y-92254488D01*
X168229505Y-92183187D01*
X168305270Y-92130136D01*
X168305273Y-92130134D01*
X168309781Y-92126977D01*
X168466977Y-91969781D01*
X168594488Y-91787676D01*
X168596811Y-91782694D01*
X168596814Y-91782689D01*
X168686117Y-91591178D01*
X168686118Y-91591177D01*
X168688440Y-91586196D01*
X168745978Y-91371463D01*
X168765353Y-91150000D01*
X168745978Y-90928537D01*
X168688440Y-90713804D01*
X168686117Y-90708822D01*
X168596814Y-90517311D01*
X168596811Y-90517306D01*
X168594488Y-90512324D01*
X168466977Y-90330219D01*
X168309781Y-90173023D01*
X168305273Y-90169866D01*
X168305270Y-90169864D01*
X168229505Y-90116813D01*
X168127677Y-90045512D01*
X168122695Y-90043189D01*
X168122690Y-90043186D01*
X167931178Y-89953883D01*
X167931177Y-89953882D01*
X167926196Y-89951560D01*
X167920888Y-89950138D01*
X167920886Y-89950137D01*
X167855051Y-89932497D01*
X167711463Y-89894022D01*
X167490000Y-89874647D01*
X167268537Y-89894022D01*
X167124949Y-89932497D01*
X167059114Y-89950137D01*
X167059112Y-89950138D01*
X167053804Y-89951560D01*
X167048823Y-89953882D01*
X167048822Y-89953883D01*
X166857311Y-90043186D01*
X166857306Y-90043189D01*
X166852324Y-90045512D01*
X166847817Y-90048668D01*
X166847815Y-90048669D01*
X166674730Y-90169864D01*
X166674727Y-90169866D01*
X166670219Y-90173023D01*
X166513023Y-90330219D01*
X166385512Y-90512324D01*
X166383189Y-90517306D01*
X166383186Y-90517311D01*
X166293883Y-90708822D01*
X166291560Y-90713804D01*
X166234022Y-90928537D01*
X166214647Y-91150000D01*
X163685353Y-91150000D01*
X163665978Y-90928537D01*
X163608440Y-90713804D01*
X163606117Y-90708822D01*
X163516814Y-90517311D01*
X163516811Y-90517306D01*
X163514488Y-90512324D01*
X163386977Y-90330219D01*
X163229781Y-90173023D01*
X163225273Y-90169866D01*
X163225270Y-90169864D01*
X163149505Y-90116813D01*
X163047677Y-90045512D01*
X163042695Y-90043189D01*
X163042690Y-90043186D01*
X162851178Y-89953883D01*
X162851177Y-89953882D01*
X162846196Y-89951560D01*
X162840888Y-89950138D01*
X162840886Y-89950137D01*
X162775051Y-89932497D01*
X162631463Y-89894022D01*
X162410000Y-89874647D01*
X162188537Y-89894022D01*
X162044949Y-89932497D01*
X161979114Y-89950137D01*
X161979112Y-89950138D01*
X161973804Y-89951560D01*
X161968823Y-89953882D01*
X161968822Y-89953883D01*
X161777311Y-90043186D01*
X161777306Y-90043189D01*
X161772324Y-90045512D01*
X161767817Y-90048668D01*
X161767815Y-90048669D01*
X161594730Y-90169864D01*
X161594727Y-90169866D01*
X161590219Y-90173023D01*
X161433023Y-90330219D01*
X161305512Y-90512324D01*
X161303189Y-90517306D01*
X161303186Y-90517311D01*
X161213883Y-90708822D01*
X161211560Y-90713804D01*
X161154022Y-90928537D01*
X161134647Y-91150000D01*
X156065353Y-91150000D01*
X156045978Y-90928537D01*
X155988440Y-90713804D01*
X155986117Y-90708822D01*
X155896814Y-90517311D01*
X155896811Y-90517306D01*
X155894488Y-90512324D01*
X155766977Y-90330219D01*
X155609781Y-90173023D01*
X155605273Y-90169866D01*
X155605270Y-90169864D01*
X155529505Y-90116813D01*
X155427677Y-90045512D01*
X155422695Y-90043189D01*
X155422690Y-90043186D01*
X155231178Y-89953883D01*
X155231177Y-89953882D01*
X155226196Y-89951560D01*
X155220888Y-89950138D01*
X155220886Y-89950137D01*
X155155051Y-89932497D01*
X155011463Y-89894022D01*
X154790000Y-89874647D01*
X154568537Y-89894022D01*
X154424949Y-89932497D01*
X154359114Y-89950137D01*
X154359112Y-89950138D01*
X154353804Y-89951560D01*
X154348823Y-89953882D01*
X154348822Y-89953883D01*
X154157311Y-90043186D01*
X154157306Y-90043189D01*
X154152324Y-90045512D01*
X154147817Y-90048668D01*
X154147815Y-90048669D01*
X153974730Y-90169864D01*
X153974727Y-90169866D01*
X153970219Y-90173023D01*
X153813023Y-90330219D01*
X153685512Y-90512324D01*
X153683189Y-90517306D01*
X153683186Y-90517311D01*
X153593883Y-90708822D01*
X153591560Y-90713804D01*
X153534022Y-90928537D01*
X153514647Y-91150000D01*
X152000000Y-91150000D01*
X152000000Y-87340000D01*
X153876496Y-87340000D01*
X153896458Y-87529928D01*
X153955473Y-87711556D01*
X154050960Y-87876944D01*
X154178747Y-88018866D01*
X154333248Y-88131118D01*
X154339276Y-88133802D01*
X154339278Y-88133803D01*
X154501681Y-88206109D01*
X154507712Y-88208794D01*
X154601113Y-88228647D01*
X154688056Y-88247128D01*
X154688061Y-88247128D01*
X154694513Y-88248500D01*
X154885487Y-88248500D01*
X154891939Y-88247128D01*
X154891944Y-88247128D01*
X154978887Y-88228647D01*
X155072288Y-88208794D01*
X155078319Y-88206109D01*
X155240722Y-88133803D01*
X155240724Y-88133802D01*
X155246752Y-88131118D01*
X155401253Y-88018866D01*
X155529040Y-87876944D01*
X155624527Y-87711556D01*
X155683542Y-87529928D01*
X155703504Y-87340000D01*
X161496496Y-87340000D01*
X161516458Y-87529928D01*
X161575473Y-87711556D01*
X161670960Y-87876944D01*
X161798747Y-88018866D01*
X161953248Y-88131118D01*
X161959276Y-88133802D01*
X161959278Y-88133803D01*
X162121681Y-88206109D01*
X162127712Y-88208794D01*
X162221113Y-88228647D01*
X162308056Y-88247128D01*
X162308061Y-88247128D01*
X162314513Y-88248500D01*
X162505487Y-88248500D01*
X162511939Y-88247128D01*
X162511944Y-88247128D01*
X162598887Y-88228647D01*
X162692288Y-88208794D01*
X162698319Y-88206109D01*
X162860722Y-88133803D01*
X162860724Y-88133802D01*
X162866752Y-88131118D01*
X163021253Y-88018866D01*
X163149040Y-87876944D01*
X163244527Y-87711556D01*
X163303542Y-87529928D01*
X163323504Y-87340000D01*
X166576496Y-87340000D01*
X166596458Y-87529928D01*
X166655473Y-87711556D01*
X166750960Y-87876944D01*
X166878747Y-88018866D01*
X167033248Y-88131118D01*
X167039276Y-88133802D01*
X167039278Y-88133803D01*
X167201681Y-88206109D01*
X167207712Y-88208794D01*
X167301113Y-88228647D01*
X167388056Y-88247128D01*
X167388061Y-88247128D01*
X167394513Y-88248500D01*
X167585487Y-88248500D01*
X167591939Y-88247128D01*
X167591944Y-88247128D01*
X167678887Y-88228647D01*
X167772288Y-88208794D01*
X167778319Y-88206109D01*
X167940722Y-88133803D01*
X167940724Y-88133802D01*
X167946752Y-88131118D01*
X168101253Y-88018866D01*
X168229040Y-87876944D01*
X168324527Y-87711556D01*
X168383542Y-87529928D01*
X168403504Y-87340000D01*
X168383542Y-87150072D01*
X168324527Y-86968444D01*
X168229040Y-86803056D01*
X168101253Y-86661134D01*
X167946752Y-86548882D01*
X167940724Y-86546198D01*
X167940722Y-86546197D01*
X167778319Y-86473891D01*
X167778318Y-86473891D01*
X167772288Y-86471206D01*
X167678887Y-86451353D01*
X167591944Y-86432872D01*
X167591939Y-86432872D01*
X167585487Y-86431500D01*
X167394513Y-86431500D01*
X167388061Y-86432872D01*
X167388056Y-86432872D01*
X167301112Y-86451353D01*
X167207712Y-86471206D01*
X167201682Y-86473891D01*
X167201681Y-86473891D01*
X167039278Y-86546197D01*
X167039276Y-86546198D01*
X167033248Y-86548882D01*
X166878747Y-86661134D01*
X166750960Y-86803056D01*
X166655473Y-86968444D01*
X166596458Y-87150072D01*
X166576496Y-87340000D01*
X163323504Y-87340000D01*
X163303542Y-87150072D01*
X163244527Y-86968444D01*
X163149040Y-86803056D01*
X163021253Y-86661134D01*
X162866752Y-86548882D01*
X162860724Y-86546198D01*
X162860722Y-86546197D01*
X162698319Y-86473891D01*
X162698318Y-86473891D01*
X162692288Y-86471206D01*
X162598887Y-86451353D01*
X162511944Y-86432872D01*
X162511939Y-86432872D01*
X162505487Y-86431500D01*
X162314513Y-86431500D01*
X162308061Y-86432872D01*
X162308056Y-86432872D01*
X162221112Y-86451353D01*
X162127712Y-86471206D01*
X162121682Y-86473891D01*
X162121681Y-86473891D01*
X161959278Y-86546197D01*
X161959276Y-86546198D01*
X161953248Y-86548882D01*
X161798747Y-86661134D01*
X161670960Y-86803056D01*
X161575473Y-86968444D01*
X161516458Y-87150072D01*
X161496496Y-87340000D01*
X155703504Y-87340000D01*
X155683542Y-87150072D01*
X155624527Y-86968444D01*
X155529040Y-86803056D01*
X155401253Y-86661134D01*
X155246752Y-86548882D01*
X155240724Y-86546198D01*
X155240722Y-86546197D01*
X155078319Y-86473891D01*
X155078318Y-86473891D01*
X155072288Y-86471206D01*
X154978887Y-86451353D01*
X154891944Y-86432872D01*
X154891939Y-86432872D01*
X154885487Y-86431500D01*
X154694513Y-86431500D01*
X154688061Y-86432872D01*
X154688056Y-86432872D01*
X154601112Y-86451353D01*
X154507712Y-86471206D01*
X154501682Y-86473891D01*
X154501681Y-86473891D01*
X154339278Y-86546197D01*
X154339276Y-86546198D01*
X154333248Y-86548882D01*
X154178747Y-86661134D01*
X154050960Y-86803056D01*
X153955473Y-86968444D01*
X153896458Y-87150072D01*
X153876496Y-87340000D01*
X152000000Y-87340000D01*
X152000000Y-83530000D01*
X153514647Y-83530000D01*
X153534022Y-83751463D01*
X153591560Y-83966196D01*
X153593882Y-83971177D01*
X153593883Y-83971178D01*
X153683186Y-84162689D01*
X153683189Y-84162694D01*
X153685512Y-84167676D01*
X153813023Y-84349781D01*
X153970219Y-84506977D01*
X153974727Y-84510134D01*
X153974730Y-84510136D01*
X154050495Y-84563187D01*
X154152323Y-84634488D01*
X154157305Y-84636811D01*
X154157310Y-84636814D01*
X154348822Y-84726117D01*
X154353804Y-84728440D01*
X154359112Y-84729862D01*
X154359114Y-84729863D01*
X154424949Y-84747503D01*
X154568537Y-84785978D01*
X154790000Y-84805353D01*
X155011463Y-84785978D01*
X155155051Y-84747503D01*
X155220886Y-84729863D01*
X155220888Y-84729862D01*
X155226196Y-84728440D01*
X155231178Y-84726117D01*
X155422690Y-84636814D01*
X155422695Y-84636811D01*
X155427677Y-84634488D01*
X155529505Y-84563187D01*
X155605270Y-84510136D01*
X155605273Y-84510134D01*
X155609781Y-84506977D01*
X155766977Y-84349781D01*
X155894488Y-84167676D01*
X155896811Y-84162694D01*
X155896814Y-84162689D01*
X155986117Y-83971178D01*
X155986118Y-83971177D01*
X155988440Y-83966196D01*
X156045978Y-83751463D01*
X156065353Y-83530000D01*
X166214647Y-83530000D01*
X166234022Y-83751463D01*
X166291560Y-83966196D01*
X166293882Y-83971177D01*
X166293883Y-83971178D01*
X166383186Y-84162689D01*
X166383189Y-84162694D01*
X166385512Y-84167676D01*
X166513023Y-84349781D01*
X166670219Y-84506977D01*
X166674727Y-84510134D01*
X166674730Y-84510136D01*
X166750495Y-84563187D01*
X166852323Y-84634488D01*
X166857305Y-84636811D01*
X166857310Y-84636814D01*
X167048822Y-84726117D01*
X167053804Y-84728440D01*
X167059112Y-84729862D01*
X167059114Y-84729863D01*
X167124949Y-84747503D01*
X167268537Y-84785978D01*
X167490000Y-84805353D01*
X167711463Y-84785978D01*
X167855051Y-84747503D01*
X167920886Y-84729863D01*
X167920888Y-84729862D01*
X167926196Y-84728440D01*
X167931178Y-84726117D01*
X168122690Y-84636814D01*
X168122695Y-84636811D01*
X168127677Y-84634488D01*
X168229505Y-84563187D01*
X168305270Y-84510136D01*
X168305273Y-84510134D01*
X168309781Y-84506977D01*
X168466977Y-84349781D01*
X168594488Y-84167676D01*
X168596811Y-84162694D01*
X168596814Y-84162689D01*
X168686117Y-83971178D01*
X168686118Y-83971177D01*
X168688440Y-83966196D01*
X168745978Y-83751463D01*
X168765353Y-83530000D01*
X168745978Y-83308537D01*
X168688440Y-83093804D01*
X168686117Y-83088822D01*
X168596814Y-82897311D01*
X168596811Y-82897306D01*
X168594488Y-82892324D01*
X168466977Y-82710219D01*
X168309781Y-82553023D01*
X168305273Y-82549866D01*
X168305270Y-82549864D01*
X168229505Y-82496813D01*
X168127677Y-82425512D01*
X168122695Y-82423189D01*
X168122690Y-82423186D01*
X167931178Y-82333883D01*
X167931177Y-82333882D01*
X167926196Y-82331560D01*
X167920888Y-82330138D01*
X167920886Y-82330137D01*
X167855051Y-82312497D01*
X167711463Y-82274022D01*
X167490000Y-82254647D01*
X167268537Y-82274022D01*
X167124949Y-82312497D01*
X167059114Y-82330137D01*
X167059112Y-82330138D01*
X167053804Y-82331560D01*
X167048823Y-82333882D01*
X167048822Y-82333883D01*
X166857311Y-82423186D01*
X166857306Y-82423189D01*
X166852324Y-82425512D01*
X166847817Y-82428668D01*
X166847815Y-82428669D01*
X166674730Y-82549864D01*
X166674727Y-82549866D01*
X166670219Y-82553023D01*
X166513023Y-82710219D01*
X166385512Y-82892324D01*
X166383189Y-82897306D01*
X166383186Y-82897311D01*
X166293883Y-83088822D01*
X166291560Y-83093804D01*
X166234022Y-83308537D01*
X166214647Y-83530000D01*
X156065353Y-83530000D01*
X156045978Y-83308537D01*
X155988440Y-83093804D01*
X155986117Y-83088822D01*
X155896814Y-82897311D01*
X155896811Y-82897306D01*
X155894488Y-82892324D01*
X155766977Y-82710219D01*
X155609781Y-82553023D01*
X155605273Y-82549866D01*
X155605270Y-82549864D01*
X155529505Y-82496813D01*
X155427677Y-82425512D01*
X155422695Y-82423189D01*
X155422690Y-82423186D01*
X155231178Y-82333883D01*
X155231177Y-82333882D01*
X155226196Y-82331560D01*
X155220888Y-82330138D01*
X155220886Y-82330137D01*
X155155051Y-82312497D01*
X155011463Y-82274022D01*
X154790000Y-82254647D01*
X154568537Y-82274022D01*
X154424949Y-82312497D01*
X154359114Y-82330137D01*
X154359112Y-82330138D01*
X154353804Y-82331560D01*
X154348823Y-82333882D01*
X154348822Y-82333883D01*
X154157311Y-82423186D01*
X154157306Y-82423189D01*
X154152324Y-82425512D01*
X154147817Y-82428668D01*
X154147815Y-82428669D01*
X153974730Y-82549864D01*
X153974727Y-82549866D01*
X153970219Y-82553023D01*
X153813023Y-82710219D01*
X153685512Y-82892324D01*
X153683189Y-82897306D01*
X153683186Y-82897311D01*
X153593883Y-83088822D01*
X153591560Y-83093804D01*
X153534022Y-83308537D01*
X153514647Y-83530000D01*
X152000000Y-83530000D01*
X152000000Y-72100000D01*
X153514647Y-72100000D01*
X153534022Y-72321463D01*
X153591560Y-72536196D01*
X153593882Y-72541177D01*
X153593883Y-72541178D01*
X153683186Y-72732689D01*
X153683189Y-72732694D01*
X153685512Y-72737676D01*
X153688668Y-72742183D01*
X153688669Y-72742185D01*
X153735360Y-72808866D01*
X153813023Y-72919781D01*
X153970219Y-73076977D01*
X153974727Y-73080134D01*
X153974730Y-73080136D01*
X154050495Y-73133187D01*
X154152323Y-73204488D01*
X154157305Y-73206811D01*
X154157310Y-73206814D01*
X154348822Y-73296117D01*
X154353804Y-73298440D01*
X154359112Y-73299862D01*
X154359114Y-73299863D01*
X154424949Y-73317503D01*
X154568537Y-73355978D01*
X154790000Y-73375353D01*
X155011463Y-73355978D01*
X155155051Y-73317503D01*
X155220886Y-73299863D01*
X155220888Y-73299862D01*
X155226196Y-73298440D01*
X155231178Y-73296117D01*
X155422690Y-73206814D01*
X155422695Y-73206811D01*
X155427677Y-73204488D01*
X155529505Y-73133187D01*
X155605270Y-73080136D01*
X155605273Y-73080134D01*
X155609781Y-73076977D01*
X155766977Y-72919781D01*
X155844641Y-72808866D01*
X155891331Y-72742185D01*
X155891332Y-72742183D01*
X155894488Y-72737676D01*
X155896811Y-72732694D01*
X155896814Y-72732689D01*
X155986117Y-72541178D01*
X155986118Y-72541177D01*
X155988440Y-72536196D01*
X156045978Y-72321463D01*
X156065353Y-72100000D01*
X161134647Y-72100000D01*
X161154022Y-72321463D01*
X161211560Y-72536196D01*
X161213882Y-72541177D01*
X161213883Y-72541178D01*
X161303186Y-72732689D01*
X161303189Y-72732694D01*
X161305512Y-72737676D01*
X161308668Y-72742183D01*
X161308669Y-72742185D01*
X161355360Y-72808866D01*
X161433023Y-72919781D01*
X161590219Y-73076977D01*
X161594727Y-73080134D01*
X161594730Y-73080136D01*
X161670495Y-73133187D01*
X161772323Y-73204488D01*
X161777305Y-73206811D01*
X161777310Y-73206814D01*
X161968822Y-73296117D01*
X161973804Y-73298440D01*
X161979112Y-73299862D01*
X161979114Y-73299863D01*
X162044949Y-73317503D01*
X162188537Y-73355978D01*
X162410000Y-73375353D01*
X162631463Y-73355978D01*
X162775051Y-73317503D01*
X162840886Y-73299863D01*
X162840888Y-73299862D01*
X162846196Y-73298440D01*
X162851178Y-73296117D01*
X163042690Y-73206814D01*
X163042695Y-73206811D01*
X163047677Y-73204488D01*
X163149505Y-73133187D01*
X163225270Y-73080136D01*
X163225273Y-73080134D01*
X163229781Y-73076977D01*
X163386977Y-72919781D01*
X163464641Y-72808866D01*
X163511331Y-72742185D01*
X163511332Y-72742183D01*
X163514488Y-72737676D01*
X163516811Y-72732694D01*
X163516814Y-72732689D01*
X163606117Y-72541178D01*
X163606118Y-72541177D01*
X163608440Y-72536196D01*
X163665978Y-72321463D01*
X163685353Y-72100000D01*
X166214647Y-72100000D01*
X166234022Y-72321463D01*
X166291560Y-72536196D01*
X166293882Y-72541177D01*
X166293883Y-72541178D01*
X166383186Y-72732689D01*
X166383189Y-72732694D01*
X166385512Y-72737676D01*
X166388668Y-72742183D01*
X166388669Y-72742185D01*
X166435360Y-72808866D01*
X166513023Y-72919781D01*
X166670219Y-73076977D01*
X166674727Y-73080134D01*
X166674730Y-73080136D01*
X166750495Y-73133187D01*
X166852323Y-73204488D01*
X166857305Y-73206811D01*
X166857310Y-73206814D01*
X167048822Y-73296117D01*
X167053804Y-73298440D01*
X167059112Y-73299862D01*
X167059114Y-73299863D01*
X167124949Y-73317503D01*
X167268537Y-73355978D01*
X167490000Y-73375353D01*
X167711463Y-73355978D01*
X167855051Y-73317503D01*
X167920886Y-73299863D01*
X167920888Y-73299862D01*
X167926196Y-73298440D01*
X167931178Y-73296117D01*
X168122690Y-73206814D01*
X168122695Y-73206811D01*
X168127677Y-73204488D01*
X168229505Y-73133187D01*
X168305270Y-73080136D01*
X168305273Y-73080134D01*
X168309781Y-73076977D01*
X168466977Y-72919781D01*
X168544641Y-72808866D01*
X168591331Y-72742185D01*
X168591332Y-72742183D01*
X168594488Y-72737676D01*
X168596811Y-72732694D01*
X168596814Y-72732689D01*
X168686117Y-72541178D01*
X168686118Y-72541177D01*
X168688440Y-72536196D01*
X168745978Y-72321463D01*
X168765353Y-72100000D01*
X168745978Y-71878537D01*
X168688440Y-71663804D01*
X168612293Y-71500506D01*
X168596814Y-71467311D01*
X168596811Y-71467306D01*
X168594488Y-71462324D01*
X168586653Y-71451134D01*
X168470136Y-71284730D01*
X168470134Y-71284727D01*
X168466977Y-71280219D01*
X168309781Y-71123023D01*
X168305273Y-71119866D01*
X168305270Y-71119864D01*
X168196131Y-71043444D01*
X168127677Y-70995512D01*
X168122695Y-70993189D01*
X168122690Y-70993186D01*
X167931178Y-70903883D01*
X167931177Y-70903882D01*
X167926196Y-70901560D01*
X167920888Y-70900138D01*
X167920886Y-70900137D01*
X167855051Y-70882497D01*
X167711463Y-70844022D01*
X167490000Y-70824647D01*
X167268537Y-70844022D01*
X167124949Y-70882497D01*
X167059114Y-70900137D01*
X167059112Y-70900138D01*
X167053804Y-70901560D01*
X167048823Y-70903882D01*
X167048822Y-70903883D01*
X166857311Y-70993186D01*
X166857306Y-70993189D01*
X166852324Y-70995512D01*
X166847817Y-70998668D01*
X166847815Y-70998669D01*
X166674730Y-71119864D01*
X166674727Y-71119866D01*
X166670219Y-71123023D01*
X166513023Y-71280219D01*
X166509866Y-71284727D01*
X166509864Y-71284730D01*
X166393347Y-71451134D01*
X166385512Y-71462324D01*
X166383189Y-71467306D01*
X166383186Y-71467311D01*
X166367707Y-71500506D01*
X166291560Y-71663804D01*
X166234022Y-71878537D01*
X166214647Y-72100000D01*
X163685353Y-72100000D01*
X163665978Y-71878537D01*
X163608440Y-71663804D01*
X163532293Y-71500506D01*
X163516814Y-71467311D01*
X163516811Y-71467306D01*
X163514488Y-71462324D01*
X163506653Y-71451134D01*
X163390136Y-71284730D01*
X163390134Y-71284727D01*
X163386977Y-71280219D01*
X163229781Y-71123023D01*
X163225273Y-71119866D01*
X163225270Y-71119864D01*
X163116131Y-71043444D01*
X163047677Y-70995512D01*
X163042695Y-70993189D01*
X163042690Y-70993186D01*
X162851178Y-70903883D01*
X162851177Y-70903882D01*
X162846196Y-70901560D01*
X162840888Y-70900138D01*
X162840886Y-70900137D01*
X162775051Y-70882497D01*
X162631463Y-70844022D01*
X162410000Y-70824647D01*
X162188537Y-70844022D01*
X162044949Y-70882497D01*
X161979114Y-70900137D01*
X161979112Y-70900138D01*
X161973804Y-70901560D01*
X161968823Y-70903882D01*
X161968822Y-70903883D01*
X161777311Y-70993186D01*
X161777306Y-70993189D01*
X161772324Y-70995512D01*
X161767817Y-70998668D01*
X161767815Y-70998669D01*
X161594730Y-71119864D01*
X161594727Y-71119866D01*
X161590219Y-71123023D01*
X161433023Y-71280219D01*
X161429866Y-71284727D01*
X161429864Y-71284730D01*
X161313347Y-71451134D01*
X161305512Y-71462324D01*
X161303189Y-71467306D01*
X161303186Y-71467311D01*
X161287707Y-71500506D01*
X161211560Y-71663804D01*
X161154022Y-71878537D01*
X161134647Y-72100000D01*
X156065353Y-72100000D01*
X156045978Y-71878537D01*
X155988440Y-71663804D01*
X155912293Y-71500506D01*
X155896814Y-71467311D01*
X155896811Y-71467306D01*
X155894488Y-71462324D01*
X155886653Y-71451134D01*
X155770136Y-71284730D01*
X155770134Y-71284727D01*
X155766977Y-71280219D01*
X155609781Y-71123023D01*
X155605273Y-71119866D01*
X155605270Y-71119864D01*
X155496131Y-71043444D01*
X155427677Y-70995512D01*
X155422695Y-70993189D01*
X155422690Y-70993186D01*
X155231178Y-70903883D01*
X155231177Y-70903882D01*
X155226196Y-70901560D01*
X155220888Y-70900138D01*
X155220886Y-70900137D01*
X155155051Y-70882497D01*
X155011463Y-70844022D01*
X154790000Y-70824647D01*
X154568537Y-70844022D01*
X154424949Y-70882497D01*
X154359114Y-70900137D01*
X154359112Y-70900138D01*
X154353804Y-70901560D01*
X154348823Y-70903882D01*
X154348822Y-70903883D01*
X154157311Y-70993186D01*
X154157306Y-70993189D01*
X154152324Y-70995512D01*
X154147817Y-70998668D01*
X154147815Y-70998669D01*
X153974730Y-71119864D01*
X153974727Y-71119866D01*
X153970219Y-71123023D01*
X153813023Y-71280219D01*
X153809866Y-71284727D01*
X153809864Y-71284730D01*
X153693347Y-71451134D01*
X153685512Y-71462324D01*
X153683189Y-71467306D01*
X153683186Y-71467311D01*
X153667707Y-71500506D01*
X153591560Y-71663804D01*
X153534022Y-71878537D01*
X153514647Y-72100000D01*
X152000000Y-72100000D01*
X152000000Y-68420074D01*
X153806570Y-68420074D01*
X153826532Y-68610002D01*
X153885547Y-68791630D01*
X153888850Y-68797352D01*
X153888851Y-68797353D01*
X153908408Y-68831226D01*
X153981034Y-68957018D01*
X153985452Y-68961925D01*
X153985453Y-68961926D01*
X154101778Y-69091118D01*
X154108821Y-69098940D01*
X154263322Y-69211192D01*
X154269350Y-69213876D01*
X154269352Y-69213877D01*
X154431755Y-69286183D01*
X154437786Y-69288868D01*
X154531187Y-69308721D01*
X154618130Y-69327202D01*
X154618135Y-69327202D01*
X154624587Y-69328574D01*
X154815561Y-69328574D01*
X154822013Y-69327202D01*
X154822018Y-69327202D01*
X154908961Y-69308721D01*
X155002362Y-69288868D01*
X155008393Y-69286183D01*
X155170796Y-69213877D01*
X155170798Y-69213876D01*
X155176826Y-69211192D01*
X155331327Y-69098940D01*
X155338370Y-69091118D01*
X155454695Y-68961926D01*
X155454696Y-68961925D01*
X155459114Y-68957018D01*
X155531740Y-68831226D01*
X155551297Y-68797353D01*
X155551298Y-68797352D01*
X155554601Y-68791630D01*
X155613616Y-68610002D01*
X155633578Y-68420074D01*
X155620958Y-68300000D01*
X161486496Y-68300000D01*
X161506458Y-68489928D01*
X161565473Y-68671556D01*
X161660960Y-68836944D01*
X161788747Y-68978866D01*
X161943248Y-69091118D01*
X161949276Y-69093802D01*
X161949278Y-69093803D01*
X162111681Y-69166109D01*
X162117712Y-69168794D01*
X162211112Y-69188647D01*
X162298056Y-69207128D01*
X162298061Y-69207128D01*
X162304513Y-69208500D01*
X162495487Y-69208500D01*
X162501939Y-69207128D01*
X162501944Y-69207128D01*
X162588888Y-69188647D01*
X162682288Y-69168794D01*
X162688319Y-69166109D01*
X162850722Y-69093803D01*
X162850724Y-69093802D01*
X162856752Y-69091118D01*
X163011253Y-68978866D01*
X163139040Y-68836944D01*
X163234527Y-68671556D01*
X163293542Y-68489928D01*
X163313504Y-68300000D01*
X166586496Y-68300000D01*
X166606458Y-68489928D01*
X166665473Y-68671556D01*
X166760960Y-68836944D01*
X166888747Y-68978866D01*
X167043248Y-69091118D01*
X167049276Y-69093802D01*
X167049278Y-69093803D01*
X167211681Y-69166109D01*
X167217712Y-69168794D01*
X167311112Y-69188647D01*
X167398056Y-69207128D01*
X167398061Y-69207128D01*
X167404513Y-69208500D01*
X167595487Y-69208500D01*
X167601939Y-69207128D01*
X167601944Y-69207128D01*
X167688888Y-69188647D01*
X167782288Y-69168794D01*
X167788319Y-69166109D01*
X167950722Y-69093803D01*
X167950724Y-69093802D01*
X167956752Y-69091118D01*
X168111253Y-68978866D01*
X168239040Y-68836944D01*
X168334527Y-68671556D01*
X168393542Y-68489928D01*
X168413504Y-68300000D01*
X168393542Y-68110072D01*
X168334527Y-67928444D01*
X168328754Y-67918444D01*
X168242341Y-67768774D01*
X168239040Y-67763056D01*
X168121791Y-67632837D01*
X168115675Y-67626045D01*
X168115674Y-67626044D01*
X168111253Y-67621134D01*
X167956752Y-67508882D01*
X167950724Y-67506198D01*
X167950722Y-67506197D01*
X167788319Y-67433891D01*
X167788318Y-67433891D01*
X167782288Y-67431206D01*
X167688887Y-67411353D01*
X167601944Y-67392872D01*
X167601939Y-67392872D01*
X167595487Y-67391500D01*
X167404513Y-67391500D01*
X167398061Y-67392872D01*
X167398056Y-67392872D01*
X167311113Y-67411353D01*
X167217712Y-67431206D01*
X167211682Y-67433891D01*
X167211681Y-67433891D01*
X167049278Y-67506197D01*
X167049276Y-67506198D01*
X167043248Y-67508882D01*
X166888747Y-67621134D01*
X166884326Y-67626044D01*
X166884325Y-67626045D01*
X166878210Y-67632837D01*
X166760960Y-67763056D01*
X166757659Y-67768774D01*
X166671247Y-67918444D01*
X166665473Y-67928444D01*
X166606458Y-68110072D01*
X166586496Y-68300000D01*
X163313504Y-68300000D01*
X163293542Y-68110072D01*
X163234527Y-67928444D01*
X163228754Y-67918444D01*
X163142341Y-67768774D01*
X163139040Y-67763056D01*
X163021791Y-67632837D01*
X163015675Y-67626045D01*
X163015674Y-67626044D01*
X163011253Y-67621134D01*
X162856752Y-67508882D01*
X162850724Y-67506198D01*
X162850722Y-67506197D01*
X162688319Y-67433891D01*
X162688318Y-67433891D01*
X162682288Y-67431206D01*
X162588887Y-67411353D01*
X162501944Y-67392872D01*
X162501939Y-67392872D01*
X162495487Y-67391500D01*
X162304513Y-67391500D01*
X162298061Y-67392872D01*
X162298056Y-67392872D01*
X162211113Y-67411353D01*
X162117712Y-67431206D01*
X162111682Y-67433891D01*
X162111681Y-67433891D01*
X161949278Y-67506197D01*
X161949276Y-67506198D01*
X161943248Y-67508882D01*
X161788747Y-67621134D01*
X161784326Y-67626044D01*
X161784325Y-67626045D01*
X161778210Y-67632837D01*
X161660960Y-67763056D01*
X161657659Y-67768774D01*
X161571247Y-67918444D01*
X161565473Y-67928444D01*
X161506458Y-68110072D01*
X161486496Y-68300000D01*
X155620958Y-68300000D01*
X155613616Y-68230146D01*
X155554601Y-68048518D01*
X155459114Y-67883130D01*
X155331327Y-67741208D01*
X155176826Y-67628956D01*
X155170798Y-67626272D01*
X155170796Y-67626271D01*
X155008393Y-67553965D01*
X155008392Y-67553965D01*
X155002362Y-67551280D01*
X154908962Y-67531427D01*
X154822018Y-67512946D01*
X154822013Y-67512946D01*
X154815561Y-67511574D01*
X154624587Y-67511574D01*
X154618135Y-67512946D01*
X154618130Y-67512946D01*
X154531186Y-67531427D01*
X154437786Y-67551280D01*
X154431756Y-67553965D01*
X154431755Y-67553965D01*
X154269352Y-67626271D01*
X154269350Y-67626272D01*
X154263322Y-67628956D01*
X154108821Y-67741208D01*
X153981034Y-67883130D01*
X153885547Y-68048518D01*
X153826532Y-68230146D01*
X153806570Y-68420074D01*
X152000000Y-68420074D01*
X152000000Y-64480000D01*
X153514647Y-64480000D01*
X153534022Y-64701463D01*
X153591560Y-64916196D01*
X153593882Y-64921177D01*
X153593883Y-64921178D01*
X153683186Y-65112689D01*
X153683189Y-65112694D01*
X153685512Y-65117676D01*
X153813023Y-65299781D01*
X153970219Y-65456977D01*
X153974727Y-65460134D01*
X153974730Y-65460136D01*
X154050495Y-65513187D01*
X154152323Y-65584488D01*
X154157305Y-65586811D01*
X154157310Y-65586814D01*
X154264682Y-65636882D01*
X154353804Y-65678440D01*
X154359112Y-65679862D01*
X154359114Y-65679863D01*
X154424949Y-65697503D01*
X154568537Y-65735978D01*
X154790000Y-65755353D01*
X155011463Y-65735978D01*
X155155051Y-65697503D01*
X155220886Y-65679863D01*
X155220888Y-65679862D01*
X155226196Y-65678440D01*
X155315318Y-65636882D01*
X155422690Y-65586814D01*
X155422695Y-65586811D01*
X155427677Y-65584488D01*
X155529505Y-65513187D01*
X155605270Y-65460136D01*
X155605273Y-65460134D01*
X155609781Y-65456977D01*
X155766977Y-65299781D01*
X155894488Y-65117676D01*
X155896811Y-65112694D01*
X155896814Y-65112689D01*
X155986117Y-64921178D01*
X155986118Y-64921177D01*
X155988440Y-64916196D01*
X156045978Y-64701463D01*
X156065353Y-64480000D01*
X166214647Y-64480000D01*
X166234022Y-64701463D01*
X166291560Y-64916196D01*
X166293882Y-64921177D01*
X166293883Y-64921178D01*
X166383186Y-65112689D01*
X166383189Y-65112694D01*
X166385512Y-65117676D01*
X166513023Y-65299781D01*
X166670219Y-65456977D01*
X166674727Y-65460134D01*
X166674730Y-65460136D01*
X166750495Y-65513187D01*
X166852323Y-65584488D01*
X166857305Y-65586811D01*
X166857310Y-65586814D01*
X166964682Y-65636882D01*
X167053804Y-65678440D01*
X167059112Y-65679862D01*
X167059114Y-65679863D01*
X167124949Y-65697503D01*
X167268537Y-65735978D01*
X167490000Y-65755353D01*
X167711463Y-65735978D01*
X167855051Y-65697503D01*
X167920886Y-65679863D01*
X167920888Y-65679862D01*
X167926196Y-65678440D01*
X168015318Y-65636882D01*
X168122690Y-65586814D01*
X168122695Y-65586811D01*
X168127677Y-65584488D01*
X168229505Y-65513187D01*
X168305270Y-65460136D01*
X168305273Y-65460134D01*
X168309781Y-65456977D01*
X168466977Y-65299781D01*
X168594488Y-65117676D01*
X168596811Y-65112694D01*
X168596814Y-65112689D01*
X168686117Y-64921178D01*
X168686118Y-64921177D01*
X168688440Y-64916196D01*
X168745978Y-64701463D01*
X168765353Y-64480000D01*
X168745978Y-64258537D01*
X168688440Y-64043804D01*
X168686117Y-64038822D01*
X168596814Y-63847311D01*
X168596811Y-63847306D01*
X168594488Y-63842324D01*
X168466977Y-63660219D01*
X168309781Y-63503023D01*
X168305273Y-63499866D01*
X168305270Y-63499864D01*
X168229505Y-63446813D01*
X168127677Y-63375512D01*
X168122695Y-63373189D01*
X168122690Y-63373186D01*
X167931178Y-63283883D01*
X167931177Y-63283882D01*
X167926196Y-63281560D01*
X167920888Y-63280138D01*
X167920886Y-63280137D01*
X167855051Y-63262497D01*
X167711463Y-63224022D01*
X167490000Y-63204647D01*
X167268537Y-63224022D01*
X167124949Y-63262497D01*
X167059114Y-63280137D01*
X167059112Y-63280138D01*
X167053804Y-63281560D01*
X167048823Y-63283882D01*
X167048822Y-63283883D01*
X166857311Y-63373186D01*
X166857306Y-63373189D01*
X166852324Y-63375512D01*
X166847817Y-63378668D01*
X166847815Y-63378669D01*
X166674730Y-63499864D01*
X166674727Y-63499866D01*
X166670219Y-63503023D01*
X166513023Y-63660219D01*
X166385512Y-63842324D01*
X166383189Y-63847306D01*
X166383186Y-63847311D01*
X166293883Y-64038822D01*
X166291560Y-64043804D01*
X166234022Y-64258537D01*
X166214647Y-64480000D01*
X156065353Y-64480000D01*
X156045978Y-64258537D01*
X155988440Y-64043804D01*
X155986117Y-64038822D01*
X155896814Y-63847311D01*
X155896811Y-63847306D01*
X155894488Y-63842324D01*
X155766977Y-63660219D01*
X155609781Y-63503023D01*
X155605273Y-63499866D01*
X155605270Y-63499864D01*
X155529505Y-63446813D01*
X155427677Y-63375512D01*
X155422695Y-63373189D01*
X155422690Y-63373186D01*
X155231178Y-63283883D01*
X155231177Y-63283882D01*
X155226196Y-63281560D01*
X155220888Y-63280138D01*
X155220886Y-63280137D01*
X155155051Y-63262497D01*
X155011463Y-63224022D01*
X154790000Y-63204647D01*
X154568537Y-63224022D01*
X154424949Y-63262497D01*
X154359114Y-63280137D01*
X154359112Y-63280138D01*
X154353804Y-63281560D01*
X154348823Y-63283882D01*
X154348822Y-63283883D01*
X154157311Y-63373186D01*
X154157306Y-63373189D01*
X154152324Y-63375512D01*
X154147817Y-63378668D01*
X154147815Y-63378669D01*
X153974730Y-63499864D01*
X153974727Y-63499866D01*
X153970219Y-63503023D01*
X153813023Y-63660219D01*
X153685512Y-63842324D01*
X153683189Y-63847306D01*
X153683186Y-63847311D01*
X153593883Y-64038822D01*
X153591560Y-64043804D01*
X153534022Y-64258537D01*
X153514647Y-64480000D01*
X152000000Y-64480000D01*
X152000000Y-50752190D01*
X152020002Y-50684069D01*
X152036905Y-50663095D01*
X152154595Y-50545405D01*
X152216907Y-50511379D01*
X152243690Y-50508500D01*
X169756310Y-50508500D01*
X169824431Y-50528502D01*
G37*
%TD.AperFunction*%
M02*
