%TF.GenerationSoftware,KiCad,Pcbnew,6.0.9+dfsg-1*%
%TF.CreationDate,2022-12-03T23:10:22+00:00*%
%TF.ProjectId,Token_Ring_MAU,546f6b65-6e5f-4526-996e-675f4d41552e,rev?*%
%TF.SameCoordinates,Original*%
%TF.FileFunction,Copper,L1,Top*%
%TF.FilePolarity,Positive*%
%FSLAX46Y46*%
G04 Gerber Fmt 4.6, Leading zero omitted, Abs format (unit mm)*
G04 Created by KiCad (PCBNEW 6.0.9+dfsg-1) date 2022-12-03 23:10:22*
%MOMM*%
%LPD*%
G01*
G04 APERTURE LIST*
G04 Aperture macros list*
%AMRoundRect*
0 Rectangle with rounded corners*
0 $1 Rounding radius*
0 $2 $3 $4 $5 $6 $7 $8 $9 X,Y pos of 4 corners*
0 Add a 4 corners polygon primitive as box body*
4,1,4,$2,$3,$4,$5,$6,$7,$8,$9,$2,$3,0*
0 Add four circle primitives for the rounded corners*
1,1,$1+$1,$2,$3*
1,1,$1+$1,$4,$5*
1,1,$1+$1,$6,$7*
1,1,$1+$1,$8,$9*
0 Add four rect primitives between the rounded corners*
20,1,$1+$1,$2,$3,$4,$5,0*
20,1,$1+$1,$4,$5,$6,$7,0*
20,1,$1+$1,$6,$7,$8,$9,0*
20,1,$1+$1,$8,$9,$2,$3,0*%
G04 Aperture macros list end*
%TA.AperFunction,SMDPad,CuDef*%
%ADD10RoundRect,0.250000X0.475000X-0.337500X0.475000X0.337500X-0.475000X0.337500X-0.475000X-0.337500X0*%
%TD*%
%TA.AperFunction,ComponentPad*%
%ADD11C,1.524000*%
%TD*%
%TA.AperFunction,SMDPad,CuDef*%
%ADD12RoundRect,0.250000X0.537500X1.450000X-0.537500X1.450000X-0.537500X-1.450000X0.537500X-1.450000X0*%
%TD*%
%TA.AperFunction,ComponentPad*%
%ADD13R,2.000000X4.000000*%
%TD*%
%TA.AperFunction,ComponentPad*%
%ADD14O,2.000000X3.300000*%
%TD*%
%TA.AperFunction,ComponentPad*%
%ADD15O,3.500000X2.000000*%
%TD*%
%TA.AperFunction,ComponentPad*%
%ADD16R,1.600000X1.600000*%
%TD*%
%TA.AperFunction,ComponentPad*%
%ADD17O,1.600000X1.600000*%
%TD*%
%TA.AperFunction,SMDPad,CuDef*%
%ADD18RoundRect,0.250000X1.025000X-0.875000X1.025000X0.875000X-1.025000X0.875000X-1.025000X-0.875000X0*%
%TD*%
%TA.AperFunction,SMDPad,CuDef*%
%ADD19RoundRect,0.250000X-0.400000X-0.625000X0.400000X-0.625000X0.400000X0.625000X-0.400000X0.625000X0*%
%TD*%
%TA.AperFunction,ComponentPad*%
%ADD20C,5.600000*%
%TD*%
%TA.AperFunction,SMDPad,CuDef*%
%ADD21RoundRect,0.250000X0.550000X-1.250000X0.550000X1.250000X-0.550000X1.250000X-0.550000X-1.250000X0*%
%TD*%
%TA.AperFunction,ComponentPad*%
%ADD22R,1.700000X1.700000*%
%TD*%
%TA.AperFunction,ComponentPad*%
%ADD23O,1.700000X1.700000*%
%TD*%
%TA.AperFunction,SMDPad,CuDef*%
%ADD24R,1.200000X2.200000*%
%TD*%
%TA.AperFunction,SMDPad,CuDef*%
%ADD25R,5.800000X6.400000*%
%TD*%
%TA.AperFunction,ComponentPad*%
%ADD26R,1.500000X1.500000*%
%TD*%
%TA.AperFunction,ComponentPad*%
%ADD27C,1.500000*%
%TD*%
%TA.AperFunction,ComponentPad*%
%ADD28C,2.300000*%
%TD*%
%TA.AperFunction,ViaPad*%
%ADD29C,0.800000*%
%TD*%
%TA.AperFunction,Conductor*%
%ADD30C,0.250000*%
%TD*%
%TA.AperFunction,Conductor*%
%ADD31C,1.000000*%
%TD*%
G04 APERTURE END LIST*
D10*
X129000000Y-105937500D03*
X129000000Y-103862500D03*
D11*
X162410000Y-91150000D03*
X167490000Y-91150000D03*
X154790000Y-91150000D03*
X172570000Y-91150000D03*
X149710000Y-91150000D03*
X177650000Y-91150000D03*
X144630000Y-91150000D03*
X144630000Y-83530000D03*
X177650000Y-83530000D03*
X149710000Y-83530000D03*
X172570000Y-83530000D03*
X154790000Y-83530000D03*
X167490000Y-83530000D03*
X162410000Y-83530000D03*
D12*
X122637500Y-78450000D03*
X118362500Y-78450000D03*
X140417500Y-78450000D03*
X136142500Y-78450000D03*
D13*
X110887000Y-103909000D03*
D14*
X104887000Y-103909000D03*
D15*
X103887000Y-108409000D03*
X103887000Y-99409000D03*
D16*
X191635000Y-91140000D03*
D17*
X194175000Y-91140000D03*
X196715000Y-91140000D03*
X196715000Y-83520000D03*
X194175000Y-83520000D03*
X191635000Y-83520000D03*
D18*
X184000000Y-71490000D03*
X184000000Y-65090000D03*
X184000000Y-90540000D03*
X184000000Y-84140000D03*
D11*
X120500000Y-72100000D03*
X123040000Y-72100000D03*
X125580000Y-72100000D03*
X128120000Y-72100000D03*
X130660000Y-72100000D03*
X133200000Y-72100000D03*
X135740000Y-72100000D03*
X138280000Y-72100000D03*
X138280000Y-64480000D03*
X135740000Y-64480000D03*
X133200000Y-64480000D03*
X130660000Y-64480000D03*
X128120000Y-64480000D03*
X125580000Y-64480000D03*
X123040000Y-64480000D03*
X120500000Y-64480000D03*
D19*
X127840000Y-59400000D03*
X130940000Y-59400000D03*
D20*
X194400000Y-114400000D03*
D19*
X192610000Y-79720000D03*
X195710000Y-79720000D03*
X192610000Y-60670000D03*
X195710000Y-60670000D03*
D16*
X191635000Y-72090000D03*
D17*
X194175000Y-72090000D03*
X196715000Y-72090000D03*
X196715000Y-64470000D03*
X194175000Y-64470000D03*
X191635000Y-64470000D03*
D21*
X124300000Y-106109000D03*
X124300000Y-101709000D03*
D12*
X122637500Y-59400000D03*
X118362500Y-59400000D03*
X140417500Y-59400000D03*
X136142500Y-59400000D03*
D11*
X120500000Y-91150000D03*
X123040000Y-91150000D03*
X125580000Y-91150000D03*
X128120000Y-91150000D03*
X130660000Y-91150000D03*
X133200000Y-91150000D03*
X135740000Y-91150000D03*
X138280000Y-91150000D03*
X138280000Y-83530000D03*
X135740000Y-83530000D03*
X133200000Y-83530000D03*
X130660000Y-83530000D03*
X128120000Y-83530000D03*
X125580000Y-83530000D03*
X123040000Y-83530000D03*
X120500000Y-83530000D03*
D22*
X144780000Y-106000000D03*
D23*
X144780000Y-103460000D03*
X147320000Y-106000000D03*
X147320000Y-103460000D03*
D24*
X132720000Y-106200000D03*
D25*
X135000000Y-99900000D03*
D24*
X137280000Y-106200000D03*
D19*
X127840000Y-78450000D03*
X130940000Y-78450000D03*
D10*
X140000000Y-106193500D03*
X140000000Y-104118500D03*
D26*
X106782000Y-89177000D03*
D27*
X108562000Y-88161000D03*
X106782000Y-87145000D03*
X108562000Y-86129000D03*
X106782000Y-85113000D03*
X108562000Y-84097000D03*
X106782000Y-83081000D03*
X108562000Y-82065000D03*
X113382000Y-92477000D03*
X113382000Y-90187000D03*
X113382000Y-81047000D03*
X113382000Y-78757000D03*
X106782000Y-73427000D03*
X108562000Y-72411000D03*
X106782000Y-71395000D03*
X108562000Y-70379000D03*
X106782000Y-69363000D03*
X108562000Y-68347000D03*
X106782000Y-67331000D03*
X108562000Y-66315000D03*
X113382000Y-76727000D03*
X113382000Y-74437000D03*
X113382000Y-65297000D03*
X113382000Y-63007000D03*
D28*
X107672000Y-61747000D03*
X107672000Y-93747000D03*
D20*
X194400000Y-55600000D03*
X105600000Y-114400000D03*
D11*
X162410000Y-72100000D03*
X167490000Y-72100000D03*
X154790000Y-72100000D03*
X172570000Y-72100000D03*
X149710000Y-72100000D03*
X177650000Y-72100000D03*
X144630000Y-72100000D03*
X144630000Y-64480000D03*
X177650000Y-64480000D03*
X149710000Y-64480000D03*
X172570000Y-64480000D03*
X154790000Y-64480000D03*
X167490000Y-64480000D03*
X162410000Y-64480000D03*
D22*
X116581000Y-106000000D03*
D23*
X116581000Y-103460000D03*
X119121000Y-106000000D03*
X119121000Y-103460000D03*
D20*
X105600000Y-55600000D03*
D29*
X149820000Y-94380000D03*
X101092000Y-87653000D03*
X132560000Y-87340000D03*
X132510000Y-68290000D03*
X187302000Y-84480000D03*
X187195833Y-65430000D03*
X101069000Y-83081000D03*
X144600000Y-76300000D03*
X101092000Y-72413000D03*
X101092000Y-73937000D03*
X101092000Y-66317000D03*
X101092000Y-67841000D03*
X180256000Y-90200000D03*
X101069000Y-89177000D03*
X101069000Y-81557000D03*
X180230000Y-71150000D03*
X116500000Y-79300000D03*
X144600000Y-57300000D03*
X116000000Y-63000000D03*
X128200000Y-107400000D03*
X130000000Y-107400000D03*
X129100000Y-107400000D03*
X156700000Y-68300000D03*
X156650000Y-87350000D03*
X129000000Y-98000000D03*
X154790000Y-87340000D03*
X144630000Y-78450000D03*
X167490000Y-87340000D03*
X172570000Y-87340000D03*
X154720074Y-68420074D03*
X144630000Y-59436000D03*
X167500000Y-68300000D03*
X172600000Y-68300000D03*
X110767000Y-87145000D03*
X112274234Y-86112234D03*
X112291000Y-85090000D03*
X110721000Y-84097000D03*
X110744000Y-71374000D03*
X112268000Y-70358000D03*
X112268000Y-69342000D03*
X110744000Y-68326000D03*
X142852000Y-91150000D03*
X142852000Y-85448000D03*
X130660000Y-89588500D03*
X142852000Y-72130000D03*
X142852000Y-66428000D03*
X130630763Y-70506500D03*
X172570000Y-85308000D03*
X187302000Y-82580000D03*
X172600000Y-66600000D03*
X187100000Y-63500000D03*
X187302000Y-91150000D03*
X162410000Y-87340000D03*
X121412000Y-75946000D03*
X187100000Y-72113500D03*
X119634000Y-75946000D03*
X162400000Y-68300000D03*
D30*
X147320000Y-106000000D02*
X149230000Y-106000000D01*
X149790000Y-105440000D02*
X149790000Y-94410000D01*
X149790000Y-94410000D02*
X149820000Y-94380000D01*
X149230000Y-106000000D02*
X149790000Y-105440000D01*
X184340000Y-84480000D02*
X184000000Y-84140000D01*
X184000000Y-65090000D02*
X186855833Y-65090000D01*
X187302000Y-84480000D02*
X184340000Y-84480000D01*
X186855833Y-65090000D02*
X187195833Y-65430000D01*
D31*
X129606500Y-106193500D02*
X132713500Y-106193500D01*
X119230000Y-106109000D02*
X119121000Y-106000000D01*
X124300000Y-106109000D02*
X128491000Y-106109000D01*
X132713500Y-106193500D02*
X132720000Y-106200000D01*
X124300000Y-106109000D02*
X119230000Y-106109000D01*
D30*
X126850000Y-81498000D02*
X126850000Y-87086000D01*
X127840000Y-80508000D02*
X126850000Y-81498000D01*
X125580000Y-88356000D02*
X125580000Y-91150000D01*
X122637500Y-78450000D02*
X127840000Y-78450000D01*
X127840000Y-78450000D02*
X127840000Y-80508000D01*
X126850000Y-87086000D02*
X125580000Y-88356000D01*
X118362500Y-78450000D02*
X118362500Y-86472500D01*
X118362500Y-86472500D02*
X119230000Y-87340000D01*
X122024000Y-87340000D02*
X123040000Y-88356000D01*
X192890000Y-86324000D02*
X194175000Y-87609000D01*
X194175000Y-87609000D02*
X194175000Y-91140000D01*
X154790000Y-87340000D02*
X155806000Y-86324000D01*
X119230000Y-87340000D02*
X122024000Y-87340000D01*
X123040000Y-88356000D02*
X123040000Y-91150000D01*
X155806000Y-86324000D02*
X192890000Y-86324000D01*
X133200000Y-91150000D02*
X134470000Y-92420000D01*
X139804000Y-81498000D02*
X140417500Y-80884500D01*
X137010000Y-91658000D02*
X137010000Y-82768000D01*
X144630000Y-78450000D02*
X140417500Y-78450000D01*
X137010000Y-82768000D02*
X138280000Y-81498000D01*
X134470000Y-92420000D02*
X136248000Y-92420000D01*
X136248000Y-92420000D02*
X137010000Y-91658000D01*
X140417500Y-80884500D02*
X140417500Y-78450000D01*
X138280000Y-81498000D02*
X139804000Y-81498000D01*
X130914000Y-80538000D02*
X131930000Y-81554000D01*
X130914000Y-78476000D02*
X130914000Y-80538000D01*
X135740000Y-87840000D02*
X135740000Y-91150000D01*
X131930000Y-81554000D02*
X131930000Y-84030000D01*
X130940000Y-78450000D02*
X130914000Y-78476000D01*
X131930000Y-84030000D02*
X135740000Y-87840000D01*
X130940000Y-78450000D02*
X136142500Y-78450000D01*
X196715000Y-83520000D02*
X196715000Y-88087000D01*
X194414000Y-93436000D02*
X190858000Y-93436000D01*
X190858000Y-93436000D02*
X187847000Y-90425000D01*
X196715000Y-83520000D02*
X196715000Y-80725000D01*
X182374000Y-90540000D02*
X184000000Y-90540000D01*
X179174000Y-87340000D02*
X182374000Y-90540000D01*
X172570000Y-87340000D02*
X179174000Y-87340000D01*
X187847000Y-90425000D02*
X184115000Y-90425000D01*
X196715000Y-80725000D02*
X195710000Y-79720000D01*
X195430000Y-89372000D02*
X195430000Y-92420000D01*
X195430000Y-92420000D02*
X194414000Y-93436000D01*
X172570000Y-87340000D02*
X167490000Y-87340000D01*
X196715000Y-88087000D02*
X195430000Y-89372000D01*
X133200000Y-83530000D02*
X135740000Y-83530000D01*
X123040000Y-83530000D02*
X125580000Y-83530000D01*
X122637500Y-59400000D02*
X127840000Y-59400000D01*
X125571550Y-69270000D02*
X125571550Y-72064000D01*
X127831550Y-61422000D02*
X126841550Y-62412000D01*
X126841550Y-62412000D02*
X126841550Y-68000000D01*
X126841550Y-68000000D02*
X125571550Y-69270000D01*
X127831550Y-59364000D02*
X127831550Y-61422000D01*
X192838808Y-67400000D02*
X194123808Y-68685000D01*
X155754808Y-67400000D02*
X192838808Y-67400000D01*
X118357080Y-67419500D02*
X119224580Y-68287000D01*
X194123808Y-68685000D02*
X194123808Y-72216000D01*
X119224580Y-68287000D02*
X122018580Y-68287000D01*
X123034580Y-69303000D02*
X123034580Y-72097000D01*
X154738808Y-68416000D02*
X155754808Y-67400000D01*
X118357080Y-59397000D02*
X118357080Y-67419500D01*
X122018580Y-68287000D02*
X123034580Y-69303000D01*
X134446154Y-73507000D02*
X136224154Y-73507000D01*
X136986154Y-72745000D02*
X136986154Y-63855000D01*
X139780154Y-62585000D02*
X140393654Y-61971500D01*
X136986154Y-63855000D02*
X138256154Y-62585000D01*
X138256154Y-62585000D02*
X139780154Y-62585000D01*
X136224154Y-73507000D02*
X136986154Y-72745000D01*
X144630000Y-59436000D02*
X140417500Y-59436000D01*
X133176154Y-72237000D02*
X134446154Y-73507000D01*
X140393654Y-61971500D02*
X140393654Y-59537000D01*
X130891518Y-61500000D02*
X131907518Y-62516000D01*
X135717518Y-68802000D02*
X135717518Y-72112000D01*
X130891518Y-59438000D02*
X130891518Y-61500000D01*
X130940000Y-59400000D02*
X136142500Y-59400000D01*
X130917518Y-59412000D02*
X130891518Y-59438000D01*
X131907518Y-62516000D02*
X131907518Y-64992000D01*
X131907518Y-64992000D02*
X135717518Y-68802000D01*
X167500000Y-68300000D02*
X180810000Y-68300000D01*
X187796899Y-71389000D02*
X184064899Y-71389000D01*
X194363899Y-74400000D02*
X190807899Y-74400000D01*
X195379899Y-73384000D02*
X194363899Y-74400000D01*
X196715000Y-61675000D02*
X195710000Y-60670000D01*
X196715000Y-64470000D02*
X196715000Y-61675000D01*
X195379899Y-70336000D02*
X195379899Y-73384000D01*
X196664899Y-69051000D02*
X195379899Y-70336000D01*
X180810000Y-68300000D02*
X184000000Y-71490000D01*
X190807899Y-74400000D02*
X187796899Y-71389000D01*
X196664899Y-64484000D02*
X196664899Y-69051000D01*
X133200000Y-64480000D02*
X135740000Y-64480000D01*
X123040000Y-64480000D02*
X125580000Y-64480000D01*
X134942000Y-94488000D02*
X138280000Y-91150000D01*
X112522000Y-94488000D02*
X134942000Y-94488000D01*
X110767000Y-87145000D02*
X110767000Y-92733000D01*
X110767000Y-92733000D02*
X112522000Y-94488000D01*
X112274234Y-86112234D02*
X113036234Y-86112234D01*
X120142000Y-92710000D02*
X126560000Y-92710000D01*
X119126000Y-91694000D02*
X120142000Y-92710000D01*
X113042468Y-86106000D02*
X114046000Y-86106000D01*
X126560000Y-92710000D02*
X128120000Y-91150000D01*
X113036234Y-86112234D02*
X113042468Y-86106000D01*
X114046000Y-86106000D02*
X119126000Y-91186000D01*
X119126000Y-91186000D02*
X119126000Y-91694000D01*
X114440000Y-85090000D02*
X120500000Y-91150000D01*
X112291000Y-85090000D02*
X114440000Y-85090000D01*
X111506000Y-92456000D02*
X112776000Y-93726000D01*
X111760000Y-86868000D02*
X111760000Y-87630000D01*
X111252000Y-86360000D02*
X111760000Y-86868000D01*
X110744000Y-86106000D02*
X110998000Y-86360000D01*
X128084000Y-93726000D02*
X130660000Y-91150000D01*
X111760000Y-87630000D02*
X111506000Y-87884000D01*
X111506000Y-87884000D02*
X111506000Y-92456000D01*
X110744000Y-84120000D02*
X110744000Y-86106000D01*
X112776000Y-93726000D02*
X128084000Y-93726000D01*
X110721000Y-84097000D02*
X110744000Y-84120000D01*
X110998000Y-86360000D02*
X111252000Y-86360000D01*
X115824000Y-72136000D02*
X118364000Y-74676000D01*
X110744000Y-71374000D02*
X111506000Y-72136000D01*
X118364000Y-74676000D02*
X135704000Y-74676000D01*
X135704000Y-74676000D02*
X138280000Y-72100000D01*
X111506000Y-72136000D02*
X115824000Y-72136000D01*
X126560000Y-73660000D02*
X128120000Y-72100000D01*
X116840000Y-70358000D02*
X120142000Y-73660000D01*
X112268000Y-70358000D02*
X116840000Y-70358000D01*
X120142000Y-73660000D02*
X126560000Y-73660000D01*
X117742000Y-69342000D02*
X120500000Y-72100000D01*
X112268000Y-69342000D02*
X117742000Y-69342000D01*
X111469000Y-69051000D02*
X111469000Y-71083000D01*
X118618000Y-74168000D02*
X128592000Y-74168000D01*
X128592000Y-74168000D02*
X130660000Y-72100000D01*
X111469000Y-71083000D02*
X112014000Y-71628000D01*
X112014000Y-71628000D02*
X116078000Y-71628000D01*
X110744000Y-68326000D02*
X111469000Y-69051000D01*
X116078000Y-71628000D02*
X118618000Y-74168000D01*
D31*
X115742000Y-105161000D02*
X112139000Y-105161000D01*
X112139000Y-105161000D02*
X110887000Y-103909000D01*
X116581000Y-106000000D02*
X115742000Y-105161000D01*
X116581000Y-103460000D02*
X113705000Y-100584000D01*
X113705000Y-100584000D02*
X108212000Y-100584000D01*
X108212000Y-100584000D02*
X104887000Y-103909000D01*
D30*
X142852000Y-85448000D02*
X142852000Y-91150000D01*
X152146000Y-82931000D02*
X152146000Y-88646000D01*
X149710000Y-80495000D02*
X152146000Y-82931000D01*
X152146000Y-88646000D02*
X154650000Y-91150000D01*
X149710000Y-72100000D02*
X149710000Y-80495000D01*
X154650000Y-91150000D02*
X154790000Y-91150000D01*
X130660000Y-89588500D02*
X130660000Y-83530000D01*
X151524000Y-92964000D02*
X155956000Y-92964000D01*
X155956000Y-92964000D02*
X157226000Y-91694000D01*
X156210000Y-89154000D02*
X153924000Y-89154000D01*
X154790000Y-80368000D02*
X154790000Y-72100000D01*
X157226000Y-91694000D02*
X157226000Y-90170000D01*
X157226000Y-90170000D02*
X156210000Y-89154000D01*
X149710000Y-91150000D02*
X151524000Y-92964000D01*
X153924000Y-85344000D02*
X155448000Y-85344000D01*
X156464000Y-84328000D02*
X156464000Y-82042000D01*
X153924000Y-89154000D02*
X153162000Y-88392000D01*
X156464000Y-82042000D02*
X154790000Y-80368000D01*
X153162000Y-86106000D02*
X153924000Y-85344000D01*
X153162000Y-88392000D02*
X153162000Y-86106000D01*
X155448000Y-85344000D02*
X156464000Y-84328000D01*
X138280000Y-83530000D02*
X144630000Y-83530000D01*
X148590000Y-62484000D02*
X152794000Y-62484000D01*
X149710000Y-82908000D02*
X147320000Y-80518000D01*
X149710000Y-83530000D02*
X149710000Y-82908000D01*
X147320000Y-80518000D02*
X147320000Y-63754000D01*
X152794000Y-62484000D02*
X154790000Y-64480000D01*
X147320000Y-63754000D02*
X148590000Y-62484000D01*
X154790000Y-83092000D02*
X154790000Y-83530000D01*
X152146000Y-80448000D02*
X154790000Y-83092000D01*
X149710000Y-64480000D02*
X152146000Y-66916000D01*
X152146000Y-66916000D02*
X152146000Y-80448000D01*
X142852000Y-66428000D02*
X142852000Y-72130000D01*
X130660000Y-70477263D02*
X130660000Y-64480000D01*
X130630763Y-70506500D02*
X130660000Y-70477263D01*
X138280000Y-64480000D02*
X144630000Y-64480000D01*
X172570000Y-85308000D02*
X176888000Y-80990000D01*
X176888000Y-80990000D02*
X185712000Y-80990000D01*
X185712000Y-80990000D02*
X187302000Y-82580000D01*
X177500000Y-61700000D02*
X185300000Y-61700000D01*
X185300000Y-61700000D02*
X187100000Y-63500000D01*
X172600000Y-66600000D02*
X177500000Y-61700000D01*
X191635000Y-83520000D02*
X191635000Y-80695000D01*
X191635000Y-80695000D02*
X192610000Y-79720000D01*
X191635000Y-61645000D02*
X192610000Y-60670000D01*
X191635000Y-64470000D02*
X191635000Y-61645000D01*
X162410000Y-91150000D02*
X162410000Y-87340000D01*
X187302000Y-91150000D02*
X185742000Y-92710000D01*
X163970000Y-92710000D02*
X162410000Y-91150000D01*
X185742000Y-92710000D02*
X163970000Y-92710000D01*
D31*
X135781500Y-99900000D02*
X135000000Y-99900000D01*
X131037500Y-103862500D02*
X135000000Y-99900000D01*
X140000000Y-104118500D02*
X135781500Y-99900000D01*
X124300000Y-101709000D02*
X120872000Y-101709000D01*
X140118500Y-104000000D02*
X140000000Y-104118500D01*
X128400000Y-103862500D02*
X129000000Y-103862500D01*
X126246500Y-101709000D02*
X128400000Y-103862500D01*
X129000000Y-103862500D02*
X131037500Y-103862500D01*
X124300000Y-101709000D02*
X126246500Y-101709000D01*
X144240000Y-104000000D02*
X140118500Y-104000000D01*
X144780000Y-103460000D02*
X144240000Y-104000000D01*
X120872000Y-101709000D02*
X119121000Y-103460000D01*
X144586500Y-106193500D02*
X144780000Y-106000000D01*
X140000000Y-106193500D02*
X144586500Y-106193500D01*
X137286500Y-106193500D02*
X137280000Y-106200000D01*
X140000000Y-106193500D02*
X137286500Y-106193500D01*
D30*
X164510000Y-74200000D02*
X162410000Y-72100000D01*
X187100000Y-72113500D02*
X185013500Y-74200000D01*
X162410000Y-72100000D02*
X162410000Y-68310000D01*
X162410000Y-68310000D02*
X162400000Y-68300000D01*
X121412000Y-75946000D02*
X119634000Y-75946000D01*
X185013500Y-74200000D02*
X164510000Y-74200000D01*
%TA.AperFunction,Conductor*%
G36*
X130415931Y-106420002D02*
G01*
X130436905Y-106436905D01*
X130563095Y-106563095D01*
X130597121Y-106625407D01*
X130600000Y-106652190D01*
X130600000Y-107747810D01*
X130579998Y-107815931D01*
X130563095Y-107836905D01*
X130436905Y-107963095D01*
X130374593Y-107997121D01*
X130347810Y-108000000D01*
X127852190Y-108000000D01*
X127784069Y-107979998D01*
X127763095Y-107963095D01*
X127636905Y-107836905D01*
X127602879Y-107774593D01*
X127600000Y-107747810D01*
X127600000Y-106652190D01*
X127620002Y-106584069D01*
X127636905Y-106563095D01*
X127763095Y-106436905D01*
X127825407Y-106402879D01*
X127852190Y-106400000D01*
X130347810Y-106400000D01*
X130415931Y-106420002D01*
G37*
%TD.AperFunction*%
M02*
